<?xml version="1.0" encoding="UTF-8" standalone="no"?>
<svg viewBox="0 0 472.7847 454.53384" xmlns="http://www.w3.org/2000/svg">
<defs>
<filter id="filter4666">
<feGaussianBlur stdDeviation="4.02318"/>
</filter>
</defs>
<g transform="translate(-92.57937,-104.64267)">
<g transform="matrix(0,.39051,-.39051,0,496.12309,304.70418)">
<path d="m429.3125,288.6875c-14.96757-15.72087 3.85425,29.99354 17.17259,65.70161-3.2973-.02695-44.6805,14.11089-78.86009,14.11089h-102.90625c-36.41321,0-65.71875-51.51602-65.71875.03125v132.25c2.02031,53.56756 29.30556.03125 65.71875.03125h102.90625c34.17959,0 75.56279,13.12768 78.86009,13.10073-14.91408,33.9228-45.0146,86.60531-17.17259,67.71177l148.03571-136.86103c13.2337-13.63295 3.89979-17.59406-.6963-23.58566l-147.33941-132.49081z" fill="#00f" fill-rule="evenodd" stroke="#0c0e7c" stroke-width="14.8"/>
<path d="m212.03115,356.74588c-4.84003.15947-7.58141,5.24824-7.58141,20.062v115.82865c1.76946,46.91612 25.66672.02736 57.55851.02736h90.12848c6.53085,0 13.34246.56777 20.062,1.42323 5.36632-21.60241 35.2704-23.33559 35.38892-58.04854 .11036-31.49627-29.04578-42.97544-35.38892-60.79078-6.719.92117-13.53168,1.53271-20.062,1.53271h-90.12848c-21.4273,0-40.06655-20.36118-49.9771-20.03463z" fill="#2b2bff" fill-rule="evenodd" filter="url(#filter4666)"/>
</g>
<g transform="matrix(0,-.39051,-.39051,0,496.51683,361.12824)">
<path d="m429.3125,288.6875c-14.96757-15.72087 3.85425,29.99354 17.17259,65.70161-3.2973-.02695-44.6805,14.11089-78.86009,14.11089h-102.90625c-36.41321,0-65.71875-51.51602-65.71875.03125v132.25c2.02031,53.56756 29.30556.03125 65.71875.03125h102.90625c34.17959,0 75.56279,13.12768 78.86009,13.10073-14.91408,33.9228-45.0146,86.60531-17.17259,67.71177l148.03571-136.86103c13.2337-13.63295 3.89979-17.59406-.6963-23.58566l-147.33941-132.49081z" fill="#00f" fill-rule="evenodd" stroke="#0c0e7c" stroke-width="14.8"/>
<path d="m212.03115,356.74588c-4.84003.15947-7.58141,5.24824-7.58141,20.062v115.82865c1.76946,46.91612 25.66672.02736 57.55851.02736h90.12848c6.53085,0 13.34246.56777 20.062,1.42323 5.36632-21.60241 35.2704-23.33559 35.38892-58.04854 .11036-31.49627-29.04578-42.97544-35.38892-60.79078-6.719.92117-13.53168,1.53271-20.062,1.53271h-90.12848c-21.4273,0-40.06655-20.36118-49.9771-20.03463z" fill="#2b2bff" fill-rule="evenodd" filter="url(#filter4666)"/>
</g>
<g transform="matrix(-.39051,0,0,-.39051,351.568,502.31215)">
<path d="m429.3125,288.6875c-14.96757-15.72087 3.85425,29.99354 17.17259,65.70161-3.2973-.02695-44.6805,14.11089-78.86009,14.11089h-102.90625c-36.41321,0-65.71875-51.51602-65.71875.03125v132.25c2.02031,53.56756 29.30556.03125 65.71875.03125h102.90625c34.17959,0 75.56279,13.12768 78.86009,13.10073-14.91408,33.9228-45.0146,86.60531-17.17259,67.71177l148.03571-136.86103c13.2337-13.63295 3.89979-17.59406-.6963-23.58566l-147.33941-132.49081z" fill="#00f" fill-rule="evenodd" stroke="#0c0e7c" stroke-width="14.8"/>
<path d="m212.03115,356.74588c-4.84003.15947-7.58141,5.24824-7.58141,20.062v115.82865c1.76946,46.91612 25.66672.02736 57.55851.02736h90.12848c6.53085,0 13.34246.56777 20.062,1.42323 5.36632-21.60241 35.2704-23.33559 35.38892-58.04854 .11036-31.49627-29.04578-42.97544-35.38892-60.79078-6.719.92117-13.53168,1.53271-20.062,1.53271h-90.12848c-21.4273,0-40.06655-20.36118-49.9771-20.03463z" fill="#2b2bff" fill-rule="evenodd" filter="url(#filter4666)"/>
</g>
<g transform="matrix(.39051,0,0,-.39051,301.28608,502.70589)">
<path d="m429.3125,288.6875c-14.96757-15.72087 3.85425,29.99354 17.17259,65.70161-3.2973-.02695-44.6805,14.11089-78.86009,14.11089h-102.90625c-36.41321,0-65.71875-51.51602-65.71875.03125v132.25c2.02031,53.56756 29.30556.03125 65.71875.03125h102.90625c34.17959,0 75.56279,13.12768 78.86009,13.10073-14.91408,33.9228-45.0146,86.60531-17.17259,67.71177l148.03571-136.86103c13.2337-13.63295 3.89979-17.59406-.6963-23.58566l-147.33941-132.49081z" fill="#00f" fill-rule="evenodd" stroke="#0c0e7c" stroke-width="14.8"/>
<path d="m212.03115,356.74588c-4.84003.15947-7.58141,5.24824-7.58141,20.062v115.82865c1.76946,46.91612 25.66672.02736 57.55851.02736h90.12848c6.53085,0 13.34246.56777 20.062,1.42323 5.36632-21.60241 35.2704-23.33559 35.38892-58.04854 .11036-31.49627-29.04578-42.97544-35.38892-60.79078-6.719.92117-13.53168,1.53271-20.062,1.53271h-90.12848c-21.4273,0-40.06655-20.36118-49.9771-20.03463z" fill="#2b2bff" fill-rule="evenodd" filter="url(#filter4666)"/>
</g>
<path d="m325.93008,299.20105a36.74566,0.053212974 0 0,1 36.74566.05321v68.33413a36.74566,0.053212974 0 0,1 -36.74566.05321 36.74566,0.053212974 0 0,1 -36.74566-.05321v-68.33413a36.74566,0.053212974 0 0,1 36.74566-.05321" fill="#00f" fill-rule="evenodd" stroke="#091d93" stroke-width="6.03957"/>
<path d="m324.8942,309.45627a26.01108,0.053212974 0 0,1 26.01108.05321v48.34046a26.01108,0.053212974 0 0,1 -26.01108.05321 26.01108,0.053212974 0 0,1 -26.01108-.05321v-48.34046a26.01108,0.053212974 0 0,1 26.01108-.05321" fill="#0000c7" fill-rule="evenodd"/>
<path d="m324.59786,316.19174a18.96053,0.053212974 0 0,1 18.96053.05321v35.20848a18.96053,0.053212974 0 0,1 -18.96053.05321 18.96053,0.053212974 0 0,1 -18.96053-.05321v-35.20848a18.96053,0.053212974 0 0,1 18.96053-.05321" fill="#00009a" fill-rule="evenodd"/>
<path d="m324.14959,320.80334a13.94207,0.053212974 0 0,1 13.94207.05321v25.86135a13.94207,0.053212974 0 0,1 -13.94207.05321 13.94207,0.053212974 0 0,1 -13.94207-.05321v-25.86135a13.94207,0.053212974 0 0,1 13.94207-.05321" fill="#00007c" fill-rule="evenodd"/>
<path d="m324.02091,325.4769a8.79493,0.053212974 0 0,1 8.79493.05321v16.27455a8.79493,0.053212974 0 0,1 -8.79493.05321 8.79493,0.053212974 0 0,1 -8.79493-.05321v-16.27455a8.79493,0.053212974 0 0,1 8.79493-.05321" fill="#006" fill-rule="evenodd"/>
<path d="m324.45997,329.07196a4.80589,0.053212974 0 0,1 4.80589.05321v8.84478a4.80589,0.053212974 0 0,1 -4.80589.05321 4.80589,0.053212974 0 0,1 -4.80589-.05321v-8.84478a4.80589,0.053212974 0 0,1 4.80589-.05321" fill="#00004a" fill-rule="evenodd"/><text font-family="Fingerpop" font-size="32" x="78.47868" xml:space="preserve" y="597.91583">
      <tspan x="78.47868" y="597.91583"></tspan>
    </text>
</g>
</svg>
