<?xml version="1.0" encoding="UTF-8" standalone="no"?>
<svg viewBox="0 0 184.78215 169.20695" xmlns="http://www.w3.org/2000/svg">
<g transform="translate(-17.75832,-875.334)">
<path d="m55.42376,1006.1783 53.66644,36.7102 2.82454-76.2443-55.07871-35.29835-1.41227,74.83245z" fill="#fff" stroke="#000" stroke-linecap="round" stroke-linejoin="round" stroke-width="2.098"/>
<path d="m110.50247,965.23226 56.49095-29.65058v80.48012l-57.90322,26.8267 1.41227-77.65624z" fill="#fff" stroke="#000" stroke-linecap="round" stroke-linejoin="round" stroke-width="2.098"/>
<path d="m55.42376,929.93394 53.66644,35.29829 58.60938-27.53265-51.54801-33.18042-60.72781,25.41478z" fill="#fff" stroke="#000" stroke-linecap="round" stroke-linejoin="round" stroke-width="2.098"/>
<path d="m114.73929,905.93107-16.94728-28.94463-72.026,32.47447 32.18313,21.27658 56.79015-24.80642z" fill="#fff" stroke="#000" stroke-linecap="round" stroke-linejoin="round" stroke-width="2.098"/>
<path d="m58.95446,932.05184-39.5437,4.94175 67.78918,43.06393 23.19958-15.43366-51.44506-32.57202z" fill="#fff" stroke="#000" stroke-linecap="round" stroke-linejoin="round" stroke-width="2.098"/>
<path d="m115.74944,904.62244 19.46784-23.50348 57.50109,37.72037-27.13722,18.15426-49.83171-32.37115z" fill="#fff" stroke="#000" stroke-linecap="round" stroke-linejoin="round" stroke-width="2.098"/>
<path d="m109.0902,965.23223 56.49095-28.23864 35.30688,12.70739-64.96463,35.29832-26.8332-19.76707z" fill="#fff" stroke="#000" stroke-linecap="round" stroke-linejoin="round" stroke-width="2.098"/>
<path d="m115.44541,905.93107-1.41227,57.18326" fill="#fff" stroke="#000" stroke-linecap="round" stroke-linejoin="round" stroke-width="1.198"/>
</g>
</svg>
