<?xml version="1.0" encoding="UTF-8" standalone="no"?>
<svg width="175" xmlns="http://www.w3.org/2000/svg" height="175">
 <g id="layer1">
  <path id="Checkmark_Vee" d="m38.794 151.91c-3.3247-0.47699-6.2175-1.147-6.4286-1.489-0.21089-0.342-1.1887-1.907-2.1727-3.479-2.7657-4.416-4.6958-9.187-7.8024-19.285-5.5378-18.001-6.6154-22.682-5.8742-25.517 1.1445-4.376 11.067-10.561 17.246-10.749 4.9854-0.152 5.5654 0.278 8.4657 6.266 1.7125 3.535 4.2232 9.16 5.5794 12.5 1.3561 3.339 3.3408 6.071 4.4104 6.071 1.0697 0 5.0995-4.982 8.9553-11.071 3.8558-6.09 7.6175-11.755 8.3593-12.59 0.74181-0.835 2.1763-3.0854 3.1878-5.0002 4.337-8.2106 39.472-56.403 49.927-68.482 2.381-2.75 4.33-5.4755 4.332-6.0568 0.001007-0.5813 3.378-3.2432 7.503-5.9155 5.636-3.6512 9.633-5.0605 16.081-5.6707 11.924-1.1282 13.048-0.046301 8.027 7.7254-2.255 3.4904-5.32 7.6319-6.81 9.2033-1.491 1.5715-5.912 7.0358-9.826 12.143-3.913 5.1072-7.819 9.9286-8.679 10.714-0.86099 0.7857-3.08 3.6786-4.931 6.4286-1.852 2.75-3.72 5.3214-4.15 5.7143-3.735 3.4067-43.818 59.201-47.209 65.714-1.0228 1.965-2.2455 3.893-2.7172 4.286-0.47159 0.393-4.5808 6.318-9.1314 13.167s-8.9658 12.88-9.8114 13.403c-3.0999 1.915-10.641 2.814-16.531 1.969z" stroke="#000" stroke-width="4" fill="#53d92c"/>
 </g>
</svg>
