<?xml version="1.0" encoding="UTF-8" standalone="no"?>
<svg viewBox="0 0 225.38333 288.65756" xmlns="http://www.w3.org/2000/svg" xmlns:xlink="http://www.w3.org/1999/xlink">
<defs>
<filter id="filter6182">
<feGaussianBlur stdDeviation=".9"/>
</filter>
<filter id="filter6192">
<feGaussianBlur stdDeviation="1.2375"/>
</filter>
<filter id="filter3799-0">
<feGaussianBlur stdDeviation="4.28145"/>
</filter>
<filter id="filter3835-4">
<feGaussianBlur stdDeviation="2.35878"/>
</filter>
<filter id="filter3858-1">
<feGaussianBlur stdDeviation="1.90925"/>
</filter>
<linearGradient id="linearGradient1662">
<stop offset="0" stop-opacity="0"/>
<stop offset=".5" stop-opacity=".15686"/>
<stop offset="1" stop-opacity="0"/>
</linearGradient>
<linearGradient id="linearGradient1646">
<stop offset="0" stop-color="#969696"/>
<stop offset="1" stop-color="#ededed"/>
</linearGradient>
<linearGradient gradientUnits="userSpaceOnUse" id="linearGradient6057" x1="267.12109" x2="267.12103" y1="976.00181" y2="911.99088">
<stop offset="0" stop-color="#d2b200"/>
<stop offset=".5" stop-color="#ffc300"/>
<stop offset=".75" stop-color="#ffed00"/>
<stop offset="1" stop-color="#fd0"/>
</linearGradient>
<linearGradient gradientTransform="matrix(1.05674,0,0,1.3011,-160.80336,752.68622)" gradientUnits="userSpaceOnUse" id="linearGradient6065" x1="708.08087" x2="707.66553" y1="172.2843" y2="122.22205">
<stop offset="0" stop-color="#bf6663"/>
<stop offset="1" stop-color="#ff8884"/>
</linearGradient>
<linearGradient gradientTransform="matrix(1.65879,0,0,.82888,-134.16077,752.35152)" gradientUnits="userSpaceOnUse" id="linearGradient6069" x1="50.80434" x2="60.26627" y1="269.75226" y2="193.19295">
<stop offset="0" stop-color="#a27d54"/>
<stop offset="1" stop-color="#f5bd7f"/>
</linearGradient>
<linearGradient id="linearGradient3779-5">
<stop offset="0" stop-color="#fff"/>
<stop offset="1" stop-color="#fff" stop-opacity="0"/>
</linearGradient>
<linearGradient gradientUnits="userSpaceOnUse" id="linearGradient6059" x2="0" xlink:href="#linearGradient1662" y1="917.98602" y2="920.91747"/>
<linearGradient gradientUnits="userSpaceOnUse" id="linearGradient6061" x2="0" xlink:href="#linearGradient1662" y1="961.60902" y2="964.54047"/>
<linearGradient gradientUnits="userSpaceOnUse" id="linearGradient6063" x2="0" xlink:href="#linearGradient1662" y1="938.09492" y2="941.02637"/>
<linearGradient gradientUnits="userSpaceOnUse" id="linearGradient6067" x2="0" xlink:href="#linearGradient1646" y1="975.95949" y2="911.2665"/>
<linearGradient gradientTransform="matrix(.52371,0,0,2.5963,-139.30362,753.75182)" gradientUnits="userSpaceOnUse" id="linearGradient6071" x1="1327.0875" x2="1351.4697" xlink:href="#linearGradient1646" y1="80.9898" y2="62.19764"/>
<linearGradient gradientTransform="matrix(.52371,0,0,2.5963,-145.16649,753.75182)" gradientUnits="userSpaceOnUse" id="linearGradient6073" x1="1327.0875" x2="1351.4697" xlink:href="#linearGradient1646" y1="80.9898" y2="62.19764"/>
<linearGradient gradientTransform="matrix(.52371,0,0,2.5963,-151.02937,753.75182)" gradientUnits="userSpaceOnUse" id="linearGradient6075" x1="1327.0875" x2="1351.4697" xlink:href="#linearGradient1646" y1="80.9898" y2="62.19764"/>
<linearGradient gradientTransform="matrix(.52371,0,0,2.5963,-174.48086,753.75182)" gradientUnits="userSpaceOnUse" id="linearGradient6077" x1="1327.0875" x2="1351.4697" xlink:href="#linearGradient1646" y1="80.9898" y2="62.19764"/>
<linearGradient gradientTransform="matrix(.52371,0,0,2.5963,-180.34373,753.75182)" gradientUnits="userSpaceOnUse" id="linearGradient6079" x1="1327.0875" x2="1351.4697" xlink:href="#linearGradient1646" y1="80.9898" y2="62.19764"/>
<linearGradient gradientTransform="matrix(.52371,0,0,2.5963,-186.2066,753.75182)" gradientUnits="userSpaceOnUse" id="linearGradient6081" x1="1327.0875" x2="1351.4697" xlink:href="#linearGradient1646" y1="80.9898" y2="62.19764"/>
<linearGradient gradientUnits="userSpaceOnUse" id="linearGradient6299-3" x1="-143.96869" x2="-85.23306" xlink:href="#linearGradient3779-5" y1="728.20655" y2="956.23008"/>
<linearGradient gradientUnits="userSpaceOnUse" id="linearGradient6301-1" x1="306.75055" x2="284.61105" xlink:href="#linearGradient3779-5" y1="798.15564" y2="686.35052"/>
</defs>
<g transform="translate(.5,-772.26464)">
<path d="m4.91,778.45218h156l60,60v219.00002h-216z" filter="url(#filter6192)" stroke="#000" stroke-linecap="round" stroke-linejoin="round"/>
<path d="m0,773.36218h156l60,60v219.00002h-216z" fill="#fff" stroke="#000" stroke-linecap="round" stroke-linejoin="round"/>
<path d="m156,837.36218c24.88544-12.21359 42.57624-6.44061 60,0l-60-60c8.33312,22.77771 14.19108,44.73036 0,60z" filter="url(#filter6182)" stroke="#000" transform="matrix(1,0,0,1.03906,0,-32.70564)"/>
<path d="m156,833.36218c24.88544-12.21359 42.57624-6.44061 60,0l-60-60c8.33312,22.77771 14.19108,44.73036 0,60z" fill="#fff" stroke="#000"/>
</g>
<g transform="translate(.5,-772.26464)">
<path d="m25,852.36218h19.1358v19.1358h-19.1358z" fill="none" opacity=".82895" stroke="#1e1e1e" stroke-linecap="round" stroke-linejoin="round" stroke-width="3"/>
<path d="m25,893.22638h19.1358v19.1358h-19.1358z" fill="none" opacity=".82895" stroke="#1e1e1e" stroke-linecap="round" stroke-linejoin="round" stroke-width="3"/>
<path d="m25,932.36218h19.1358v19.1358h-19.1358z" fill="none" opacity=".82895" stroke="#1e1e1e" stroke-linecap="round" stroke-linejoin="round" stroke-width="3"/>
<path d="m25,972.36218h19.1358v19.1358h-19.1358z" fill="none" opacity=".82895" stroke="#1e1e1e" stroke-linecap="round" stroke-linejoin="round" stroke-width="3"/>
<path d="m25,1012.3622h19.1358v19.1358h-19.1358z" fill="none" opacity=".82895" stroke="#1e1e1e" stroke-linecap="round" stroke-linejoin="round" stroke-width="3"/>
<path d="m50,872.36218h141" fill="none" stroke="#1e1e1e" stroke-width="3"/>
<path d="m50,912.36218h141" fill="none" stroke="#1e1e1e" stroke-width="3"/>
<path d="m50,952.36218h141" fill="none" stroke="#1e1e1e" stroke-width="3"/>
<path d="m50,992.36218h141" fill="none" stroke="#1e1e1e" stroke-width="3"/>
<path d="m50,1032.3622h141" fill="none" stroke="#1e1e1e" stroke-width="3"/>
<g transform="matrix(.21213,-.21213,.21213,.21213,-110.78725,745.41051)">
<path d="m24.2359,912.18408 478.11556-.73443c0,0 11.75349-.62382 11.75349,33.47198 0,31.15808-11.01905,32.62694-11.01905,32.62694h-481.23692c0,0-7.93474-2.67253-6.89248-3.33494s2.43194.68532 3.82163-1.55624 2.77936-5.5019 3.82163-10.23938 1.60727-14.58736 1.60727-22.7375-.42731-10.53568-1.26301-14.98243-1.94997-7.31944-3.06424-9.17336-.75968-.6694-1.59537-1.04109 5.95149-2.29955 5.95149-2.29955z" fill="url(#linearGradient6057)" fill-rule="evenodd" stroke="#000" stroke-linejoin="round" stroke-width=".3125"/>
<path d="m18.4145,919.71138 491.55812-.25967" fill="none" stroke="url(#linearGradient6059)" stroke-width="2.5"/>
<path d="m18.67417,962.81509 494.28455.25967" fill="none" stroke="url(#linearGradient6061)" stroke-width="2.5"/>
<path d="m22.33298,939.69042 492.59676-.12982" fill="none" stroke="url(#linearGradient6063)" stroke-width="2.5"/>
<path d="m560.41348,911.44313 41.87842.007c0,0 11.75349,1.57948 11.75349,33.472 0,32.62695-11.01905,32.62695-11.01905,32.62695h-42.59711c0,0 11.11746-1.63222 11.11746-34.23281s-11.13321-31.87266-11.13321-31.87266z" fill="url(#linearGradient6065)" fill-rule="evenodd"/>
<path d="m501.16325,911.44312 61.04319.007c0,0 11.75349,1.57948 11.75349,33.47198 0,32.62694-11.01905,32.62694-11.01905,32.62694h-61.69234c0,0 11.11745-1.63222 11.11745-34.2328s-11.20274-31.87264-11.20274-31.87264z" fill="url(#linearGradient6067)" fill-rule="evenodd" stroke="#000" stroke-width=".3125"/>
<path d="m24.01637,912.22148-122.19122,32.68225 120.07972,32.68224c0,0 .34956-2.68566 1.67217-5.37341 1.02705-2.08709 5.61281-6.03976 5.50943-8.73573-.10105-2.63546-5.46125-6.16027-5.46125-10.36922 0-4.85077 9.26728-6.85875 9.26728-13.0002 0-5.04218-8.01419-8.26281-8.01419-11.54192 0-4.52459 4.79861-6.55937 4.92033-8.71896 .11912-2.1136-6.10469-3.82238-6.43983-5.07314-.23673-.88346.65756-2.55191.65756-2.55191z" fill="url(#linearGradient6069)" fill-rule="evenodd" stroke="#000" stroke-linejoin="round" stroke-width=".3125"/>
<path d="m-72.88463,938.48083-24.05489,6.4291 23.62147,6.42908c0,0 2.18697-.32109 2.18697-6.73411s-1.75355-6.12407-1.75355-6.12407z" fill-rule="evenodd" stroke="#000" stroke-width=".3125"/>
<path d="m554.22653,911.64056 1.57201.006c0,0 11.68821,1.57071 11.68821,33.28606 0,32.44571-10.95785,32.44571-10.95785,32.44571h-2.21756c0,0 11.44303.0553 11.44303-32.36422s-11.52784-33.37402-11.52784-33.37402z" fill="url(#linearGradient6071)" fill-rule="evenodd"/>
<path d="m548.36366,911.64056 1.57201.006c0,0 11.68821,1.57071 11.68821,33.28606 0,32.44571-10.95785,32.44571-10.95785,32.44571h-2.21756c0,0 11.44303.0553 11.44303-32.36422s-11.52784-33.37402-11.52784-33.37402z" fill="url(#linearGradient6073)" fill-rule="evenodd"/>
<path d="m542.50079,911.64056 1.57201.006c0,0 11.68821,1.57071 11.68821,33.28606 0,32.44571-10.95785,32.44571-10.95785,32.44571h-2.21756c0,0 11.44302.0553 11.44302-32.36422s-11.52783-33.37402-11.52783-33.37402z" fill="url(#linearGradient6075)" fill-rule="evenodd"/>
<path d="m519.0493,911.64056 1.57201.006c0,0 11.68821,1.57071 11.68821,33.28606 0,32.44571-10.95785,32.44571-10.95785,32.44571h-2.21756c0,0 11.44302.0553 11.44302-32.36422s-11.52783-33.37402-11.52783-33.37402z" fill="url(#linearGradient6077)" fill-rule="evenodd"/>
<path d="m513.18642,911.64056 1.57202.006c0,0 11.68821,1.57071 11.68821,33.28606 0,32.44571-10.95785,32.44571-10.95785,32.44571h-2.21756c0,0 11.44302.0553 11.44302-32.36422s-11.52784-33.37402-11.52784-33.37402z" fill="url(#linearGradient6079)" fill-rule="evenodd"/>
<path d="m507.32355,911.64056 1.57201.006c0,0 11.68821,1.57071 11.68821,33.28606 0,32.44571-10.95784,32.44571-10.95784,32.44571h-2.21757c0,0 11.44303.0553 11.44303-32.36422s-11.52784-33.37402-11.52784-33.37402z" fill="url(#linearGradient6081)" fill-rule="evenodd"/>
<path d="m524.68604,911.42507 15.16117.0829c0,0 11.71297,1.57403 11.71297,33.35658 0,32.51445-10.98107,32.51445-10.98107,32.51445l-15.88446.0764c0,0 11.1555-1.70298 11.1555-34.19115s-11.16411-31.83915-11.16411-31.83915z" fill-opacity=".87006" fill-rule="evenodd" stroke="#000" stroke-width=".3125"/>
</g>
<g transform="matrix(.045,0,0,.045,40.8075,821.1632)">
<path d="m520.875,444.59375c-15.43647,0-30.94585,5.9771-42.71875,17.75l-170.09375,170.125-66.21875-66.21875c-23.53563-23.53564-61.87061-23.53563-85.40625,0s-23.53563,61.87061 0,85.40625l106.0625,106.0625c3.82024,3.82025 8.04797,6.97934 12.5,9.5625v.0312c.10958.0741.2338.11419.34375.1875 .12917.0738.24545.17723.375.25l.0312-.0312c23.45271,15.37459 55.15644,12.68732 75.6875-7.84375l212.12505-212.125c23.53563-23.53564 23.53563-61.87061 0-85.40625-11.76508-11.76508-27.25104-17.75-42.6875-17.75z" fill="#4d4d4d" transform="translate(-433.5,261.34739)"/>
<path d="m122.72088,731.04277c-19.58686-19.58685-51.12382-19.58686-70.71068,0l-177.4617,177.46171-73.56121-73.56121c-19.58685-19.58686-51.12382-19.58685-70.71068,0s-19.58685,51.12382 0,70.71068l106.06602,106.06595c3.34205,3.3421 7.04101,6.107 10.96016,8.3086 19.46557,13.1659 46.02337,11.1197 63.28605-6.143l212.13204-212.13205c19.58685-19.58686 19.58685-51.12382 0-70.71068z" fill="#008000"/>
<path d="m87.375,724.44114c-10.70984,0-21.40407,4.06032-29.65625,12.3125l-174.5,174.53125c-10.15598,6.4646-8.75341,1.65439-17.3123-.0001l-70.625-70.625c-16.50355-16.50355-42.77769-16.50356-59.28125,0-10.32431,10.32431-14.1732,24.46798-11.59375,37.625 .20474,1.00524.79624,1.92661 1.625,2.53125 38.47101,28.50534 85.73759,45.34375 136.90625,45.34375 115.01289,0 210.45866-84.95487 229.78125-196.75 .40738-2.32976-1.57418-4.78311-3.9375-4.875 .0147.0005-.46087-.0937-1.40625-.0937z" fill="url(#linearGradient6299-3)" filter="url(#filter3799-0)" opacity=".85366"/>
<path d="m329.53125,684.59375c-33.21812,0-64.77504,5.48411-93.34375,15.25a4.4138,4.4138 0 0,0 -1.6875,7.3125l39.28125,39.28125c2.96506,2.96507 6.25491,5.41164 9.75,7.375l2.15625-3.84375 2.125-3.875 1.375.9375-2.78125,3.375-.0312.0312-2.4375,3.625c17.28112,11.68843 40.83037,9.91964 56.21875-5.46875l50.5625-50.5625a4.4138,4.4138 0 0,0 -2.25-7.4375c-18.82265-3.83335-38.53083-6-58.9375-6z" fill="url(#linearGradient6301-1)" filter="url(#filter3835-4)" opacity=".58537" transform="translate(-433.5,261.34739)"/>
<path d="m87.375,708.87864c-14.67062,0-29.41499,5.67393-40.625,16.875h-.0312l-170.0625,170.125 2.03125,2.03125 169.875-169.9375 .1875-.1875a2.86356,2.86356 0 0,0 .0312,0c10.66399-10.65549 24.66139-16.03125 38.59375-16.03125 13.93952,0 27.93449,5.37199 38.59375,16.03125 21.30908,21.30909 21.30908,55.90966 0,77.21875l-212.125,212.12496c-18.59827,18.5983-47.21508,20.9546-68.40625,7.0625l-.0625.094-.0625-.062c-.009-.01-.0235.01-.0312,0-.006,0 .006-.026 0-.031a2.86356,2.86356 0 0,0 -.125-.094c-.0394-.029-.0457-.02-.0625-.031a2.86356,2.86356 0 0,0 -.0312-.031c-.0205-.014-.0481-.053-.0625-.062a2.86356,2.86356 0 0,0 -.125-.062c-.008-.01-.022.01-.0312,0s-.0217-.026-.0312-.031c-.11073-.063-.26837-.1191-.4375-.1875l.0312-.062c-4.05827-2.3547-7.87734-5.2211-11.3125-8.6562l-106.06265-106.06551c-21.30908-21.30909-21.30908-55.90966 0-77.21875s55.90967-21.30909 77.21875,0l66.21875,66.21875 2.03125-2.03125-66.21875-66.21875c-22.4074-22.40741-58.87384-22.4074-81.28125,0s-22.4074,58.87384 0,81.28125l106.0625,106.06246c3.62648,3.6265 7.65528,6.6273 11.90625,9.0938l.59375-1 .0312-.062 .75-1.3125c.1504.082.30038.1813.59375.3437l-1.5,2.3125c.0525.034-.0333-.012.0312.031a2.93906,2.93906 0 0,1 .40625.1875c22.30583,14.6228 52.44789,12.1146 72-7.4375l212.1251-212.12491c22.4074-22.40741 22.4074-58.87384 0-81.28125-11.2057-11.2057-25.94814-16.875-40.625-16.875zm-244.71875,320.31246c.0689.031.16596.085.1875.094-.0625-.021-.1875-.083-.1875-.094z" fill="#fff" filter="url(#filter3858-1)" opacity=".78862"/>
</g>
<g transform="matrix(.045,0,0,.045,37.8075,863.1632)">
<path d="m520.875,444.59375c-15.43647,0-30.94585,5.9771-42.71875,17.75l-170.09375,170.125-66.21875-66.21875c-23.53563-23.53564-61.87061-23.53563-85.40625,0s-23.53563,61.87061 0,85.40625l106.0625,106.0625c3.82024,3.82025 8.04797,6.97934 12.5,9.5625v.0312c.10958.0741.2338.11419.34375.1875 .12917.0738.24545.17723.375.25l.0312-.0312c23.45271,15.37459 55.15644,12.68732 75.6875-7.84375l212.12505-212.125c23.53563-23.53564 23.53563-61.87061 0-85.40625-11.76508-11.76508-27.25104-17.75-42.6875-17.75z" fill="#4d4d4d" transform="translate(-433.5,261.34739)"/>
<path d="m122.72088,731.04277c-19.58686-19.58685-51.12382-19.58686-70.71068,0l-177.4617,177.46171-73.56121-73.56121c-19.58685-19.58686-51.12382-19.58685-70.71068,0s-19.58685,51.12382 0,70.71068l106.06602,106.06595c3.34205,3.3421 7.04101,6.107 10.96016,8.3086 19.46557,13.1659 46.02337,11.1197 63.28605-6.143l212.13204-212.13205c19.58685-19.58686 19.58685-51.12382 0-70.71068z" fill="#008000"/>
<path d="m87.375,724.44114c-10.70984,0-21.40407,4.06032-29.65625,12.3125l-174.5,174.53125c-10.15598,6.4646-8.75341,1.65439-17.3123-.0001l-70.625-70.625c-16.50355-16.50355-42.77769-16.50356-59.28125,0-10.32431,10.32431-14.1732,24.46798-11.59375,37.625 .20474,1.00524.79624,1.92661 1.625,2.53125 38.47101,28.50534 85.73759,45.34375 136.90625,45.34375 115.01289,0 210.45866-84.95487 229.78125-196.75 .40738-2.32976-1.57418-4.78311-3.9375-4.875 .0147.0005-.46087-.0937-1.40625-.0937z" fill="url(#linearGradient6299-3)" filter="url(#filter3799-0)" opacity=".85366"/>
<path d="m329.53125,684.59375c-33.21812,0-64.77504,5.48411-93.34375,15.25a4.4138,4.4138 0 0,0 -1.6875,7.3125l39.28125,39.28125c2.96506,2.96507 6.25491,5.41164 9.75,7.375l2.15625-3.84375 2.125-3.875 1.375.9375-2.78125,3.375-.0312.0312-2.4375,3.625c17.28112,11.68843 40.83037,9.91964 56.21875-5.46875l50.5625-50.5625a4.4138,4.4138 0 0,0 -2.25-7.4375c-18.82265-3.83335-38.53083-6-58.9375-6z" fill="url(#linearGradient6301-1)" filter="url(#filter3835-4)" opacity=".58537" transform="translate(-433.5,261.34739)"/>
<path d="m87.375,708.87864c-14.67062,0-29.41499,5.67393-40.625,16.875h-.0312l-170.0625,170.125 2.03125,2.03125 169.875-169.9375 .1875-.1875a2.86356,2.86356 0 0,0 .0312,0c10.66399-10.65549 24.66139-16.03125 38.59375-16.03125 13.93952,0 27.93449,5.37199 38.59375,16.03125 21.30908,21.30909 21.30908,55.90966 0,77.21875l-212.125,212.12496c-18.59827,18.5983-47.21508,20.9546-68.40625,7.0625l-.0625.094-.0625-.062c-.009-.01-.0235.01-.0312,0-.006,0 .006-.026 0-.031a2.86356,2.86356 0 0,0 -.125-.094c-.0394-.029-.0457-.02-.0625-.031a2.86356,2.86356 0 0,0 -.0312-.031c-.0205-.014-.0481-.053-.0625-.062a2.86356,2.86356 0 0,0 -.125-.062c-.008-.01-.022.01-.0312,0s-.0217-.026-.0312-.031c-.11073-.063-.26837-.1191-.4375-.1875l.0312-.062c-4.05827-2.3547-7.87734-5.2211-11.3125-8.6562l-106.06265-106.06551c-21.30908-21.30909-21.30908-55.90966 0-77.21875s55.90967-21.30909 77.21875,0l66.21875,66.21875 2.03125-2.03125-66.21875-66.21875c-22.4074-22.40741-58.87384-22.4074-81.28125,0s-22.4074,58.87384 0,81.28125l106.0625,106.06246c3.62648,3.6265 7.65528,6.6273 11.90625,9.0938l.59375-1 .0312-.062 .75-1.3125c.1504.082.30038.1813.59375.3437l-1.5,2.3125c.0525.034-.0333-.012.0312.031a2.93906,2.93906 0 0,1 .40625.1875c22.30583,14.6228 52.44789,12.1146 72-7.4375l212.1251-212.12491c22.4074-22.40741 22.4074-58.87384 0-81.28125-11.2057-11.2057-25.94814-16.875-40.625-16.875zm-244.71875,320.31246c.0689.031.16596.085.1875.094-.0625-.021-.1875-.083-.1875-.094z" fill="#fff" filter="url(#filter3858-1)" opacity=".78862"/>
</g>
</g>
</svg>
