<?xml version="1.0" encoding="UTF-8" standalone="no"?>
<svg viewBox="0 0 82 82.000008" xmlns="http://www.w3.org/2000/svg" xmlns:xlink="http://www.w3.org/1999/xlink">
<defs>
<linearGradient>
<stop offset="0"/>
<stop offset="1" stop-opacity="0"/>
</linearGradient>
<linearGradient gradientUnits="userSpaceOnUse" x1="31.41622" x2="35.97626" y1="27.67374" y2="50.27415">
<stop offset="0" stop-color="#555753"/>
<stop offset="1" stop-color="#555753" stop-opacity="0"/>
</linearGradient>
<linearGradient gradientUnits="userSpaceOnUse" x1=".0731" x2="46.57742">
<stop offset="0" stop-color="#2e3436"/>
<stop offset="1" stop-color="#2e3436" stop-opacity="0"/>
</linearGradient>
<linearGradient gradientUnits="userSpaceOnUse" x1="63.66302" x2="92.24146" y1="28.35304" y2="40.81579">
<stop offset="0" stop-color="#bbb"/>
<stop offset="1" stop-color="#9f9f9f"/>
</linearGradient>
<linearGradient gradientUnits="userSpaceOnUse" x2="0" y1="-135.7315" y2="342.62574">
<stop offset="0" stop-opacity="0"/>
<stop offset=".5"/>
<stop offset="1" stop-opacity="0"/>
</linearGradient>
<linearGradient>
<stop offset="0" stop-color="#fff"/>
<stop offset="1" stop-color="#fff" stop-opacity="0"/>
</linearGradient>
<linearGradient>
<stop offset="0" stop-color="#aaa"/>
<stop offset="1" stop-color="#cdcdcd"/>
</linearGradient>
<linearGradient>
<stop offset="0" stop-color="#ff8a2b"/>
<stop offset="1" stop-color="#833a00"/>
</linearGradient>
<linearGradient>
<stop offset="0" stop-color="#91938e"/>
<stop offset="1" stop-color="#575955"/>
</linearGradient>
<linearGradient>
<stop offset="0" stop-color="#3466a4"/>
<stop offset="1" stop-color="#1d395c"/>
</linearGradient>
<linearGradient>
<stop offset="0" stop-color="#c0d5ea"/>
<stop offset="1" stop-color="#729fcf"/>
</linearGradient>
<linearGradient>
<stop offset="0" stop-color="#6392ce"/>
<stop offset="1" stop-color="#23508b"/>
</linearGradient>
<linearGradient>
<stop offset="0" stop-color="#3a5679"/>
<stop offset="1" stop-color="#6ba2eb"/>
</linearGradient>
<linearGradient>
<stop offset="0" stop-color="#eeeeec"/>
<stop offset="1" stop-color="#eeeeec" stop-opacity="0"/>
</linearGradient>
<linearGradient>
<stop offset="0" stop-color="#3584e7"/>
<stop offset="1" stop-color="#142740"/>
</linearGradient>
<linearGradient>
<stop offset="0" stop-color="#173764"/>
<stop offset="1" stop-color="#548bd8"/>
</linearGradient>
<linearGradient>
<stop offset="0" stop-color="#1f477a"/>
<stop offset="1" stop-color="#0f213a"/>
</linearGradient>
<linearGradient>
<stop offset="0" stop-color="#102747"/>
<stop offset="1" stop-color="#548bd8"/>
</linearGradient>
<linearGradient>
<stop offset="0" stop-color="#0a264c"/>
<stop offset="1" stop-color="#24579f"/>
</linearGradient>
<linearGradient>
<stop offset="0" stop-color="#578aca"/>
<stop offset="1" stop-color="#1d395c"/>
</linearGradient>
<linearGradient>
<stop offset="0" stop-color="#c6c7c4"/>
<stop offset="1" stop-color="#575955"/>
</linearGradient>
<linearGradient>
<stop offset="0" stop-color="#818181"/>
<stop offset="1" stop-color="#fff" stop-opacity="0"/>
</linearGradient>
<linearGradient>
<stop offset="0" stop-color="#888a85"/>
<stop offset="1" stop-color="#888a85" stop-opacity="0"/>
</linearGradient>
<linearGradient>
<stop offset="0" stop-color="#5184fc"/>
<stop offset="1" stop-color="#d0deff"/>
</linearGradient>
<linearGradient>
<stop offset="0" stop-color="#f57b03"/>
<stop offset="1" stop-color="#faa432"/>
</linearGradient>
<linearGradient gradientUnits="userSpaceOnUse" x2="0" xlink:href="#linearGradient3506" y1="162.56244" y2="130.5"/>
<linearGradient gradientUnits="userSpaceOnUse" x1="68.43675" x2="100.1545" xlink:href="#linearGradient2510" y1="4.305" y2="47.4925"/>
<linearGradient gradientUnits="userSpaceOnUse" x1="84.52715" x2="76.0584" xlink:href="#linearGradient16161" y1="19.3164" y2="17.5664"/>
<linearGradient gradientUnits="userSpaceOnUse" x2="0" xlink:href="#linearGradient2510" y1="31.71244" y2="28.35917"/>
<linearGradient gradientUnits="userSpaceOnUse" x1="82.3709" x2="79.1209" xlink:href="#linearGradient16161"/>
<linearGradient gradientUnits="userSpaceOnUse" x1="77.11602" x2="82.34451" xlink:href="#linearGradient2510" y1="-5.74611" y2="21.37889"/>
<linearGradient gradientUnits="userSpaceOnUse" x1="23.59913" x2="26.03275" xlink:href="#linearGradient16167" y1="3.49343" y2="13.0952"/>
<linearGradient gradientUnits="userSpaceOnUse" x1="24.39518" x2="17.76606" xlink:href="#linearGradient16167" y1="11.50959" y2="-6.46071"/>
<linearGradient gradientUnits="userSpaceOnUse" x1="9.95841" x2="8.96447" xlink:href="#linearGradient3158" y1="5.5" y2="15.5"/>
<linearGradient gradientUnits="userSpaceOnUse" x2="0" xlink:href="#linearGradient3158" y1="15.5" y2=".5"/>
<pattern height="5" patternTransform="translate(-8.5,7.5)" patternUnits="userSpaceOnUse" width="2">
<g transform="translate(8.5,-7.5)">
<path d="m-7,8v4" fill="none" stroke="#fff" stroke-linejoin="bevel" stroke-miterlimit="0"/>
<path d="m-8,8v4" fill="none" stroke="#000" stroke-linejoin="bevel" stroke-miterlimit="0"/>
</g>
</pattern>
<pattern height="9" patternTransform="translate(-9,7)" patternUnits="userSpaceOnUse" width="2">
<g transform="translate(9,-7)">
<path d="m-8.5,7.5v8" fill="none" stroke="#fff" stroke-linejoin="bevel" stroke-miterlimit="0"/>
<path d="m-7.5,7.5v8" fill="none" stroke="#000" stroke-linejoin="bevel" stroke-miterlimit="0"/>
</g>
</pattern>
<radialGradient cx="15.57149" cy="2.95852" gradientTransform="matrix(1.28624,.7817,-.71078,1.16955,53.70405,-5.005)" gradientUnits="userSpaceOnUse" r="20.93582">
<stop offset="0" stop-color="#e4e4e4"/>
<stop offset="1" stop-color="#d3d3d3"/>
</radialGradient>
<radialGradient cx="605.71429" cy="486.64789" gradientTransform="matrix(-2.77439,0,0,1.96971,4627.57,-880.36808)" gradientUnits="userSpaceOnUse" r="117.14286" xlink:href="#linearGradient3506"/>
<radialGradient cx="605.71429" cy="486.64789" gradientTransform="matrix(2.77439,0,0,1.96971,6618.0954,-880.36808)" gradientUnits="userSpaceOnUse" r="117.14286" xlink:href="#linearGradient3506"/>
<radialGradient cx="23.20194" cy="27.09616" gradientTransform="matrix(1,0,0,.65103,0,9.45569)" gradientUnits="userSpaceOnUse" r="23.55549" xlink:href="#linearGradient3506"/>
<radialGradient cx="10.36353" cy="32.70882" gradientTransform="matrix(1,0,0,.62428,0,12.28944)" gradientUnits="userSpaceOnUse" r="3.8228" xlink:href="#linearGradient3506"/>
<radialGradient cx="23.29425" cy="5.68691" gradientUnits="userSpaceOnUse" r="15.8142" xlink:href="#linearGradient16167"/>
</defs>
<g transform="translate(-252.40386,4.51576)">
<path d="m293.40386-3.51576c-2.73916,0-5.41514.28719-8,.8125v6.1875c-3.47484.83887-6.7198,2.18462-9.6875,4l-4.375-4.375c-2.24264,1.48612-4.29226,3.22977-6.1875,5.125s-3.63888,3.94486-5.125,6.1875l4.375,4.375c-1.81538,2.9677-3.16112,6.21265-4,9.6875h-6.1875c-.5253,2.58486-.8125,5.26083-.8125,8s.2872,5.41515.8125,8h6.1875c.83888,3.47485 2.18462,6.71981 4,9.6875l-4.375,4.375c1.48612,2.24264 3.22976,4.29227 5.125,6.1875s3.94486,3.63888 6.1875,5.125l4.375-4.375c2.9677,1.81538 6.21266,3.16113 9.6875,4v6.1875c2.58486.52531 5.26082.8125 8,.8125s5.41514-.28719 8-.8125v-6.1875c3.47484-.83887 6.7198-2.18462 9.6875-4l4.375,4.375c2.24264-1.48612 4.29226-3.22977 6.1875-5.125s3.63888-3.94486 5.125-6.1875l-4.375-4.375c1.81538-2.9677 3.16112-6.21265 4-9.6875h6.1875c.5253-2.58485.8125-5.26083.8125-8s-.2872-5.41515-.8125-8h-6.1875c-.83888-3.47485-2.18462-6.7198-4-9.6875l4.375-4.375c-1.48612-2.24264-3.22976-4.29227-5.125-6.1875s-3.94486-3.63888-6.1875-5.125l-4.375,4.375c-2.9677-1.81538-6.21266-3.16113-9.6875-4v-6.1875c-2.58486-.52531-5.26084-.8125-8-.8125zm0,20c11.04,0 20,8.96 20,20s-8.96,20-20,20-20-8.96-20-20 8.96-20 20-20z" fill="#949096" stroke="#2c2c2c" stroke-dashoffset="162" stroke-linecap="round" stroke-linejoin="round" stroke-width="2"/>
</g>
</svg>
