<?xml version="1.0" encoding="utf8" standalone="no"?>
<svg viewBox="0 0 64 64" xmlns="http://www.w3.org/2000/svg">
<defs>
<linearGradient gradientUnits="userSpaceOnUse" id="linearGradient1396" x1="31.93201" x2="31.80988" y1="40.06107" y2="7.93893">
<stop offset="0" stop-color="#ced1f2"/>
<stop offset="1" stop-color="#1d42c9" stop-opacity="0"/>
</linearGradient>
<linearGradient gradientUnits="userSpaceOnUse" id="linearGradient1401" x1="43.95977" x2="20.03584" y1="52.35646" y2="12.11914">
<stop offset="0" stop-color="#3c44dc"/>
<stop offset="1" stop-color="#0d1f6a"/>
</linearGradient>
<radialGradient cx="-16.56695" cy="-.88516" gradientTransform="matrix(-.32891,.97452,-.82401,-.27811,29.89109,37.68020)" gradientUnits="userSpaceOnUse" id="radialGradient1403" r="17.09995">
<stop offset="0" stop-color="#d2d0f3"/>
<stop offset="1" stop-color="#1c3db8"/>
</radialGradient>
</defs>
<path d="m42,50c1,0 1-1 1-1v-17c1-.0488 5,0 5,0 .44725-.00913.84641-.10907 1.01605-.523s.0774-.88906-.2348-1.20945l-16-16c-.43543-.4218-1.12707-.4218-1.5625,0l-16,16c-.3122.32038-.40444.79552-.2348,1.20945s.5688.51387 1.01605.523h5v17.0488c0,0 0,1 1,1 6,0 14-.0488 20-.0488z" fill="url(#linearGradient1401)"/>
<path d="m41.78125,15.15625c-5.90298.00132-13.64333.06118-19.5625.0625v16.78125c.00101.64949-.50761,1.1856-1.15625,1.21875-1.09399.05339-4.05758.00784-4.625,0l15.5625,15.5625 15.53125-15.5625h-4.53125c-.67317.00017-1.21892-.54558-1.21875-1.21875v-16.84375z" fill="url(#radialGradient1403)" transform="matrix(-1,0,0,-1,64.00000,64.00000)"/>
<path d="m40.78125,41.96875c0-4.11731-.03699-9.20572 0-9.75 .21875-3.21875 4.21875-1.21875 3.21875-3.21875s-12-12-12-12l-10.9375,11.0625c7.9375,2.9375 15.29954,7.21357 19.71875,13.90625z" fill="url(#linearGradient1396)"/>
</svg>
