<?xml version="1.0" encoding="utf8" standalone="no"?>
<svg viewBox="0 0 48 48" xmlns="http://www.w3.org/2000/svg" xmlns:xlink="http://www.w3.org/1999/xlink">
<defs>
<linearGradient id="linearGradient15218">
<stop offset="0" stop-color="#f0f0ef"/>
<stop offset=".59929" stop-color="#e8e8e8"/>
<stop offset=".82759" stop-color="#fff"/>
<stop offset="1" stop-color="#d8d8d3"/>
</linearGradient>
<linearGradient id="linearGradient2259">
<stop offset="0" stop-color="#fff"/>
<stop offset="1" stop-color="#fff" stop-opacity="0"/>
</linearGradient>
<linearGradient gradientUnits="userSpaceOnUse" id="linearGradient2230" x1="42.15842" x2="39.82676" y1="44.49163" y2="41.80413">
<stop offset="0" stop-color="#7c7c7c"/>
<stop offset="1" stop-color="#b8b8b8"/>
</linearGradient>
<linearGradient gradientUnits="userSpaceOnUse" id="linearGradient2257" x1="39.55784" x2="40.33188" xlink:href="#linearGradient2259" y1="40.57974" y2="41.72879"/>
<linearGradient gradientTransform="matrix(1.0657,0,0,.9876,-8.54832,-4.89171)" gradientUnits="userSpaceOnUse" id="linearGradient4258" x1="22.30833" x2="35.78529" xlink:href="#linearGradient15218" y1="18.99214" y2="39.49824"/>
<linearGradient gradientUnits="userSpaceOnUse" id="linearGradient4260" x1="19.06669" x2="23.79469" xlink:href="#linearGradient2259" y1="21.75695" y2="37.04077"/>
<linearGradient gradientUnits="userSpaceOnUse" id="linearGradient13651" x1="32.05231" x2="36.78465" xlink:href="#linearGradient2259" y1="30.73009" y2="46.04076"/>
<linearGradient gradientTransform="matrix(1.06724,0,0,.98928,4.39168,4.03523)" gradientUnits="userSpaceOnUse" id="linearGradient13653" x1="22.30833" x2="35.78529" xlink:href="#linearGradient15218" y1="18.99214" y2="39.49824"/>
</defs>
<g opacity=".5" transform="matrix(1.00151,0,0,1.00062,-5.002205e-2,-6.304895e-2)">
<path d="m20.16184,34.03341h13v2h-13z" fill-rule="evenodd" opacity=".17045"/>
<path d="m2.1141,1.56293h29.82025a.56566,.56616 0 0,1 .56566.56616v34.84437a.56566,.56616 0 0,1 -.56566.56616h-29.82025a.56566,.56616 0 0,1 -.56566-.56616v-34.84437a.56566,.56616 0 0,1 .56566-.56616" fill="url(#linearGradient4258)" fill-rule="evenodd" stroke="#888a85" stroke-width=".99894"/>
<path d="m2.53251,2.5606h28.97074v33.98106h-28.97074z" fill="none" stroke="url(#linearGradient4260)" stroke-width=".99894"/>
<path d="m7.01612,10.03341h21v2h-21z" fill-rule="evenodd" opacity=".17045"/>
<path d="m7.01612,14.03341h20v2h-20z" fill-rule="evenodd" opacity=".17045"/>
<path d="m7.01612,18.03342h18v2h-18z" fill-rule="evenodd" opacity=".17045"/>
<path d="m7.01612,22.03342h21v2h-21z" fill-rule="evenodd" opacity=".17045"/>
<path d="m7.01612,26.03341h13v2h-13z" fill-rule="evenodd" opacity=".17045"/>
</g>
<path d="m15.07295,10.50085h29.85638c.31574,0 .56993.25309.56993.56747v27.16736c0,2.47645-6.87981,8.30309-9.26793,8.30309h-21.15838c-.31574,0-.56993-.25309-.56993-.56747v-34.90298c0-.31438.25419-.56747.56993-.56747z" fill="url(#linearGradient13653)" fill-rule="evenodd" stroke="#888a85"/>
<path d="m15.50295,11.5h28.99735v34.04076h-28.99735z" fill="none" stroke="url(#linearGradient13651)"/>
<path d="m36.22092,46.53697c2.03042.3299 9.58879-4.52993 9.28441-8.49784-1.56326,2.4231-4.75852,1.28674-8.86728,1.44575 0,0 .39537,6.5521-.41713,7.0521z" fill="url(#linearGradient2230)" fill-rule="evenodd" stroke="#868a84"/>
<path d="m37.67135,44.34546c1.36978-.68383 4.42825-2.14646 5.72763-4.02747-1.59609.68005-2.94781.2095-5.70233.1904 0,0 .16232,3.06209-.0253,3.83706z" fill="none" opacity=".36932" stroke="url(#linearGradient2257)"/>
<path d="m20,19.03342h21v2h-21z" fill-rule="evenodd" opacity=".17045"/>
<path d="m20,23.03342h19.99223v2h-19.99223z" fill-rule="evenodd" opacity=".17045"/>
<path d="m20,27.03342h17.9767v2h-17.9767z" fill-rule="evenodd" opacity=".17045"/>
<path d="m20,31.03342h21v2h-21z" fill-rule="evenodd" opacity=".17045"/>
</svg>
