<svg viewBox="0 0 744.09447 1052.362179" xmlns="http://www.w3.org/2000/svg">
<title>tooltip</title>
<path d="m259.1934,104.7949c-82.0478,0-148.5032,57.3924-148.5032,128.2069s66.4555,128.2069 148.5032,128.2069c21.2231,0 41.4332-3.8246 59.6952-10.7451 3.9915-1.5126 11.4634-4.4782 15.3371-2.847l23.2352,9.7349 .8266-3.3062c.8879-3.4077-3.7253-10.6182-5.4185-13.684-9.2195-16.6937-14.4187-35.3781-14.4187-55.1032 0-41.3582 22.7309-78.1274 57.9502-101.5737-22.3798-46.3524-75.3934-78.8895-137.2071-78.8895z" fill="#ccc"/>
<g transform="matrix(2.93884,0,0,2.93884,-1328.7902,-956.86095)">
<path d="m566.2457,431.9429c0,6.7119 1.756,13.0698 4.8931,18.7501 .5761,1.0432 2.1679,3.5066 1.8658,4.6661l-6.8084,26.1304 25.069-10.5559c1.3181-.555 3.8695.4626 5.2277.9773 6.214,2.3548 13.0819,3.6618 20.3035,3.6618 27.9184,0 50.5508-19.5337 50.5508-43.6298s-22.6324-43.6298-50.5508-43.6298-50.5508,19.5337-50.5508,43.6298z" fill="#ccc"/>
<path d="m566.96,423.3715c0,6.7119 1.756,13.0698 4.8931,18.7501 .5761,1.0432 2.1679,3.5066 1.8658,4.6661l-6.8084,26.1304 25.069-10.5559c1.3181-.555 3.8695.4626 5.2277.9773 6.214,2.3548 13.0819,3.6618 20.3035,3.6618 27.9184,0 50.5508-19.5337 50.5508-43.6298s-22.6324-43.6298-50.5508-43.6298-50.5508,19.5337-50.5508,43.6298z" fill="#a6c2da" stroke="#123569" stroke-linecap="round" stroke-width="3.323"/>
<path d="m618.5446,383.5102c-26.162,0-46.7813,18.1073-46.7813,39.8438 0,6.0617 1.5595,11.783 4.4063,16.9375 .1861.337.7937,1.3338 1.3438,2.4688 .5501,1.135 1.6009,2.1829.875,4.9688l-4.875,18.75 18.0313-7.5938c2.2097-.9305 3.7179-.4205 5-.0937s2.3866.7557 3.0313,1c5.7829,2.1915 12.1997,3.4063 18.9688,3.4063 3.9196,0 7.6936-.3922 11.3125-1.1563 13.8716-11.3463 22.5938-27.7541 22.5938-46 0-8.6342-1.9426-16.8437-5.4688-24.3125-7.8383-5.1387-17.6536-8.2188-28.4375-8.2188z" fill="#fff" fill-opacity=".489"/>
<path d="m621.2986,402.3537c-1.338-.194-2.757.1128-3.8898.8827-1.1523.7832-2.0004,2.0713-2.2045,3.4783s.2745,2.8795 1.1307,3.9258c.3223.3939.7299.6994 1.1572.9998-.6892.1279-1.3511.3947-1.9254.8059-.008.006-.0272-.011-.0353-.005l.0302.0404c-.6966.4996-1.183,1.2378-1.5282,2.0572-.0415-1.6606-.8254-3.3533-2.2592-4.1256-.007-.003.0117-.0319.005-.0353l-.0353-.005c-1.0635-.5563-2.2-.7531-3.8707-.9954l-.0353-.005c.1984-1.6812.1945-3.1862-.3549-4.5367-.6103-1.5004-2.1348-2.6607-3.7401-2.8935-1.2619-.183-2.5905.1186-3.6264.8124-1.0588.7092-1.8363,1.937-2.0217,3.2154-.0716.4938-.1543,1.2147-.2271,2.065-.3826-.0793-1.0629-.2626-1.3308-.3015-1.2871-.1866-2.6914.0927-3.7481.9033-1.0231.7848-1.6668,2.0149-1.8445,3.2411-.1697,1.1702-.0003,2.4531.7267,3.4693s1.8559,1.6177 3.0131,1.92c.9256.2332 1.4134.3302 2.0999.4854-.4076,4.0403-.7732,7.5761-.9605,8.8674-.0604.4162-.1989,1.164-.3843,2.1507s-.326,1.7489-.4099,2.3279c-.1895,1.3068.3032,2.705 1.1364,3.6372l.0302.0404c.8033.8929 1.9487,1.4763 3.1251,1.6469 1.5407.2235 3.2952-.345 4.3114-1.545s1.4446-2.7278 1.7055-4.5273c.035-.2414.1201-.7163.185-1.2754 .0623-.5346.0961-.9114.0983-.9262 .214-1.4753.6125-5.0671 1.0318-9.1102 .2175.0336.4456.0818.7034.1381l.0709.0103c.3653.066.7009.1378 1.0931.1946 1.2513.1815 2.6431-.0677 3.7024-.8376 .4399-.3196.7739-.7652 1.0809-1.2178-.1522.8905-.2691,1.7007-.5172,2.8187-.4131,1.8602-.7106,3.4034-.901,4.7163-.1217.8389-.2729,2.0888-.484,3.8363-.002.0118-.004.0235-.005.0353-.1951,1.7296-.3584,2.9697-.4686,3.73-.185,1.2753.104,2.6641.9084,3.7127l.0353.005c.817,1.0362 2.0663,1.638 3.2817,1.8143s2.5842-.0459 3.6619-.8073l.0353.005c1.1061-.8037 1.7141-2.0924 1.8903-3.3068 .1171-.8074.2869-2.0931.484-3.8363 .002-.0165.003-.0189.005-.0353 .2081-1.7211.3629-3.0009.4686-3.73 .1663-1.1464.4596-2.6301.8599-4.4329 .4135-1.8621.7157-3.4388.9062-4.7517 .1835-1.2654-.1924-2.6247-.9593-3.6116l.0405-.0302c-.006-.008-.0291.003-.0353-.005-.2829-.3635-.6513-.6446-1.0257-.9084 .7976-.142 1.546-.4025 2.1837-.8408l.005-.0353c1.1368-.7832 1.9643-2.0719 2.1588-3.4126s-.2027-2.8155-1.0953-3.9207l.0404-.0302c-.006-.008-.029.003-.0353-.005-.8467-1.0445-2.1155-1.7536-3.4434-1.9462l-6e-005-1e-005zm8.6817,9.7232c-1.6307-.2365-3.3974.4847-4.484,1.737-.6965.82-.995,1.5906-1.2961,2.4525s-.5052,1.7379-.6179,2.5147l.1396,1.0331c-.2484-1.4843-.1853,1.8696-.2021,2.141-.1579,2.1411-.3998,4.7137-.7858,7.6629-.2759,2.0947-.6706,4.8176-1.1817,8.148-.6797,4.4919-1.0834,6.9717-1.1909,7.7126-.185,1.2753.1377,2.6659.9135,3.6773 .7685,1.0018 1.9968,1.7002 3.3068,1.8903s2.6861-.1308 3.7076-.873c1.0312-.7493 1.7356-1.991 1.9206-3.2663l.9293-6.159c.5427.1242 1.1091.3417 1.6394.4186 3.5722.5181 6.9592-.3357 9.5634-2.5919 2.4086-2.0782 3.9092-5.0071 4.4071-8.4399 .5043-3.4773.3267-6.5592-.6234-9.1694-1.2907-3.4936-4.2504-5.8251-8.0105-6.3704-1.1143-.1616-2.2765-.1735-3.4323-.0276-.0119.001-.0235-.006-.0353-.005-.3582.0436-.7002.2061-1.0536.2813-.1372-.3019-.2177-.63-.4132-.8919-.7621-1.0207-1.9745-1.697-3.2005-1.8748l1e-005-5e-005zm6.7376,12.1541c.2374.0344.1516.0352.2023.1017s.2062.3274.2612.9422c.0293.3529-.019,1.6271-.2807,3.4317-.181,1.2482-.5417,1.9478-.9567,2.3571l-.0353-.005c-.4542.4502-.807.6064-1.7324.4722-.5494-.0797-1.084-.3451-1.6239-.5249 .2577-1.9336.4779-3.8621.6603-5.8002 .5615-.3013 1.1355-.6358 1.6318-.7761 .7295-.2164 1.3558-.2736 1.8735-.1985l-5e-005-1e-005z" fill="#a7c2da"/>
<path d="m633.0898,439.122c-1.1883-.1723-2.4186-.4918-3.6912-.9585l-1.2471,8.4529c-.1162.8014-.4818,1.4255-1.0968,1.8724s-1.337.6102-2.166.49-1.4749-.4819-1.9376-1.0851-.636-1.3055-.5197-2.1069c.0942-.6494.4818-3.2242 1.1626-7.7245 .5126-3.3397.9084-6.0685 1.1873-8.1865 .3913-2.9905.6674-5.5744.828-7.7519 .2236-3.0007.0546-3.2779.0186-3.0293 .1663-1.1468.8269-3.1894 1.4563-3.9305 .7284-.8395 1.5969-1.1862 2.6055-1.0399 .7737.1122 1.3851.4689 1.834,1.0701s.6202,1.2679.514,2.0002l-.0508.2042c1.0018-.3908 1.9837-.6434 2.9455-.7579 .9776-.1262 1.9362-.1213 2.8758.015 3.1779.4609 5.3037,2.1447 6.3776,5.0514 .7969,2.1894.961,4.9006.4921,8.1338-.4389,3.0259-1.6661,5.4084-3.6818,7.1476-2.1621,1.8731-4.7975,2.5842-7.9063,2.1334m3.9158-16.9324c-.8705-.1262-1.7848-.0472-2.743.237-.9562.2705-1.9494.7471-2.9795,1.4301-.247,2.8703-.5779,5.7355-.9927,8.5956 1.1716.579 2.3722.9577 3.6019,1.1361 1.4231.2064 2.5878-.1396 3.494-1.038 .8231-.8117 1.3468-1.9913 1.5713-3.5388 .2705-1.8653.375-3.1692.3134-3.9117-.1562-1.7437-.9114-2.7138-2.2654-2.9102m-16.9131-11.6368c-.8843-.1282-1.608-.5365-2.1713-1.2248s-.7827-1.4608-.6585-2.3174 .5541-1.5349 1.2897-2.0349 1.5455-.6858 2.4297-.5575 1.6011.5355 2.1505,1.2218c.5632.6883.7827,1.4608.6585,2.3174s-.5541,1.535-1.2897,2.0349c-.7218.502-1.5248.6888-2.409.5605m-.4415,15.4472c-.1142.7876-.2768,2.0548-.4879,3.8017-.1973,1.7489-.353,3.0172-.4672,3.8047-.1162.8014-.4819,1.4255-1.0968,1.8724-.613.4331-1.334.5895-2.163.4693s-1.4759-.475-1.9406-1.0644c-.4627-.6032-.636-1.3055-.5197-2.1069 .1142-.7876.2699-2.0558.4672-3.8047 .211-1.7469.3737-3.0142.4879-3.8017 .1783-1.2297.4708-2.7603.8775-4.5917s.6992-3.362.8775-4.5917c.1162-.8014.4808-1.4186 1.0938-1.8517 .615-.4469 1.337-.6102 2.166-.49s1.4749.482 1.9376,1.0851c.4647.5894.639,1.2848.5228,2.0861-.1784,1.2297-.4708,2.7603-.8775,4.5917s-.6992,3.362-.8775,4.5917m-10.8242-8.68c-.2902-.0421-.6346-.0991-1.0333-.1711-.3829-.0838-.7194-.1466-1.0095-.1888-.5665-.0822-1.2308-.122-1.993-.1197-.5608,5.6181-.9655,9.2838-1.214,10.9971-.0261.1796-.0682.5192-.1265,1.0186-.0563.4856-.1065.8804-.1505,1.1844-.4609,3.1779-1.693,4.6215-3.6965,4.331-.76-.1102-1.3822-.4403-1.8667-.9902-.5358-.5856-.7496-1.2514-.6414-1.9975 .0721-.4974.2011-1.2405.3868-2.2293s.3146-1.7319.3868-2.2293c.2425-1.6718.6371-5.2684 1.1839-10.7898-.8506-.1657-2.1334-.4646-3.8483-.8967-1.6991-.4439-2.4324-1.4672-2.1999-3.07 .1122-.7737.4699-1.392 1.0731-1.8547s1.3193-.6339 2.1483-.5137c.5112.0742 1.6736.3274 3.4872.7597 .0503-.4441.1219-1.1814.215-2.2119 .0729-.8923.1446-1.5802.2147-2.0638 .1122-.7737.4886-1.3751 1.1293-1.8042s1.3616-.5855 2.163-.4693c2.0449.2966 2.8179,2.1651 2.3189,5.6054l-.2879,1.6935c.8747-.0001 1.5814.0389 2.1203.1171 1.5889.2304 2.6585.4914 3.2088.7828 1.0492.5472 1.4797,1.4702 1.2913,2.7689-.1142.7876-.4788,1.4048-1.0938,1.8517-.615.4469-1.337.6102-2.166.49" fill="#4d7aa6"/>
</g>
<path d="m399.3915,205.7033c0,19.7251-5.1606,38.41-14.3801,55.1037-1.6932,3.0657-6.3711,10.3053-5.4833,13.713l20.0088,76.7929-73.6739-31.0221c-3.8737-1.6311-11.372,1.3594-15.3635,2.8721-18.2619,6.9205-38.4456,10.7615-59.6687,10.7615-82.0478,0-148.5607-57.4065-148.5607-128.221s66.5129-128.221 148.5607-128.221 148.5606,57.4065 148.5606,128.221z" fill="#a6c2da" stroke="#123569" stroke-linecap="round" stroke-width="9.7658"/>
<path d="m760.75,459.75c-5.2132,4.8083-9.2622,10.7825-11.25,17.6875-4.2971,14.8364 2.805,31.7385 15.6563,40.0625a1.226,1.226 0 0,1 .0312,0c11.4054,7.6241 28.7071,11.4572 43.0938,8-16.3881-2.9468-28.2557-11.0368-35.9688-22.3438-8.0862-11.8539-11.5528-27.1292-11.5625-43.4063z" fill="#fff" fill-opacity=".439" transform="matrix(2.93884,0,0,2.93884,-2085.3146,-1226.9593)"/>
<g transform="matrix(2.99538,0,0,2.99538,-2134.4314,-1261.2027)">
<path d="m791.3908,460.0688c3.6703-.4522 6.9892,2.1386 7.4413,5.8089l.3859,23.3839c.0232,4.591-1.7608,4.773-3.6014,5.1083-1.5198.2768-3.1864-.329-4.4129-4.1209l-5.6218-22.7389c-.4522-3.6703 2.1386-6.9892 5.8089-7.4413z" fill="#4d7aa6" stroke="#c1d5e4" stroke-width="2.0035"/>
<path d="m748.2143,524.1479c0,3.7476-3.0381,6.7857-6.7857,6.7857s-6.7857-3.0381-6.7857-6.7857 3.0381-6.7857 6.7857-6.7857 6.7857,3.0381 6.7857,6.7857z" fill="#4d7aa6" stroke="#c1d5e4" stroke-linecap="round" stroke-width="2.4613" transform="matrix(.85454,-.10528,.10528,.85454,108.74992,133.28401)"/>
</g>
</svg>
