<?xml version="1.0" encoding="utf8" standalone="no"?>
<svg viewBox="0 0 48 48" xmlns="http://www.w3.org/2000/svg" xmlns:xlink="http://www.w3.org/1999/xlink">
<defs>
<linearGradient id="linearGradient5060">
<stop offset="0"/>
<stop offset="1" stop-opacity="0"/>
</linearGradient>
<linearGradient gradientUnits="userSpaceOnUse" id="linearGradient5027" x2="0" y1="-150.69685" y2="327.66039">
<stop offset="0" stop-opacity="0"/>
<stop offset=".5"/>
<stop offset="1" stop-opacity="0"/>
</linearGradient>
<linearGradient gradientTransform="matrix(1,0,0,1.23881,0,-7.8806)" gradientUnits="userSpaceOnUse" id="linearGradient8236" x1="25.875" x2="25.25" y1="10.625" y2="30.875">
<stop offset="0" stop-color="#fafafa"/>
<stop offset=".5" stop-color="#a8a8a8"/>
<stop offset="1" stop-color="#cdcdcd"/>
</linearGradient>
<linearGradient gradientTransform="scale(1.42154,.70346)" gradientUnits="userSpaceOnUse" id="linearGradient155" x1="19.11612" x2="19.42692" y1="28.94604" y2="51.91269">
<stop offset="0" stop-color="#fff"/>
<stop offset="1" stop-color="#fff" stop-opacity="0"/>
</linearGradient>
<linearGradient gradientTransform="matrix(1.5353,0,0,.65134,3.45142,2.448)" gradientUnits="userSpaceOnUse" id="linearGradient156" x1="14.89938" x2="22.71545" y1="27.05964" y2="41.83689">
<stop offset="0" stop-color="#fff" stop-opacity=".13402"/>
<stop offset="1" stop-color="#fff" stop-opacity=".05155"/>
</linearGradient>
<linearGradient gradientTransform="matrix(1.4627,0,6.907908e-2,.68367,0,0)" gradientUnits="userSpaceOnUse" id="linearGradient158" x1="5.26579" x2="8.21222" y1="18.72586" y2="52.62585">
<stop offset="0" stop-color="#fff" stop-opacity=".7006"/>
<stop offset="1" stop-color="#fff" stop-opacity="0"/>
</linearGradient>
<linearGradient gradientUnits="userSpaceOnUse" id="linearGradient13162" x1="74.23292" x2="74.12227" y1="36.48307" y2="31.43637">
<stop offset="0" stop-color="#6194cb"/>
<stop offset="1" stop-color="#729fcf"/>
</linearGradient>
<linearGradient gradientUnits="userSpaceOnUse" id="linearGradient13848" x1="22.25" x2="19.75" xlink:href="#linearGradient5060" y1="37.625" y2="14.875"/>
<radialGradient cx="52.90898" cy="-13.07568" gradientUnits="userSpaceOnUse" id="radialGradient8234" r="36.55396">
<stop offset="0" stop-color="#a3a3a3"/>
<stop offset="1" stop-color="#4c4c4c"/>
</radialGradient>
<radialGradient cx="26.10678" cy="38.19511" gradientTransform="matrix(1.01564,0,.10311,1.00051,0,-8.369458e-2)" gradientUnits="userSpaceOnUse" id="radialGradient159" r="32.25977">
<stop offset="0" stop-color="#a0a0a0"/>
<stop offset="1" stop-color="#a8a8a8"/>
</radialGradient>
<radialGradient cx="605.71429" cy="486.64789" gradientTransform="matrix(-2.77439,0,0,1.96971,112.7623,-872.8854)" gradientUnits="userSpaceOnUse" id="radialGradient5031" r="117.14286" xlink:href="#linearGradient5060"/>
<radialGradient cx="605.71429" cy="486.64789" gradientTransform="matrix(2.77439,0,0,1.96971,-1891.633,-872.8854)" gradientUnits="userSpaceOnUse" id="radialGradient5029" r="117.14286" xlink:href="#linearGradient5060"/>
</defs>
<path d="m4.62003,38.65102c.04181.42045.49739.84091.91116.84091h31.13616c.41377,0 .78573-.42045.74392-.84091l-2.69662-27.11929c-.04181-.42045-.49739-.84091-.91116-.84091h-12.72342c-.59055,0-1.20908-.37955-1.40286-.96034l-1.103-3.30588c-.16925-.50728-.54715-.73579-1.31447-.73579h-14.93733c-.41377,0-.78573.42045-.74392.84091l3.04153,32.12129z" fill="url(#radialGradient159)" stroke="#5a5a5a" stroke-linecap="round" stroke-linejoin="round"/>
<path d="m3.3386,17.53349h31.14986" fill="#729fcf" opacity=".11364" stroke="#000" stroke-linecap="round" stroke-linejoin="round"/>
<path d="m5.33015,37.53349h29.98775" fill="#729fcf" opacity=".11364" stroke="#000" stroke-linecap="round" stroke-linejoin="round"/>
<path d="m5.33015,35.53349h29.98775" fill="#729fcf" opacity=".11364" stroke="#000" stroke-linecap="round" stroke-linejoin="round"/>
<g transform="matrix(2.165152e-2,0,0,1.903841e-2,42.41538,36.93372)">
<path d="m-1559.2523-150.69685h1339.6335v478.35718h-1339.6335z" fill="url(#linearGradient5027)" opacity=".40206"/>
<path d="m-219.61876-150.68038v478.33079c142.87417.90045 345.40022-107.16966 345.40014-239.19618s-159.43682-239.13459-345.40014-239.13462z" fill="url(#radialGradient5029)" opacity=".40206"/>
<path d="m-1559.2523-150.68038v478.33079c-142.8742.90045-345.4002-107.16966-345.4002-239.19618s159.4368-239.13459 345.4002-239.13462z" fill="url(#radialGradient5031)" opacity=".40206"/>
</g>
<path d="m6.17175,38.41867c.03136.31033-.15462.51721-.4754.41377s-.54857-.31033-.57992-.62065l-3.02957-31.36719c-.03136-.31033.15659-.49772.46692-.49772l14.74975-.09145c.53128-.00329.73943.05331.8798.51721 0,0 1.08537,3.1128 1.24623,3.6981l-1.5556-2.91704c-.26518-.49726-.59874-.41377-.97279-.41377h-13.1294c-.31033,0-.49631.20688-.46495.51721l2.97882,30.86497-.11389-.10344z" display="block" fill="url(#linearGradient158)"/>
<path d="m2.30523,7.53349h14.78373" fill="#729fcf" opacity=".11364" stroke="#000" stroke-linecap="round" stroke-linejoin="round"/>
<path d="m2.75733,11.53349h30.73888" fill="#729fcf" opacity=".11364" stroke="#000" stroke-linecap="round" stroke-linejoin="round"/>
<g display="block" fill="#fff" fill-opacity=".58031" stroke="#000" transform="matrix(1.03442,0,.10452,1.03442,-10.03248,2.63191)">
<path d="m41.78574,9.03639c.00963-.47458.01519-.72451-.42339-.7242l-12.55582.00866c-.3,0-.32461-.14321 0,0s1.2471.65827 2.1827.70099c0,0 10.79648.01646 10.79652.01455z" stroke="none"/>
</g>
<path d="m3.1629,15.53349h30.83056" fill="#729fcf" opacity=".11364" stroke="#000" stroke-linecap="round" stroke-linejoin="round"/>
<path d="m5.15947,33.53349h29.98775" fill="#729fcf" opacity=".11364" stroke="#000" stroke-linecap="round" stroke-linejoin="round"/>
<path d="m4.86581,31.53349h30.10872" fill="#729fcf" opacity=".11364" stroke="#000" stroke-linecap="round" stroke-linejoin="round"/>
<path d="m4.63364,29.53349h30.16921" fill="#729fcf" opacity=".11364" stroke="#000" stroke-linecap="round" stroke-linejoin="round"/>
<path d="m4.46296,27.53349h30.16921" fill="#729fcf" opacity=".11364" stroke="#000" stroke-linecap="round" stroke-linejoin="round"/>
<path d="m4.25567,25.53349h30.20512" fill="#729fcf" opacity=".11364" stroke="#000" stroke-linecap="round" stroke-linejoin="round"/>
<path d="m4.02352,23.53349h30.26558" fill="#729fcf" opacity=".11364" stroke="#000" stroke-linecap="round" stroke-linejoin="round"/>
<path d="m3.85284,21.53349h30.26558" fill="#729fcf" opacity=".11364" stroke="#000" stroke-linecap="round" stroke-linejoin="round"/>
<g display="block" fill="#fff" fill-opacity=".58031" stroke="#000" transform="matrix(1.03442,0,.10452,1.03442,-10.03248,2.63191)">
<path d="m41.78574,9.03639c.00963-.47458.01519-.72451-.42339-.7242l-12.55582.00866c-.3,0-.32461-.14321 0,0s1.2471.65827 2.1827.70099c0,0 10.79648.01646 10.79652.01455z" stroke="none"/>
</g>
<path d="m2.96423,13.53349h31.0265" fill="#729fcf" opacity=".11364" stroke="#000" stroke-linecap="round" stroke-linejoin="round"/>
<path d="m3.65142,19.53349h30.2958" fill="#729fcf" opacity=".11364" stroke="#000" stroke-linecap="round" stroke-linejoin="round"/>
<path d="m2.52426,9.53349h15.28082" fill="#729fcf" opacity=".11364" stroke="#000" stroke-linecap="round" stroke-linejoin="round"/>
<path d="m34.375,14.125 2.625,24.625-31,.125-1.875-24.75h30.25z" display="block" fill="url(#linearGradient13848)" opacity=".39205"/>
<path d="m43.375,2.4944c.5,16.87873-9.07506,18.52848-6.01256,29.00026l-31.48744.88594c-1.875-12.85261 8.375-21.21455 5.375-29.73134l32.125-.15485z" display="block" fill="url(#linearGradient8236)" stroke="url(#radialGradient8234)"/>
<path d="m15.4375,6.5625h23.5625" display="block" fill="none" stroke="#a1a1a1"/>
<path d="m5.77857,39.066c.10344.21147.31033.42293.62065.42293h33.30845c.20689,0 .52116-.12631.70817-.26435 .5304-.39153.65486-.61238.89278-.97347 2.44813-3.71546 5.80514-19.27689 5.80514-19.27689 .10344-.21146-.10344-.42292-.41377-.42292h-34.92364c-.31033,0-1.65597,16.10733-4.863,19.28702l-1.23824,1.22768h.10344z" display="block" fill="url(#linearGradient13162)" stroke="#3465a4" stroke-linejoin="round"/>
<path d="m15.35607,8.5625h19.72535" display="block" fill="none" stroke="#a1a1a1"/>
<path d="m13.13448,20.13864c-.77275,4.99076-1.5013,9.00924-2.71599,13.51386 2.38649-.70711 7.11612-3.2045 17.11612-3.2045s16.72357-9.2487 17.65165-10.35355l-32.05178.04419z" fill="url(#linearGradient156)" fill-rule="evenodd"/>
<path d="m15.14301,10.5625h24.31482" display="block" fill="none" stroke="#a1a1a1"/>
<path d="m45.82008,19.6875h-33.15847c0,0-2.14775,16.01961-4.72227,18.24058 8.12108,0 31.57117-.04864 31.59099-.04864 1.75166,0 4.90764-12.63619 6.28975-18.19194z" fill="none" opacity=".52273" stroke="url(#linearGradient155)" stroke-linecap="round"/>
<path d="m14.39877,12.5625h23.85339" display="block" fill="none" stroke="#a1a1a1"/>
<path d="m13.62903,14.5625h23.3463" display="block" fill="none" stroke="#a1a1a1"/>
<path d="m12.52068,16.5625h18.64616" display="block" fill="none" stroke="#a1a1a1"/>
<path d="m6.375,31.75c-1.24137-12.23804 7.1875-19.0625 5.625-28.75h30.875l-30,.625c1.25,9.5625-6.19638,14.64645-6.5,28.125z" display="block" fill="#fff"/>
</svg>
