<?xml version="1.0" encoding="UTF-8" standalone="no"?>
<svg viewBox="0 0 48 48" xmlns="http://www.w3.org/2000/svg">
<defs>
<radialGradient cx="24.83713" cy="36.42113" gradientTransform="matrix(1,0,0,.53672,1.614716e-15,16.87306)" gradientUnits="userSpaceOnUse" id="radialGradient1444" r="15.64474">
<stop offset="0"/>
<stop offset="1" stop-opacity="0"/>
</radialGradient>
<radialGradient cx="35.29267" cy="20.49449" gradientTransform="matrix(1.871885e-16,-.84302,1.02017,2.265228e-16,.60644,42.58614)" gradientUnits="userSpaceOnUse" id="radialGradient1469" r="16.9562">
<stop offset="0" stop-color="#73d216"/>
<stop offset="1" stop-color="#4e9a06"/>
</radialGradient>
<radialGradient cx="15.98722" cy="1.53503" gradientTransform="matrix(3.749427e-16,-2.04673,-1.55761,-2.853404e-16,44.11559,66.93275)" gradientUnits="userSpaceOnUse" id="radialGradient1471" r="17.17142">
<stop offset="0" stop-color="#fff"/>
<stop offset="1" stop-color="#fff" stop-opacity="0"/>
</radialGradient>
</defs>
<path d="m40.48186,36.42113a15.64474,8.39689 0 1,1 -31.28947,0 15.64474,8.39689 0 1,1 31.28947,0z" fill="url(#radialGradient1444)" fill-rule="evenodd" opacity=".20455" transform="matrix(1.21447,0,0,.59546,-6.16385,16.31275)"/>
<g transform="matrix(-1,0,0,-1,47.02856,43.99921)">
<path d="m14.51914,38.5 18.00503-.00391v-12.99163l7.99537-.00781-17.14472-19.99744-16.84625,19.99807 7.99588.00379-.0053,12.99893z" fill="url(#radialGradient1469)" fill-rule="evenodd" stroke="#3a7304" stroke-linecap="round" stroke-linejoin="round" stroke-miterlimit="10"/>
<path d="m39.42989,24.99347-7.40639.01172 .00268,12.99284-15.37856-.00915c.76992-18.34099 10.72265-10.99307 15.38166-21.64688l7.40061,8.65148z" fill="url(#radialGradient1471)" fill-rule="evenodd" opacity=".50802"/>
<path d="m15.5207,37.49609 16.0014.00391v-12.99295l6.81681-.01563-14.95428-17.45259-14.70653,17.45694 6.8399.00525 .00269,12.99507z" fill="none" opacity=".48128" stroke="#fff" stroke-miterlimit="10"/>
</g>
</svg>
