<?xml version="1.0" encoding="utf8" standalone="no"?>
<svg viewBox="0 0 75.360008 73.137146" xmlns="http://www.w3.org/2000/svg">
<defs>
<linearGradient gradientUnits="userSpaceOnUse" id="linearGradient3696" x1="279.91721" x2="298.99103" y1="487.9859" y2="508.32077">
<stop offset="0" stop-color="#f09092"/>
<stop offset=".25" stop-color="#f2acac"/>
<stop offset=".5" stop-color="#f5c8c7"/>
<stop offset=".75" stop-color="#cf8885"/>
<stop offset="1" stop-color="#aa4944"/>
</linearGradient>
<linearGradient gradientUnits="userSpaceOnUse" id="linearGradient3724" x1="235.88579" x2="247.01926" y1="538.61761" y2="549.68903">
<stop offset="0" stop-color="#ddb090"/>
<stop offset=".5" stop-color="#ebd1bf"/>
<stop offset="1" stop-color="#ce8d60"/>
</linearGradient>
</defs>
<g transform="translate(-229.26375,-482.76158)">
<path d="m229.76375,555.39873 3.25608-9.27034 6.92298-19.71037c0,0 42.26073-41.67721 44.49003-42.78014s4.57304.56973 4.57304.56973 4.63544,2.08366 8.88068,6.96369 6.37825,7.57238 6.22996,10.10602-44.47963,43.03246-44.47963,43.03246l-19.73534,7.32579-10.1378,3.76316z" fill="url(#linearGradient3696)" stroke="#000"/>
<path d="m238.93739,529.61889 .38756,3.2698 7.11321-2.1889 1.38379,9.04204 7.97941.42929 .7179,5.15184 3.11763-1.01318 18.50044-17.19164c0,0-3.91876-6.15726-9.32026-11.49513-5.35876-5.29564-9.80542-7.93659-9.80542-7.93659l-19.06884,18.7316-1.00542,3.20087z" fill="#fba635" stroke="#000"/>
<path d="m246.43816,530.69979 19.08963-18.22695c0,0 1.16146.58399 4.73428,4.48074s4.77589,5.49004 4.77589,5.49004l-19.2366,17.7275-7.97941-.42929-1.38379-9.04204z" fill="#f5b25f"/>
<path d="m256.51926,545.32296 3.11763-1.01318 18.50044-17.19164-3.09937-4.67452-19.2366,17.7275 .7179,5.15184z" fill="#b54d0e"/>
<path d="m233.35008,545.72031 6.22953,5.82457-9.81586,3.85385 3.58633-9.67842z"/>
<path d="m238.93739,529.61889 .38756,3.2698 7.11321-2.1889 1.38379,9.04204 7.97941.42929 .7179,5.15184 3.11763-1.01318 18.50044-17.19164c0,0-3.91876-6.15726-9.32026-11.49513-5.35876-5.29564-9.80542-7.93659-9.80542-7.93659l-19.06884,18.7316-1.00542,3.20087z" fill="none" stroke="#000"/>
<path d="m233.35008,545.72031 6.22953,5.82457 16.93965-6.22192-.7179-5.15184-7.97941-.42929-1.38379-9.04204-7.11321,2.1889-.38756-3.2698-5.58731,16.10142z" fill="url(#linearGradient3724)" stroke="#000"/>
<path d="m273.13149,494.59305c0,0 6.41732,2.38933 10.65215,7.01704s8.95738,11.88921 8.95738,11.88921l-14.60369,13.61884c0,0-6.33532-9.59618-9.47242-12.12073s-9.65326-7.31099-9.65326-7.31099l14.11984-13.09337z" fill="#7e5f56"/>
<path d="m259.01165,507.68642 6.51614,4.78642 14.58809-13.99732-6.98439-3.88247-14.11984,13.09337" fill="#d6c8c6"/>
<path d="m265.52779,512.47284 3.87365,3.27648 5.63652,6.6943 14.37217-13.10379c0,0-1.68559-4.10093-3.66644-6.16766s-5.62781-4.69665-5.62781-4.69665" fill="#ece4e2"/>
<path d="m273.13149,494.59305c0,0 6.41732,2.38933 10.65215,7.01704s8.95738,11.88921 8.95738,11.88921l-14.60369,13.61884c0,0-5.70154-8.27134-8.73589-11.36882-2.8179-2.87653-10.38979-8.0629-10.38979-8.0629l14.11984-13.09337z" fill="none" stroke="#000"/>
</g>
</svg>
