<?xml version="1.0" encoding="utf8" standalone="no"?>
<svg viewBox="0 0 235.49339 199.0731" xmlns="http://www.w3.org/2000/svg">
<g transform="translate(-75.43198,-522.68568)">
<path d="m111.41357,583.08444 121.38216-58.35246 74.53106,28.72451-107.36961,84.50727-88.54361-54.87932z" fill="#fff" stroke="#000" stroke-linecap="round" stroke-width="4.0926"/>
<path d="m109.30667,586.08951-.7649,74.21249 89.01266,49.2982 1.51523-72.9118-89.76299-50.59889z" fill="#fff" stroke="#000" stroke-linecap="round" stroke-width="4.0926"/>
<path d="m201.0293,708.34778 106.70047-89.62308 1.1493-62.01791-109.80017,83.19523c-.40199,22.65106 1.04808,43.85862 1.9504,68.44576z" fill="#fff" stroke="#000" stroke-linecap="round" stroke-width="4.0926"/>
<path d="m191.12642,699.02118-26.90794,19.42412c-6.51363,1.63856-14.54251,1.95039-21.05615-.27359l-56.58531-29.77626c-7.95544-2.6274-7.79604-6.7863-8.69915-13.31245l-.4441-47.8763c2.36205-8.72407 9.08049-13.13423 15.98803-16.20429l21.76148-11.04839 75.05491,42.35214 .88823,56.71502z" fill="#fff" stroke="#000" stroke-linecap="round" stroke-width="4.00357"/>
<path d="m141.24145,570.76505 87.14286,46.42857 57.85714-44.28572-79.28572-35.71428-65.71428,33.57143z" fill="#00f" stroke="#000" stroke-linecap="round" stroke-width="5"/>
<path d="m227.63993,618.93395v66.86119l55.77224-45.2706 2.14509-64.0753" fill="#00f" stroke="#000" stroke-linecap="round" stroke-width="4.93982"/>
<path d="m148.49242,715.23851 1e-005-57.57869 6.56598,1.01014-1.51523,56.56855h-5.05076z" fill="#f2f2f2"/>
<path d="m150.39917,662.15286-69.61439-33.14992 8.17417-9.23223 65.96587,34.78263-4.52565,7.59952z" fill="#f2f2f2"/>
<path d="m186.66434,643.77134-31.53647,19.20004-1.88843-7.41615 31.54668-14.12136 1.87822,2.33747z" fill="#f2f2f2"/>
</g>
</svg>
