<?xml version="1.0" encoding="utf8" standalone="no"?>
<!DOCTYPE svg PUBLIC "-//W3C//DTD SVG 20010904//EN" "http://www.w3.org/TR/2001/REC-SVG-20010904/DTD/svg10.dtd">
<svg viewBox="0 0 437.5 437.5" xmlns="http://www.w3.org/2000/svg" xmlns:xlink="http://www.w3.org/1999/xlink">
<defs>
<linearGradient>
<stop offset="0" stop-color="#0c6700"/>
<stop offset="1" stop-color="#a7daaf"/>
</linearGradient>
<linearGradient>
<stop offset="0" stop-opacity=".7294"/>
<stop offset="1" stop-opacity="0"/>
</linearGradient>
<linearGradient x2="1" y2="1">
<stop offset="0" stop-color="#f0ff00"/>
<stop offset="1" stop-color="#176f00"/>
</linearGradient>
<linearGradient x1=".51104" x2=".88013" xlink:href="#linearGradient842" y1=".60527" y2=".80702"/>
<radialGradient cx=".5" cy=".5" r=".5" xlink:href="#linearGradient48"/>
<radialGradient cx=".56782" cy=".63158" fx=".54574" fy=".81579" r=".30972" xlink:href="#linearGradient842"/>
<radialGradient cx=".41445" cy=".47657" fx=".3346" fy=".60938" r=".45242" xlink:href="#linearGradient842"/>
<radialGradient cx=".74737" cy=".14833" fx=".57895" fy=".26563" r=".70696" xlink:href="#linearGradient48"/>
</defs>
<path d="m101.5127,420.188-19.50251-380.30427 326.87741,1.01742c-.0154,20.06069 5.6974,359.95185 5.8924,376.58535-103.0647-20.4945-303.9224,2.5683-313.2673,2.7015z" fill="#040565" fill-opacity=".3977" fill-rule="evenodd"/>
<path d="m54.37216,394.6536c-5.84601-126.1134-7.76383-324.90171-17.53832-378.34012 106.34026,15.39791 257.75586-13.08934 324.91326-.94677-20.0244,58.67298 3.7332,359.95189 3.9282,376.58539-103.0647-20.4945-310.87037,12.0374-311.30314,2.7015z" fill="#ffffeb" fill-rule="evenodd" stroke="#99bf98" stroke-width="15.89208"/>
<path d="m75.97822,367.155c-15.26627-68.1131-14.04851-323.14201-13.57956-332.14642 100.65874,18.2771 242.64434-3.34053 260.57204-2.98164l-.5074,24.58771c-.0154,20.06069-73.6498,143.70385-73.4548,160.33725-103.0647-20.4945-163.68534,150.0699-173.03028,150.2031z" fill="#b2d385" fill-opacity=".4327" fill-rule="evenodd"/>
<path d="m83.23065,119.8776v75.9646h94.25225v-75.9646h-94.25225z" fill="#3a8b39" fill-rule="evenodd"/>
<path d="m81.8238,226.7907v111.1333h115.3537v-111.1333h-115.3537z" fill="#e1cf80" fill-rule="evenodd"/>
<path d="m219.6855,122.6911v35.1688h106.9132v-35.1688h-106.9132z" fill="#cbcbe5" fill-rule="evenodd"/>
<path d="m219.6855,177.5545v66.1173h102.6929v-66.1173h-102.6929z" fill="#d8d2e1" fill-rule="evenodd"/>
<path d="m83.23055,70.64131v32.35529h241.96135v-32.35529h-241.96135z" fill="#eb7e58" fill-rule="evenodd"/>
<path d="m320.8436,343.0249v-14.9481h-105.89v14.9481h105.89z" fill-rule="evenodd"/>
<path d="m145.8938,287.1207h-6.4449c-11.3402,0-19.8983,1.2731-25.674,3.8192-5.7054,2.5014-8.5581,6.2534-8.5581,11.2562 0,4.5114 2.1484,8.0178 6.445,10.5192s10.2485,3.7521 17.8556,3.7521c10.7063,0 19.1234-2.345 25.2514-7.0352 6.128-4.7347 9.2272-11.2562 9.2976-19.5643v-2.7472h-18.1726zm37.7186-5.0921v42.814h-19.546v-11.1223c-4.1558,4.4668-9.4033,7.7722-15.7425,9.9163-6.2689,2.0993-13.9112,3.149-22.927,3.149-12.0447,0-21.6592-2.144-28.84365-6.4321-7.1845-4.3328-10.7768-10.1172-10.7768-17.3534 0-8.3529 4.4023-14.6956 13.2068-19.0284 8.87495-4.3328 21.87045-6.4992 38.98645-6.4992h26.0967v-1.943c-.0704-5.9855-2.4653-10.3182-7.1845-12.9983-4.7192-2.7247-12.2559-4.0871-22.6101-4.0871-6.621,0-13.3124.603-20.0743,1.809s-13.3477,2.9705-19.75735,5.2931v-12.3282c7.18445-1.7421 14.05195-3.0374 20.60255-3.8861 6.621-.8933 13.0307-1.34 19.2291-1.34 9.7907,0 18.1374.9156 25.0401,2.747 6.9732,1.8314 12.6081,4.5785 16.9048,8.2412 2.6765,2.2334 4.5783,5.0027 5.7053,8.3082 1.1269,3.2607 1.6904,8.1742 1.6904,14.7403z"/>
</svg>
