<?xml version="1.0" encoding="utf8" standalone="no"?>
<svg viewBox="0 0 394.48569 397.34286" xmlns="http://www.w3.org/2000/svg" xmlns:xlink="http://www.w3.org/1999/xlink">
<defs>
<linearGradient id="linearGradient3176">
<stop offset="0" stop-color="#ddd"/>
<stop offset="1" stop-color="#b3b3b3"/>
</linearGradient>
<linearGradient gradientUnits="userSpaceOnUse" id="linearGradient2405" x2="0" xlink:href="#linearGradient3176" y1="322.1231" y2="494.05447"/>
<linearGradient gradientUnits="userSpaceOnUse" id="linearGradient2415" x2="0" xlink:href="#linearGradient3176" y1="571.18014" y2="697.26285"/>
</defs>
<g transform="translate(-89.19716,-310.55006)">
<path d="m94.29716,315.65006v345.71428l41.42858,41.42857h342.85709v-385.71428l-384.28567-1.42857z" fill="#999eff" fill-rule="evenodd" stroke="#1532c6" stroke-width="10.2"/>
<path d="m-473.2421-336.47147h373.53265v14.64286h-373.53265z" fill="#eef8f1" fill-rule="evenodd" transform="scale(-1)"/>
<path d="m142.01682,342.51254h266.99939v156.9994h-266.99939z" fill="none" stroke="#4c48ff" stroke-width="12.14386"/>
<path d="m151.40244,328.00784h248.73323v160.16185h-248.73323z" fill="url(#linearGradient2405)" fill-rule="evenodd" stroke="#fff" stroke-width="11.83856"/>
<path d="m204.14273,575.49567h188.88029v117.45175h-188.88029z" fill="url(#linearGradient2415)" fill-rule="evenodd"/>
<path d="m226.86861,594.2215h54.28571v68.57143h-54.28571z" fill="#395bff" fill-rule="evenodd"/>
<path d="m225.79716,656.7215h56.42857v14.64286h-56.42857z" fill="#c6c6c6" fill-rule="evenodd"/>
<path d="m-693.14655,390.42322h117.03773v14.64286h-117.03773z" fill="#c6c6c6" fill-rule="evenodd" transform="matrix(0,-1,1,0,0,0)"/>
<path d="m-693.12616,190.39279h117.03773v14.64286h-117.03773z" fill="#c6c6c6" fill-rule="evenodd" transform="matrix(0,-1,1,0,0,0)"/>
<path d="m-405.02136-581.29926h214.6041v14.64286h-214.6041z" fill="#dedede" fill-rule="evenodd" transform="scale(-1)"/>
<path d="m184.27191,559.74451h227.43301v139.77762h-227.43301z" fill="none" stroke="#161616" stroke-width="13.8974"/>
</g>
</svg>
