<?xml version="1.0" encoding="UTF-8" standalone="no"?>
<!-- Created with Inkscape (http://www.inkscape.org/) -->

<svg
   xmlns:dc="http://purl.org/dc/elements/1.1/"
   xmlns:cc="http://creativecommons.org/ns#"
   xmlns:rdf="http://www.w3.org/1999/02/22-rdf-syntax-ns#"
   xmlns:svg="http://www.w3.org/2000/svg"
   xmlns="http://www.w3.org/2000/svg"
   xmlns:sodipodi="http://sodipodi.sourceforge.net/DTD/sodipodi-0.dtd"
   xmlns:inkscape="http://www.inkscape.org/namespaces/inkscape"
   width="256"
   height="256"
   viewBox="0 0 256 256"
   id="svg2"
   version="1.1"
   inkscape:version="0.91 r"
   sodipodi:docname="basura.svg">
  <defs
     id="defs4" />
  <sodipodi:namedview
     id="base"
     pagecolor="#ffffff"
     bordercolor="#666666"
     borderopacity="1.0"
     inkscape:pageopacity="0.0"
     inkscape:pageshadow="2"
     inkscape:zoom="0.98994949"
     inkscape:cx="287.6842"
     inkscape:cy="71.90266"
     inkscape:document-units="px"
     inkscape:current-layer="layer1"
     showgrid="false"
     units="px" />
  <metadata
     id="metadata7">
    <rdf:RDF>
      <cc:Work
         rdf:about="">
        <dc:format>image/svg+xml</dc:format>
        <dc:type
           rdf:resource="http://purl.org/dc/dcmitype/StillImage" />
        <dc:title></dc:title>
      </cc:Work>
    </rdf:RDF>
  </metadata>
  <g
     inkscape:label="Layer 1"
     inkscape:groupmode="layer"
     id="layer1"
     transform="translate(0,-796.36219)">
    <g
       id="g4171"
       transform="matrix(7.8338777,0,0,7.8338777,-662.38227,-657.42126)">
      <path
         sodipodi:nodetypes="sssssssss"
         inkscape:connector-curvature="0"
         id="rect3347"
         d="m 91.642853,191.7372 18.499997,0 c 1.108,0 2,0.892 2,2 l 0,22.51786 c 0,1.108 -0.892,2 -2,2 l -18.499997,0 c -1.108,0 -2,-0.892 -2,-2 l 0,-22.51786 c 0,-1.108 0.892,-2 2,-2 z"
         style="opacity:1;fill:#b6bcc6;fill-opacity:1;stroke:none;stroke-width:1;stroke-miterlimit:4;stroke-dasharray:none;stroke-opacity:1" />
      <rect
         ry="2"
         rx="2"
         y="197.71935"
         x="99.196426"
         height="17.857143"
         width="3.3928571"
         id="rect3353"
         style="opacity:1;fill:#8993a3;fill-opacity:1;stroke:none;stroke-width:1;stroke-miterlimit:4;stroke-dasharray:none;stroke-opacity:1" />
      <rect
         style="opacity:1;fill:#8993a3;fill-opacity:1;stroke:none;stroke-width:1;stroke-miterlimit:4;stroke-dasharray:none;stroke-opacity:1"
         id="rect3357"
         width="3.3928571"
         height="17.857143"
         x="105.19643"
         y="197.71935"
         rx="2"
         ry="2" />
      <rect
         style="opacity:1;fill:#8993a3;fill-opacity:1;stroke:none;stroke-width:1;stroke-miterlimit:4;stroke-dasharray:none;stroke-opacity:1"
         id="rect3359"
         width="3.3928571"
         height="17.857143"
         x="93.196426"
         y="197.71935"
         rx="2"
         ry="2" />
      <path
         sodipodi:nodetypes="sssssccccccssss"
         inkscape:connector-curvature="0"
         id="rect3349"
         d="m 96.821426,185.57648 8.142854,0 c 1.108,0 2,0.892 2,2 l 0,4.39285 c 0,1.108 -0.892,2 -2,2 l -0.91517,0 0,-4.55357 c -0.0909,-0.41514 -0.17976,-0.83126 -0.7634,-1 l -4.741071,0 c -0.415846,0.13967 -0.763878,0.36073 -0.763392,1 l 0,4.55357 -0.959821,0 c -1.108,0 -2,-0.892 -2,-2 l 0,-4.39285 c 0,-1.108 0.892,-2 2,-2 z"
         style="opacity:1;fill:#b6bcc6;fill-opacity:1;stroke:none;stroke-width:1;stroke-miterlimit:4;stroke-dasharray:none;stroke-opacity:1" />
      <path
         sodipodi:nodetypes="sssssssss"
         inkscape:connector-curvature="0"
         id="rect3351"
         d="m 88.848429,191.46934 24.088841,0 c 0.50965,0 0.78246,0.46334 0.91995,1 l 0.63135,2.46429 c 0.1375,0.53667 -0.4103,1 -0.91995,1 l -25.351536,0 c -0.509653,0 -1.057444,-0.46333 -0.91995,-1 l 0.631345,-2.46429 c 0.137491,-0.53666 0.410297,-1 0.91995,-1 z"
         style="opacity:1;fill:#cbd0d9;fill-opacity:1;stroke:none;stroke-width:1;stroke-miterlimit:4;stroke-dasharray:none;stroke-opacity:1" />
      <path
         inkscape:connector-curvature="0"
         id="rect3355"
         d="m 89.6735,195.9129 22.47122,0 0,4.28571 -22.47122,0 z"
         style="opacity:1;fill:#000000;fill-opacity:0.11764706;stroke:none;stroke-width:1;stroke-miterlimit:4;stroke-dasharray:none;stroke-opacity:1" />
      <rect
         ry="2"
         rx="2"
         y="199.41464"
         x="95.838226"
         height="14.89975"
         width="0.63134533"
         id="rect4162"
         style="opacity:1;fill:#000000;fill-opacity:0.15686275;stroke:none;stroke-width:1;stroke-miterlimit:4;stroke-dasharray:none;stroke-opacity:1" />
      <rect
         style="opacity:1;fill:#000000;fill-opacity:0.15686275;stroke:none;stroke-width:1;stroke-miterlimit:4;stroke-dasharray:none;stroke-opacity:1"
         id="rect4164"
         width="0.63134533"
         height="14.89975"
         x="101.83823"
         y="199.41464"
         rx="2"
         ry="2" />
      <rect
         ry="2"
         rx="2"
         y="199.41464"
         x="107.83823"
         height="14.89975"
         width="0.63134533"
         id="rect4166"
         style="opacity:1;fill:#000000;fill-opacity:0.15686275;stroke:none;stroke-width:1;stroke-miterlimit:4;stroke-dasharray:none;stroke-opacity:1" />
    </g>
  </g>
</svg>
