<?xml version="1.0" encoding="UTF-8" standalone="no"?>
<svg viewBox="0 0 145.00813 201.16902" xmlns="http://www.w3.org/2000/svg">
<title>devoir</title>
<g transform="translate(-223.7708,-399.19814)">
<path d="m224.98373,405.18677-1e-005,193.50453 136.10128.92586-.92587-196.2821z" fill="#fff" stroke="#000" stroke-dashoffset="3.003" stroke-linecap="round" stroke-linejoin="round" stroke-width="1.5"/>
<path d="m224.5208,405.18678 .92586,193.50452c40.42918,4.01205 117.3027-6.84045 142.58228-15.73959-8.93997-44.5572-5.82203-116.02708-7.40688-179.61665z" fill="#fff" stroke="#000" stroke-dashoffset="3.003" stroke-linecap="round" stroke-linejoin="round" stroke-width="1.5"/>
<path d="m244.64661,404.65856c-1.74866-6.75587-11.39178-6.54874-11.51868,1.12243l1.69432,22.16076c1.71891,10.16472 12.46301,6.56389 10.55229-1.49338l-1.62808-11.93453" fill="none" stroke="#000" stroke-dashoffset="3.003" stroke-linecap="round" stroke-linejoin="round" stroke-width="1.2"/>
<path d="m251.629,469.41678 1.09971,14.30547 81.34499-1.14713-.31805-14.12152z" fill="#ececec"/>
<path d="m265.36967,490.29762-.26779,13.84117 57.80517-.73926-.95735-15.05133z" fill="#ececec"/>
<path d="m257.69125,512.27829 .12633,12.45416 68.2839-.80656-1.02409-14.58328z" fill="#ececec"/>
</g>
</svg>
