<?xml version="1.0" encoding="utf8" standalone="no"?>
<svg viewBox="0 0 697 697" xmlns="http://www.w3.org/2000/svg" xmlns:xlink="http://www.w3.org/1999/xlink">
<defs>
<filter id="filter3493-3">
<feGaussianBlur stdDeviation="7.2324"/>
</filter>
<filter height="1.21352" id="filter3462-3" width="1.21352" x="-.10676" y="-.10676">
<feGaussianBlur stdDeviation="25.54581"/>
</filter>
<filter height="1.23904" id="filter3569-5" width="1.15651" x="-.07825" y="-.11952">
<feGaussianBlur stdDeviation="14.16288"/>
</filter>
<linearGradient id="linearGradient7802">
<stop offset="0" stop-color="#08f"/>
<stop offset="1" stop-color="#1e2862"/>
</linearGradient>
<linearGradient gradientUnits="userSpaceOnUse" id="linearGradient3345" x2="0" y1="167.17285" y2="513.0087">
<stop offset="0" stop-color="#eee"/>
<stop offset="1" stop-color="#aec6d7"/>
</linearGradient>
<linearGradient gradientUnits="userSpaceOnUse" id="linearGradient7874" x1="387.20773" x2="234.76697" xlink:href="#linearGradient7802" y1="319.42313" y2="296.67078"/>
<radialGradient cx="359.85861" cy="603.30267" gradientTransform="matrix(1.98739,-.32079,.19084,1.18231,-486.21291,-22.47592)" gradientUnits="userSpaceOnUse" id="radialGradient3329-5" r="287.14285">
<stop offset="0" stop-color="#fff"/>
<stop offset="1" stop-color="#fff" stop-opacity="0"/>
</radialGradient>
<radialGradient cx="500.23108" cy="869.05786" gradientTransform="matrix(2.10424,-1.4029,.46183,.6927,-953.72724,918.91004)" gradientUnits="userSpaceOnUse" id="radialGradient3515-6" r="217.18457">
<stop offset="0"/>
<stop offset="1" stop-opacity="0"/>
</radialGradient>
<radialGradient cx="317.33771" cy="633.9411" gradientTransform="matrix(1.71915,-.27854,.23847,1.47184,-502.6485,-249.53315)" gradientUnits="userSpaceOnUse" id="radialGradient7822" r="287.14285" xlink:href="#linearGradient7802"/>
<radialGradient cx="272.21576" cy="332.60129" gradientUnits="userSpaceOnUse" id="radialGradient7820" r="287.14285" xlink:href="#linearGradient7802"/>
<radialGradient cx="596.62854" cy="788.80029" gradientUnits="userSpaceOnUse" id="radialGradient7818" r="289.32062" xlink:href="#linearGradient7802"/>
</defs>
<g transform="translate(7.04463,9.12444)">
<path d="m700,579.50507c0,158.58461-128.55823,287.14285-287.14285,287.14285s-287.14286-128.55824-287.14286-287.14285 128.55824-287.14286 287.14286-287.14286 287.14285,128.55824 287.14285,287.14286z" filter="url(#filter3462-3)" transform="translate(-71.44898,-240.08231)"/>
<path d="m700,579.50507c0,158.58461-128.55823,287.14285-287.14285,287.14285s-287.14286-128.55824-287.14286-287.14285 128.55824-287.14286 287.14286-287.14286 287.14285,128.55824 287.14285,287.14286z" fill="url(#radialGradient7822)" stroke="url(#radialGradient7820)" stroke-linecap="round" stroke-linejoin="round" stroke-width="5" transform="translate(-82.44898,-258.08231)"/>
<path d="m700,579.50507c0,158.58461-128.55823,287.14285-287.14285,287.14285s-287.14286-128.55824-287.14286-287.14285 128.55824-287.14286 287.14286-287.14286 287.14285,128.55824 287.14285,287.14286z" fill="none" stroke="url(#radialGradient7818)" stroke-linecap="round" stroke-linejoin="round" stroke-width="5.44444" transform="matrix(.91837,0,0,.91837,-48.74636,-210.77577)"/>
<path d="m369.96875,120.3125c-29.19219.46811-53.40122,33.94409-41.96875,61.46875 9.66144,18.62567 37.37166,19.12001 51.5,5.53125 17.19077-12.27338 25.88806-39.22776 12.1875-57.21875-5.33622-6.17795-13.43777-10.19195-21.71875-9.78125zm-18.4375,120.78125c-36.54656,6.46768-65.7007,31.37671-96.28125,50.53125-9.80334,9.03499-2.46823,29.89273 11.75,27.65625 10.21904-2.64553 17.3758-11.42009 26.875-15.75 3.9747-2.24713 8.27185-3.99783 12.78125-4.78125 .80328,11.35562-5.08378,21.81356-6.75,32.90625-13.33083,50.12118-32.17621,98.92605-40.96875,150.15625-1.59095,14.9832 5.84528,33.18952 22.09375,36.09375 20.1331,3.83286 37.75185-9.94871 53.87402-19.89848 15.89267-10.4287 32.72932-20.32518 45.71973-34.35152 6.54576-11.37893-7.99786-28.81741-20.125-20.96875-11.71688,7.26679-22.57056,17.71384-36.4375,20.5 5.64938-35.27332 17.23086-69.37013 26.625-103.8125 8.24403-29.22355 18.24968-58.28509 22.03125-88.5 1.74501-13.54437-5.52389-30.0942-21.1875-29.78125z" fill="#036" fill-rule="evenodd" stroke="url(#linearGradient7874)" stroke-linecap="round" stroke-linejoin="round" stroke-width="32"/>
<path d="m275.32071,451.68735 8.92572-30.51799 24.8838-85.14265c5.40946-17.43867 8.02406-29.83392 7.84382-37.18579-.18039-7.52243-3.15563-11.28375-8.92571-11.28397-2.88515.00022-8.02419,1.88088-15.41715,5.64198-7.21275,3.76154-16.76957,9.489-28.67049,17.1824l-4.05713-10.00169c22.71996-15.72894 42.01391-27.86775 57.88191-36.41643s26.95736-12.82243 33.26857-12.82269c6.85195.00026 10.72877,4.10351 11.63049,12.30978 1.08177,8.20675-.81156,20.51652-5.68001,36.92934l-21.63809,75.65385-15.68763,56.93274c-4.14738,15.55824-6.13087,26.41477-5.95048,32.56962 .18025,5.98396 2.61454,8.97592 7.30287,8.97589 3.96689,3e-005 9.82721-2.0516 17.58095-6.15489 7.93386-4.10323 17.76115-10.34359 29.48191-18.72113l4.86857,9.48879c-20.91694,15.90016-38.67819,28.20993-53.28382,36.92934-14.42546,8.54845-24.61339,12.82268-30.56381,12.82268-10.27814,0-16.6794-4.78713-19.20382-14.3614l-1.0819-9.23234c-2e-005-8.54843 2.16378-19.7469 6.49143-33.59544m94.66668-321.33654c7.03224.00037 12.26145,2.82136 15.68762,8.46297 3.42589,5.47138 4.057,12.05368 1.89334,19.74694-2.34428,7.69395-6.85221,14.36174-13.52381,20.00339-6.67188,5.47134-13.52393,8.20684-20.5562,8.20653s-12.26169-2.73519-15.68762-8.20653c-3.42613-5.64165-3.96707-12.30944-1.62286-20.00339 2.16371-7.69326 6.58149-14.27556 13.25333-19.74694 6.67164-5.64161 13.5237-8.4626 20.5562-8.46297" fill="url(#linearGradient3345)" fill-rule="evenodd" stroke="url(#linearGradient3345)" stroke-linecap="round" stroke-linejoin="round" stroke-width="32"/>
<path d="m673.36583,582.75514c-165.91024,17.72728-216.68927-24.73248-349.58156,51.05313-61.6012,35.12984-119.16014,47.24906-151.32925,49.46288-13.73714-37.15171-21.59419-20.54669-33.98572-14.71528-8.60497-18.60264-12.75501-47.49739-12.75501-89.0508 0-158.50286 128.64-287.14286 287.14286-287.14286 105.09616,0 197.06334,56.55559 247.1073,140.87253 21.81411,36.75367 35.66248,78.78221 39.16024,123.70076-9.41523-2.05786-27.06894-8.70037-25.75886,25.81964z" fill="url(#radialGradient3329-5)" filter="url(#filter3493-3)" opacity=".49533" transform="translate(-82.44898,-258.08231)"/>
<path d="m699.61256,594.53936c-7.82807,151.52363-133.29528,272.10856-286.75541,272.10856-53.96583,0-104.46993-14.91213-147.61373-40.83785 16.63844,5.88042 34.7881-6.03239 7.75229-25.66841 45.46618-6.9287 133.35311-20.69277 204.306-70.56879 111.53772-78.40496 132.92356-138.92457 196.81208-147.32177-2.25654,44.2893 23.87912,15.50501 25.49877,12.28826z" fill="url(#radialGradient3515-6)" filter="url(#filter3569-5)" opacity=".18719" transform="translate(-82.44898,-258.08231)"/>
</g>
</svg>
