<?xml version="1.0" encoding="utf8" standalone="no"?>
<!DOCTYPE svg PUBLIC "-//W3C//DTD SVG 20010904//EN" "http://www.w3.org/TR/2001/REC-SVG-20010904/DTD/svg10.dtd">
<svg viewBox="0 0 60 60" xmlns="http://www.w3.org/2000/svg">
<defs>
<linearGradient>
<stop offset="0"/>
<stop offset="1" stop-color="#fff"/>
</linearGradient>
</defs>
<path d="m8.4733,9.49729c0-.1875.04688-.36133.14063-.52148 .09766-.16406.22656-.29492.38672-.39258s.33398-.14648.52148-.14648c.18359,0 .35547.04883.51562.14648s.28711.22852.38086.39258c.09766.16016.14648.33398.14648.52148s-.04883.36914-.14648.5332c-.09375.16016-.22266.28711-.38672.38086s-.33008.14063-.50977.14063-.35742-.04688-.52148-.14063-.28906-.2207-.38672-.38086c-.09375-.16406-.14063-.3418-.14063-.5332zm-3.15234-.11133v-5.8418h-.61523c-.27734,0-.49609-.08984-.65625-.26953s-.24023-.39453-.24023-.63281c0-.24609.07813-.45898.23438-.63867s.37695-.27539.66211-.27539h1.58789c.27734,0 .50781.07031.69141.21094 .1875.14063.28125.39844.28125.77344v6.67383c0,.33984-.08984.59961-.26953.7793s-.41016.26367-.70313.26367-.5293-.08789-.70898-.26367-.26367-.43945-.26367-.7793z" fill="#333" transform="matrix(2.335694,.000000,.000000,2.335694,.254482,.000000)"/>
<path d="m9.42039,33.18152c0-.1875.04688-.36133.14063-.52148 .09766-.16406.22656-.29492.38672-.39258s.33398-.14648.52148-.14648c.18359,0 .35547.04883.51563.14648s.28711.22852.38086.39258c.09766.16016.14648.33398.14648.52148s-.04883.36914-.14648.5332c-.09375.16016-.22266.28711-.38672.38086s-.33008.14063-.50976.14063-.35742-.04688-.52148-.14063-.28906-.2207-.38672-.38086c-.09375-.16406-.14063-.3418-.14063-.5332zm-3.63281-.96094h2.03906c.28125,0 .50195.09375.66211.28125 .16016.18359.24023.39258.24023.62695 0,.24609-.08008.46094-.24023.64453s-.38086.26953-.66211.26953h-3.92578c-.32031,0-.58398-.08008-.79102-.24023s-.31055-.36719-.31055-.62109c0-.21094.08398-.43945.25195-.68555s.36133-.48047.58008-.70313l.64453-.65625c.16406-.18359.375-.42383.63281-.7207s.49805-.59375.7207-.87891 .41406-.57422.57422-.86719c.16406-.29688.24609-.54492.24609-.74414 0-.54688-.24805-.82031-.74414-.82031-.28906,0-.49609.07813-.62109.23438-.125.15234-.23828.38281-.33984.69141s-.20898.53906-.32227.69141-.30664.22266-.58008.22266c-.28516,0-.51172-.0957-.67969-.28711-.16406-.19531-.24609-.41602-.24609-.66211 0-.36719.07227-.71875.2168-1.05469s.3457-.63672.60352-.89063 .56836-.45508.93164-.60351 .74805-.22266 1.1543-.22266c.5,0 .95508.10742 1.36523.32227s.73633.52344.97852.92578c.24609.39844.36914.85352.36914,1.36524 0,.40625-.08789.80078-.26367,1.18359-.17188.38281-.38281.73438-.63281,1.05469s-.58008.70703-1.00195,1.17188-.70117.78516-.84961.97266z" fill="#333" transform="matrix(2.335694,.000000,.000000,2.335694,-1.957635,-22.82571)"/>
<path d="m25.95715,8.34018h28.50197" fill="none" stroke="#333" stroke-linecap="round" stroke-linejoin="round" stroke-width="3.40416" transform="matrix(.842712,0,0,1,8.232893,.68571)"/>
<path d="m25.95715,18.9701h28.50197" fill="none" stroke="#333" stroke-linecap="round" stroke-linejoin="round" stroke-width="3.40416" transform="matrix(.842712,0,0,1,8.232893,.68571)"/>
<path d="m25.95715,40.73891h28.50197" fill="none" stroke="#333" stroke-linecap="round" stroke-linejoin="round" stroke-width="3.40416" transform="matrix(.842712,0,0,1,8.232893,.561415)"/>
<path d="m25.95715,51.36883h28.50197" fill="none" stroke="#333" stroke-linecap="round" stroke-linejoin="round" stroke-width="3.40416" transform="matrix(.842712,0,0,1,8.232893,.561415)"/>
</svg>
