<?xml version="1.0" encoding="UTF-8" standalone="no"?>
<!DOCTYPE svg  PUBLIC '-//W3C//DTD SVG 1.1//EN'  'http://www.w3.org/Graphics/SVG/1.1/DTD/svg11.dtd'>
<svg id="Layer_1" xmlns="http://www.w3.org/2000/svg" xml:space="preserve" viewBox="0 0 512 512" version="1.1" y="0px" x="0px" xmlns:xlink="http://www.w3.org/1999/xlink" enable-background="new 0 0 512 512">
	<path d="m497.9 430.1l-112.1-125.1c-17.5 27.2-53.3 61.4-80.5 78.9l124.8 113.9c18.8 18.8 49.2 18.8 67.9 0 18.7-18.6 18.7-49-0.1-67.7z"/>
	<path d="m384 192c0-106-86-192-192-192s-192 86-192 192 86 192 192 192 192-86 192-192zm-192 144c-79.4 0-144-64.6-144-144s64.6-144 144-144 144 64.6 144 144-64.6 144-144 144z"/>
</svg>
