<?xml version="1.0" encoding="UTF-8" standalone="no"?>
<svg enable-background="new 0 0 136.709 112.038" viewBox="0 0 136.709 112.038" xmlns="http://www.w3.org/2000/svg">
<defs>
<radialGradient cx="-307.5098" cy="468.2617" gradientTransform="matrix(34.9181,0,0,-34.9181,10806.0146,16406.8008)" gradientUnits="userSpaceOnUse" id="XMLID_2_" r="1.7896">
<stop offset="0" stop-color="#8bbbff"/>
<stop offset="1" stop-color="#0d56ac"/>
</radialGradient>
</defs>
<path d="m135.914,102.859c0,9.199-7.603,9.179-14.157,9.179h-26.934-69.381-17.013c-8.316,0-8.429-8.082-8.429-14.064v-65.343-22.542c0-7.123 5.061-10.089 11.349-10.089h58.8 55.628c15.15,0 10.138,26.749 10.138,36.307-.001,22.183-.001,44.369-.001,66.552" fill="url(#XMLID_2_)"/>
<path d="m133.209,103.157c0,8.044-9.498,6.651-14.789,6.651h-28.599-67.899c-4.395,0-10.01.955-14.339-.237-6.726-1.854-4.878-11.987-4.878-17.19v-67.35c0-5.102-.887-11.103 0-16.15 0-8.043 9.49-6.651 14.781-6.651h65.224 31.274c4.398,0 10.01-.953 14.342.237 6.732,1.85 4.883,11.986 4.883,17.19v32.644 50.856" fill="#f4f4f4"/>
<path d="m126.559,2.229h-6.002c6.7,0 6.318,6.869 6.318,11.535 0,3.781-1.783,8.031 2.493,8.031 5.491,0 3.841-1.923 3.841-7.2 0-4.96.481-12.366-6.65-12.366" fill="#68a0f2" fill-rule="evenodd"/>
<path d="m126.875,8.554c0-8.026-10.505-6.324-15.691-6.324h-30.059-64.868c-5.811,0-13.552-.883-13.552,7.477 0,1.067-.025,12.117.022,12.117h4.302 59.995 47.877 11.394c1.319-.001.58-11.393.58-13.27" fill="#7fb5f7" fill-rule="evenodd"/>
<path d="m123.861,31.662c0,3.795-111.452,3.795-111.452,0 0-3.798 111.452-3.798 111.452,0" fill="#c6c6c6"/>
<path d="m12.409,102.621c-3.941,0-3.941-70.959 0-70.959s3.942,70.959 0,70.959" fill="#c6c6c6"/>
<path d="m9.795,100.107c0-3.793 114.6-3.793 114.6,0 .001,3.799-114.6,3.799-114.6,0" fill="#fff"/>
<path d="m124.396,29.149c4.055,0 4.055,70.958 0,70.958s-4.049-70.958 0-70.958" fill="#fff"/>
<path d="m130.916,7.813c0,.576-123.82.576-123.82,0 0-4.755 123.82-4.755 123.82,0" fill="#7ed8fc" fill-rule="evenodd"/>
<path d="m50.216,77.588c-2.825,2.823-7.076,3.576-9.902,6.4 4.198,4.121 9.001,11.287.796,11.279-4.57,0-18.303,2.599-21.896-.991-3.335-3.333-.969-15.668-.96-19.814 .016-9.101 6.097-5.46 12.024.522 2.2-2.225 6.997-15.081 10.803-11.275 2.828.996 12.371,10.641 9.135,13.879" fill="#d82a2a"/>
<path d="m87.816,54.02c2.834-2.816 7.087-3.557 9.919-6.373-4.186-4.132-8.968-11.312-.764-11.28 4.571.012 18.312-2.546 21.894,1.053 3.326,3.344.923,15.672.902,19.819-.042,9.101-6.113,5.44-12.021-.558-2.206,2.218-7.039,15.061-10.836,11.245-2.826-1.006-12.338-10.679-9.094-13.906" fill="#d82a2a"/>
</svg>
