<?xml version="1.0" encoding="utf8" standalone="no"?>
<svg viewBox="0 0 48 48" xmlns="http://www.w3.org/2000/svg" xmlns:xlink="http://www.w3.org/1999/xlink">
<defs>
<linearGradient id="linearGradient5060">
<stop offset="0"/>
<stop offset="1" stop-opacity="0"/>
</linearGradient>
<linearGradient gradientUnits="userSpaceOnUse" id="linearGradient6715" x2="0" y1="-150.69685" y2="327.66039">
<stop offset="0" stop-opacity="0"/>
<stop offset=".5"/>
<stop offset="1" stop-opacity="0"/>
</linearGradient>
<linearGradient gradientTransform="matrix(1.13787,0,0,1,-2.66088,0)" gradientUnits="userSpaceOnUse" id="linearGradient2861" x1="21.04348" x2="14.28364" y1="42.83337" y2="6.83337">
<stop offset="0" stop-color="#dfdfdf"/>
<stop offset="1" stop-color="#fff"/>
</linearGradient>
<linearGradient gradientUnits="userSpaceOnUse" id="linearGradient2879" x1="26.61242" x2="26.2284" y1="28.08337" y2="42.83337">
<stop offset="0" stop-color="#939393"/>
<stop offset="1" stop-color="#424242"/>
</linearGradient>
<linearGradient gradientUnits="userSpaceOnUse" id="linearGradient2925" x1="6" x2="40.98438">
<stop offset="0" stop-color="#a3a4a0"/>
<stop offset="1" stop-color="#888a85"/>
</linearGradient>
<linearGradient gradientUnits="userSpaceOnUse" id="linearGradient2972" x1="43.23696" x2="45.31904" y1="17.37618" y2="22.25059">
<stop offset="0" stop-color="#ffd1d1"/>
<stop offset=".5" stop-color="#ff1d1d"/>
<stop offset="1" stop-color="#6f0000"/>
</linearGradient>
<linearGradient gradientUnits="userSpaceOnUse" id="linearGradient2980" x1="40.33071" x2="42.01821" y1="19.8125" y2="22.625">
<stop offset="0" stop-color="#c1c1c1"/>
<stop offset="1" stop-color="#acacac"/>
</linearGradient>
<linearGradient gradientUnits="userSpaceOnUse" id="linearGradient3000" x1="19.89321" x2="19.68905" y1="31.17188" y2="30.82813">
<stop offset="0"/>
<stop offset="1" stop-color="#c9c9c9"/>
</linearGradient>
<radialGradient cx="29.05335" cy="27.64075" gradientTransform="matrix(2.92357,-3.911409e-24,2.471769e-23,2.02972,-61.55532,-27.88417)" gradientUnits="userSpaceOnUse" id="radialGradient2990" r="3.24085">
<stop offset="0" stop-color="#e7e2b8"/>
<stop offset="1" stop-color="#e7e2b8" stop-opacity="0"/>
</radialGradient>
<radialGradient cx="605.71429" cy="486.64789" gradientTransform="matrix(-2.77439,0,0,1.96971,112.7623,-872.8854)" gradientUnits="userSpaceOnUse" id="radialGradient6719" r="117.14286" xlink:href="#linearGradient5060"/>
<radialGradient cx="605.71429" cy="486.64789" gradientTransform="matrix(2.77439,0,0,1.96971,-1891.633,-872.8854)" gradientUnits="userSpaceOnUse" id="radialGradient6717" r="117.14286" xlink:href="#linearGradient5060"/>
<radialGradient cx="23.5625" cy="40.4375" gradientTransform="matrix(1,0,0,.34824,1.439818e-16,26.35543)" gradientUnits="userSpaceOnUse" id="radialGradient3010" r="19.5625" xlink:href="#linearGradient5060"/>
</defs>
<g transform="matrix(2.417561e-2,0,0,2.086758e-2,45.12765,40.1536)">
<path d="m-1559.2523-150.69685h1339.6335v478.35718h-1339.6335z" fill="url(#linearGradient6715)" opacity=".40206"/>
<path d="m-219.61876-150.68038v478.33079c142.87417.90045 345.40022-107.16966 345.40014-239.19618s-159.43682-239.13459-345.40014-239.13462z" fill="url(#radialGradient6717)" opacity=".40206"/>
<path d="m-1559.2523-150.68038v478.33079c-142.8742.90045-345.4002-107.16966-345.4002-239.19618s159.4368-239.13459 345.4002-239.13462z" fill="url(#radialGradient6719)" opacity=".40206"/>
</g>
<path d="m7.16387,4.50637h32.64925c.76258,0 1.37649.53245 1.37649,1.19384l2.40133,34.1687 .01246,2.34762c0,.66139-.61391,1.19384-1.37649,1.19384h-37.47683c-.76258,0-1.37649-.53245-1.37649-1.19384l-.01117-2.16692 2.42496-34.3494c0-.66139.61392-1.19384 1.37649-1.19384z" fill="url(#linearGradient2861)" fill-rule="evenodd" stroke="url(#linearGradient2879)"/>
<path d="m43.125,40.4375a19.5625,6.8125 0 1,1 -39.125,0 19.5625,6.8125 0 1,1 39.125,0z" fill="url(#radialGradient3010)" fill-rule="evenodd" opacity=".31579" transform="matrix(.61661,0,0,.44037,10.61425,13.94266)"/>
<path d="m4.65642,39.86827h37.68932a.67938,.67938 0 0,1 .67938.67938v1.71274a.67938,.67938 0 0,1 -.67938.67938h-37.68932a.67938,.67938 0 0,1 -.67938-.67938v-1.71274a.67938,.67938 0 0,1 .67938-.67938" fill="#a4a4a4" fill-rule="evenodd"/>
<path d="m3.92675,40.4428c0,0 .15086-.53033.70402-.57452h37.5646c.75431,0 .8046.7513.8046.7513s.0236-1.61957-1.28387-1.61957h-36.41188c-1.00575.08839-1.37747.77988-1.37747,1.4428z" fill="#fff" fill-rule="evenodd"/>
<path d="m6.25,5.73437-.25,4.39063c0,0 .3125-1.125 1-1.125h33.125c.70313-.01563.73438.3125.85938.82813l-.25-3.875c-.03125-.54688-.21875-.95313-.78125-.95313h-32.89063c-.45313,0-.76563.34375-.8125.73438z" fill="url(#linearGradient2925)" fill-rule="evenodd"/>
<path d="m7.81265,5.54045h31.13234c.72204,0 1.30332-.1521 1.30332.47412l2.27367,33.00851 .10018,2.70896c0,.62623-.13934.64424-.86137.64424h-36.89874c-.41268,0-.41943-.1064-.41943-.51165l-.01058-2.67044 2.29605-33.14836c0-.62623.36253-.50537 1.08457-.50537z" fill="none" opacity=".4386" stroke="#fff"/>
<path d="m9.5,2.5a1,1 0 0,1 1,1v3a1,1 0 0,1 -1,1 1,1 0 0,1 -1-1v-3a1,1 0 0,1 1-1" fill="#fce94f" fill-rule="evenodd" stroke="#886f00"/>
<path d="m13.5,2.5a1,1 0 0,1 1,1v3a1,1 0 0,1 -1,1 1,1 0 0,1 -1-1v-3a1,1 0 0,1 1-1" fill="#fce94f" fill-rule="evenodd" stroke="#886f00"/>
<path d="m17.5,2.5a1,1 0 0,1 1,1v3a1,1 0 0,1 -1,1 1,1 0 0,1 -1-1v-3a1,1 0 0,1 1-1" fill="#fce94f" fill-rule="evenodd" stroke="#886f00"/>
<path d="m21.5,2.5a1,1 0 0,1 1,1v3a1,1 0 0,1 -1,1 1,1 0 0,1 -1-1v-3a1,1 0 0,1 1-1" fill="#fce94f" fill-rule="evenodd" stroke="#886f00"/>
<path d="m25.5,2.5a1,1 0 0,1 1,1v3a1,1 0 0,1 -1,1 1,1 0 0,1 -1-1v-3a1,1 0 0,1 1-1" fill="#fce94f" fill-rule="evenodd" stroke="#886f00"/>
<path d="m29.5,2.5a1,1 0 0,1 1,1v3a1,1 0 0,1 -1,1 1,1 0 0,1 -1-1v-3a1,1 0 0,1 1-1" fill="#fce94f" fill-rule="evenodd" stroke="#886f00"/>
<path d="m33.5,2.5a1,1 0 0,1 1,1v3a1,1 0 0,1 -1,1 1,1 0 0,1 -1-1v-3a1,1 0 0,1 1-1" fill="#fce94f" fill-rule="evenodd" stroke="#886f00"/>
<path d="m37.5,2.5a1,1 0 0,1 1,1v3a1,1 0 0,1 -1,1 1,1 0 0,1 -1-1v-3a1,1 0 0,1 1-1" fill="#fce94f" fill-rule="evenodd" stroke="#886f00"/>
<path d="m9,12h29v1h-29z" fill-rule="evenodd" opacity=".2807"/>
<path d="m9,14.98179h29v1h-29z" fill-rule="evenodd" opacity=".2807"/>
<path d="m9,18.00394h13v1h-13z" fill-rule="evenodd" opacity=".2807"/>
<path d="m9,22.98573h29v1h-29z" fill-rule="evenodd" opacity=".2807"/>
<path d="m9,26.00788h29v1h-29z" fill-rule="evenodd" opacity=".2807"/>
<path d="m9,29.03002h29v1h-29z" fill-rule="evenodd" opacity=".2807"/>
<path d="m9,32.05217h8v1h-8z" fill-rule="evenodd" opacity=".2807"/>
<path d="m17.34116,32.5 5.625-5.625 20.09375-9.75c3.25-1.25 5.1875,3.375 2.3125,5l-20.03125,9.375-8,1z" fill="#cb9022" fill-rule="evenodd" stroke="#5c410c"/>
<path d="m38.33071,20c0,0 1.4375.09375 2,1.34375 .57949,1.28776 0,2.65625 0,2.65625l5.03125-2.46875c0,0 1.45203-.88137.65625-2.84375-.78491-1.93558-2.6875-1.15625-2.6875-1.15625l-5,2.46875z" fill="url(#linearGradient2972)" fill-rule="evenodd"/>
<path d="m38.33071,20c0,0 1.4375.09375 2,1.34375 .57949,1.28776 0,2.65625 0,2.65625l2-1c0,0 .82703-1.31887.21875-2.6875-.625-1.40625-2.21875-1.3125-2.21875-1.3125l-2,1z" fill="url(#linearGradient2980)" fill-rule="evenodd"/>
<path d="m18.76821,31.78125 4.5-4.5c1.5.8125 2.28125,2.15625 1.875,3.71875l-6.375.78125z" fill="url(#radialGradient2990)" fill-rule="evenodd"/>
<path d="m20.11196,30.375-1.625,1.59375 2.34375-.3125c.21875-.71875-.1875-1.0625-.71875-1.28125z" fill="url(#linearGradient3000)" fill-rule="evenodd"/>
<path d="m23.26821,27.25 1.5625,1.25 15.38734-7.31867c-.44443-.85604-1.24177-1.0846-1.90338-1.16226l-15.04646,7.23093z" fill="#fff" fill-opacity=".36364" fill-rule="evenodd"/>
<path d="m25.14321,31.0625 .1875-.75 15.23109-7.1296c0,0-.11016.61363-.21588.74935l-15.20271,7.13025z" fill-opacity=".36364" fill-rule="evenodd"/>
</svg>
