<?xml version="1.0" encoding="UTF-8"?>
<svg viewBox="0 0 474.00412 446.67596" xmlns="http://www.w3.org/2000/svg" xmlns:xlink="http://www.w3.org/1999/xlink">
 <defs>
  <linearGradient id="a">
   <stop stop-color="#ffb142" offset="0"/>
   <stop stop-color="#c87600" offset="1"/>
  </linearGradient>
  <linearGradient id="h" x1="347.48" x2="355.97" gradientUnits="userSpaceOnUse" xlink:href="#a"/>
  <linearGradient id="g" x1="186.21" x2="186.21" y1="354.02" y2="362.28" gradientUnits="userSpaceOnUse" xlink:href="#a"/>
  <linearGradient id="f" x1="195.75" x2="195.75" y1="354.02" y2="362.28" gradientUnits="userSpaceOnUse" xlink:href="#a"/>
  <linearGradient id="e" x1="176.39" x2="176.39" y1="354.02" y2="362.28" gradientUnits="userSpaceOnUse" xlink:href="#a"/>
  <linearGradient id="d" x1="229.44" x2="229.44" y1="354.02" y2="362.28" gradientUnits="userSpaceOnUse" xlink:href="#a"/>
  <linearGradient id="c" x1="238.98" x2="238.98" y1="354.02" y2="362.28" gradientUnits="userSpaceOnUse" xlink:href="#a"/>
  <linearGradient id="b" x1="219.61" x2="219.61" y1="354.02" y2="362.28" gradientUnits="userSpaceOnUse" xlink:href="#a"/>
  <pattern id="i" width="2" height="1" patternTransform="matrix(0 4.4721 -4.4721 0 -50.004 -3.0322e-6)" patternUnits="userSpaceOnUse">
   <path d="m0-.5h1v2h-1z"/>
  </pattern>
 </defs>
 <g transform="translate(-112.17 -366.2)">
  <path d="m122.97 810.83 9.8995-18.385c-19.799-57.983 0-95.459 0-95.459l-9.8995 18.385s-19.799 37.477 0 95.459z" fill="#400000" fill-rule="evenodd" stroke="#000" stroke-linecap="round" stroke-linejoin="round" stroke-width="4"/>
  <path d="m123.18 810.88h461l-131.84-228.36h-197.16l-132 228.36z" fill="#800000" fill-rule="evenodd" stroke="#000" stroke-linejoin="round" stroke-width="4"/>
  <path transform="translate(112.17 366.2)" d="m143 216.31-128.53 222.38h441.53l-128.38-222.38h-184.62z" fill-opacity=".31373" fill-rule="evenodd"/>
  <path d="m132.87 793.15c-19.799-57.983 0-95.459 0-95.459l421.79 0.35356v95.106l-421.79-3e-5z" fill="#fff" fill-rule="evenodd" stroke="#000" stroke-linecap="round" stroke-width="4"/>
  <path d="m132.87 793.15c-19.799-57.983 0-95.459 0-95.459l421.79 0.35356v95.106l-421.79-3e-5z" fill="url(#i)" fill-rule="evenodd" opacity=".19298" stroke="#000" stroke-linecap="round" stroke-width="4"/>
  <path d="m123.18 714.83h461l-131.84-228.36h-197.16l-132 228.36z" fill="#800000" fill-rule="evenodd" stroke="#000" stroke-linejoin="round" stroke-width="4"/>
  <path transform="matrix(1 0 0 .28125 25 510.01)" d="m516.84 534.27a165.56 165.56 0 1 1 -331.13 0 165.56 165.56 0 1 1 331.13 0z" fill-opacity=".31373"/>
  <path transform="matrix(1.7812 0 0 1.7055 -35.009 108.11)" d="m214 353.13a8 13.5 0 1 1 -16 0 8 13.5 0 1 1 16 0z" fill="url(#b)" stroke="#000" stroke-linecap="round" stroke-linejoin="round" stroke-width="2.8687"/>
  <path transform="matrix(1.7812 0 0 1.7055 -69.509 108.11)" d="m214 353.13a8 13.5 0 1 1 -16 0 8 13.5 0 1 1 16 0z" fill="url(#c)" stroke="#000" stroke-linecap="round" stroke-linejoin="round" stroke-width="2.8687"/>
  <path transform="matrix(1.7812 0 0 1.7055 -52.509 108.11)" d="m214 353.13a8 13.5 0 1 1 -16 0 8 13.5 0 1 1 16 0z" fill="url(#d)" stroke="#000" stroke-linecap="round" stroke-linejoin="round" stroke-width="2.8687"/>
  <path transform="matrix(1.7812 0 0 1.7055 41.991 108.11)" d="m214 353.13a8 13.5 0 1 1 -16 0 8 13.5 0 1 1 16 0z" fill="url(#e)" stroke="#000" stroke-linecap="round" stroke-linejoin="round" stroke-width="2.8687"/>
  <path transform="matrix(1.7812 0 0 1.7055 7.4913 108.11)" d="m214 353.13a8 13.5 0 1 1 -16 0 8 13.5 0 1 1 16 0z" fill="url(#f)" stroke="#000" stroke-linecap="round" stroke-linejoin="round" stroke-width="2.8687"/>
  <path transform="matrix(1.7812 0 0 1.7055 24.491 108.11)" d="m214 353.13a8 13.5 0 1 1 -16 0 8 13.5 0 1 1 16 0z" fill="url(#g)" stroke="#000" stroke-linecap="round" stroke-linejoin="round" stroke-width="2.8687"/>
  <path transform="translate(162.18 366.2)" d="m135.25 321.12c-5.8064 0-10.78 5.6304-13 13.688 18.971 5.0743 39.814 8.0342 61.719 8.4375-0.29837-12.285-6.5429-22.125-14.219-22.125-3.3009 0-6.3333 1.8275-8.75 4.875-2.4167-3.0475-5.4491-4.875-8.75-4.875-3.1858 0-6.1261 1.7048-8.5 4.5625-2.3739-2.8577-5.3142-4.5625-8.5-4.5625zm77 0c-7.6562 0-13.891 9.7905-14.219 22.031 21.881-0.70434 42.616-3.9836 61.438-9.3438-2.3472-7.5156-7.1571-12.687-12.719-12.688-3.3009 0-6.3333 1.8275-8.75 4.875-2.4167-3.0475-5.4491-4.875-8.75-4.875-3.1858 0-6.1261 1.7048-8.5 4.5625-2.3739-2.8577-5.3142-4.5625-8.5-4.5625z" fill-opacity=".31373"/>
  <path d="m516.84 534.27a165.56 165.56 0 1 1 -331.13 0 165.56 165.56 0 1 1 331.13 0z" fill="#784421" stroke="#000" stroke-linecap="round" stroke-width="5"/>
  <path transform="matrix(1.1333 0 0 1.1333 -41.339 -43.746)" d="m418.63 583.05c-23.382-4.3443-1.983 19.086-5.5683 27.558-14.174-6.9692-8.773 16.103-15.182 22.512-12.145-0.6495-14.04 11.597-22.512 15.182-10.237-5.6794-17.785 5.5683-27.558 5.5683s-15.557-10.807-27.558-5.5683c-8.472-3.5853-10.368-15.391-22.512-15.182-6.4093-6.4093-5.4205-30.805-15.182-22.512-3.5853-8.472 12.961-33.667-5.5683-27.558 0-9.7733 19.63-27.91 5.5683-27.558 3.5853-8.472 21.567-14.779 15.182-22.512 12.819-12.819 30.524-20.751 50.071-20.751s37.252 7.932 50.071 20.751c-9.473 4.6446 11.597 14.04 15.182 22.512-15.826-0.79272 5.5683 17.785 5.5683 27.558z" fill="#fff" stroke="#000" stroke-linecap="round" stroke-linejoin="round" stroke-width="4.4118"/>
  <path transform="translate(162.18 366.2)" d="m335.38 90.5c1.9806 10.232 3.0312 20.785 3.0312 31.594 0 3.7299-0.13179 7.4251-0.375 11.094-3.6726-0.18281-7.5783 0.01904-11.75 0.625-35.215 7.4986-20.173 51.664-29.344 97.875-30.342 34.329-74.709 55.969-124.09 55.969-30.373 0-58.832-8.2073-83.312-22.5-23.679-55.443 8.0762-115.66-33.656-126.06-46.11-8.3254-63.97 34.456-34.156 98.562 16.461 35.394 43.723 52.78 63.781 59.531 28.363 22.8 64.392 36.438 103.59 36.438 45.95 0 87.557-18.739 117.56-49 17.454-8.7175 36.862-24.595 50.344-51.156 25.212-49.671 20.385-87.078-5.4688-97.438-3.1699-16.136-8.666-31.442-16.156-45.531z" fill-opacity=".31373" fill-rule="evenodd"/>
  <path d="m217.92 497.25c48.111 17.3-14.163 94.143 37.819 161.19 9.6084 12.393-57.868 2.0908-81.723-66.585-23.198-66.786-1.1324-107.54 43.904-94.607z" fill="#784421" fill-rule="evenodd" stroke="#000" stroke-width="5"/>
  <path d="m484.36 497.25c-48.111 17.3 14.163 94.143-37.819 161.19-9.6084 12.393 57.868 2.0908 81.723-66.585 23.198-66.786 1.1324-107.54-43.904-94.607z" fill="#784421" fill-rule="evenodd" stroke="#000" stroke-width="5"/>
  <path d="m466.68 488.2c13.389-4.609 27.221 7.5838 29.865 14.18-13.512-3.4523-19.72-4.4258-23.218-1.3807 1.5067 3.3714 17.408 6.7419 22.337 28.871-12.429-8.6166-22.304-18.576-26.272-14.483 2.8816 5.0338 6.1995 14.497 3.9636 23.881-7.1415-9.4244-14.439-19.378-21.142-19.648" fill="#784421" fill-rule="evenodd" stroke="#000" stroke-linecap="round" stroke-linejoin="round" stroke-width="5"/>
  <path d="m305.32 406.47c-31.234 0-56.603 29.331-56.603 65.472s25.369 65.472 56.603 65.472c18.356 0 34.644-10.141 44.985-25.829 10.34 15.7 26.664 25.829 45.027 25.829 31.234 0 56.603-29.331 56.603-65.472s-25.369-65.472-56.603-65.472c-18.361 0-34.687 10.133-45.027 25.829-10.341-15.685-26.631-25.829-44.985-25.829z" fill="#fff" stroke="#000" stroke-linecap="round" stroke-width="5"/>
  <path d="m352.02 517.37c-9.288 0-19.384 10.327-18.98 16.85s16.557 33.699 20.191 33.699 17.768-26.633 17.365-34.243-12.519-16.85-18.576-16.306z" fill-opacity=".31373" fill-rule="evenodd"/>
  <path d="m349.9 506.77c-9.288 0-19.384 9.3062-18.98 15.184s16.557 30.368 20.191 30.368 17.768-24 17.365-30.857-12.519-15.184-18.576-14.694z" fill="url(#h)" fill-rule="evenodd" stroke="#000" stroke-width="5"/>
  <path transform="matrix(1.5776 0 0 1.5776 -190.57 -292.52)" d="m340.57 487.37a10.387 10.387 0 1 1 -20.774 0 10.387 10.387 0 1 1 20.774 0z" stroke="#000" stroke-linecap="round" stroke-width="3.1693"/>
  <path d="m235.32 488.2c-13.389-4.609-27.221 7.5838-29.865 14.18 13.512-3.4523 19.72-4.4258 23.218-1.3807-1.5067 3.3714-17.408 6.7419-22.337 28.871 12.429-8.6166 22.304-18.576 26.272-14.483-2.8816 5.0338-6.1995 14.497-3.9636 23.881 7.1415-9.4244 14.439-19.378 21.142-19.648" fill="#784421" fill-rule="evenodd" stroke="#000" stroke-linecap="round" stroke-linejoin="round" stroke-width="5"/>
  <path d="m364.15 417.48c13.276-32.16 35.666-36.513 35.666-36.513s-12.453 16.775-1.174 12.109c17.465-7.2259 72.997 15.418 72.997 15.418s-73.574-17.126-107.49 8.9862z" fill="#fff" fill-rule="evenodd" stroke="#000" stroke-linejoin="round" stroke-width="5"/>
  <path d="m333.71 414.48c-13.276-32.16-35.666-36.513-35.666-36.513s12.453 16.775 1.174 12.109c-17.465-7.2259-72.997 15.418-72.997 15.418s73.574-17.126 107.49 8.9862z" fill="#fff" fill-rule="evenodd" stroke="#000" stroke-linejoin="round" stroke-width="5"/>
  <path transform="matrix(1.5776 0 0 1.5776 -149.07 -292.52)" d="m340.57 487.37a10.387 10.387 0 1 1 -20.774 0 10.387 10.387 0 1 1 20.774 0z" stroke="#000" stroke-linecap="round" stroke-width="3.1693"/>
  <path transform="matrix(.80952 0 0 .80952 159.08 385.28)" d="m209.5 105.43a5.25 5.25 0 1 1 -10.5 0 5.25 5.25 0 1 1 10.5 0z" fill="#fff"/>
  <path transform="matrix(.80952 0 0 .80952 200.58 385.28)" d="m209.5 105.43a5.25 5.25 0 1 1 -10.5 0 5.25 5.25 0 1 1 10.5 0z" fill="#fff"/>
  <path transform="translate(162.18 366.2)" d="m337.94 128.66c-0.41261-6e-4 -0.83163 0.02054-1.25 0.03125 16.212 13.065 23.073 43.297 14.781 85.344-11.023 55.895-53.577 80.008-67.719 81.281 4.5921 6.5264 60.971-8.1258 82.344-69.656 20.299-58.438 5.9208-96.95-28.156-97z" fill-opacity=".31373" fill-rule="evenodd"/>
  <path transform="translate(162.18 366.2)" d="m4.0625 160.84c-3.4518 16.506-1.2985 38.673 7.7812 64.812 23.855 68.676 91.327 78.987 81.719 66.594-4.1089-5.2998-7.5204-10.675-10.312-16.062-18.952-4.5414-54.048-24.376-69.906-70.031-5.8796-16.927-8.8539-32.18-9.2812-45.312zm71.281 6.3438c-0.88285 8.5361-1.8562 17.612-2.2812 27.125 0.99329-9.7906 2.0794-18.941 2.2812-27.125z" fill-opacity=".31373" fill-rule="evenodd"/>
  <path d="m233.11 756.38h-56.5s-12.827 5.5333 10.578 34.583c-0.10393-19.367 14.853-20.75 14.853-20.75s19.604 19.367 40.863 27.667c-25.535-33.2-7.7294-39.425-9.7941-41.5z" fill-opacity=".31373" fill-rule="evenodd"/>
  <path d="m231.76 756.88h-56.5s-17 4-15.5 25c14.5-14 30.5-15 30.5-15s5 14 20 20c-0.5-24 22-28.5 21.5-30z" fill="#000080" fill-rule="evenodd" stroke="#000" stroke-linejoin="round" stroke-width="4"/>
 </g>
</svg>
