<?xml version="1.0" encoding="UTF-8"?>
<svg viewBox="0 0 377.92 369.68" xmlns="http://www.w3.org/2000/svg">
 <defs>
  <linearGradient id="a" x1=".44092" x2=".66687" y1=".63458" y2=".63458">
   <stop stop-color="#ffb142" offset="0"/>
   <stop stop-color="#c87600" offset="1"/>
  </linearGradient>
 </defs>
 <g stroke-width="5">
  <path d="m143.14 40.264c-31.234 0-56.603 29.331-56.603 65.472 0 36.14 25.369 65.472 56.603 65.472 18.356 0 34.644-10.141 44.985-25.829 10.34 15.7 26.664 25.829 45.027 25.829 31.234 0 56.603-29.331 56.603-65.472 0-36.14-25.369-65.472-56.603-65.472-18.361 0-34.688 10.133-45.027 25.83-10.341-15.685-26.631-25.83-44.985-25.83z" fill="#fff" stroke="#000" stroke-linecap="round"/>
  <g fill-rule="evenodd">
   <path d="m189.84 151.17c-9.288 0-19.384 10.327-18.98 16.85 0.40381 6.5225 16.557 33.699 20.191 33.699 3.6344 0 17.768-26.633 17.364-34.243-0.40384-7.6096-12.519-16.85-18.576-16.306z" fill-opacity=".314"/>
   <path d="m187.72 140.56c-9.288 0-19.384 9.3062-18.98 15.184 0.40384 5.8776 16.557 30.368 20.191 30.368 3.6344 0 17.768-24 17.364-30.857-0.40381-6.8572-12.519-15.184-18.576-14.694z" fill="url(#a)" stroke="#000"/>
  </g>
 </g>
 <g stroke="#000">
  <path d="m184.55 110.16a16.387 16.387 0 1 1 -32.774 0 16.387 16.387 0 1 1 32.774 0z" stroke-linecap="round" stroke-width="3.169"/>
  <g fill="#fff" fill-rule="evenodd" stroke-linejoin="round" stroke-width="5">
   <path d="m201.97 51.283c13.276-32.16 35.666-36.513 35.666-36.513s-12.453 16.775-1.174 12.109c17.465-7.2259 72.997 15.418 72.997 15.418s-73.574-17.126-107.49 8.9862z"/>
   <path d="m171.53 48.283c-13.276-32.16-35.666-36.513-35.666-36.513s12.453 16.775 1.174 12.109c-17.465-7.2259-72.997 15.418-72.997 15.418s73.574-17.126 107.49 8.9862z"/>
  </g>
  <path d="m226.05 110.16a16.387 16.387 0 1 1 -32.774 0 16.387 16.387 0 1 1 32.774 0z" stroke-linecap="round" stroke-width="3.169"/>
 </g>
 <g fill="#fff" stroke-linejoin="round" stroke-width="5">
  <path d="m166.5 104.43a4.25 4.25 0 1 1 -8.5 0 4.25 4.25 0 1 1 8.5 0z"/>
  <path d="m208 104.43a4.25 4.25 0 1 1 -8.5 0 4.25 4.25 0 1 1 8.5 0z"/>
 </g>
</svg>
