<?xml version="1.0" encoding="UTF-8" standalone="no"?>
<svg viewBox="0 0 320.66434 320.8125" xmlns="http://www.w3.org/2000/svg">
<g transform="translate(291.75809,-194.8125)">
<path d="m-237.07177,196.68982c-29.16105,0-52.81223,23.66224-52.81223,52.85567v211.36642c0,29.17468 23.65118,52.83692 52.81223,52.83692h211.26765c29.17979,0 52.83097-23.66224 52.83097-52.83692v-211.36642c0-29.19343-23.65118-52.85567-52.83097-52.85567z" fill="#fff" stroke="#000" stroke-linecap="round" stroke-linejoin="round" stroke-width="3.748"/><text font-family="Times New Roman" font-size="14.99283" x="-291.75809" xml:space="preserve" y="208.38969"> </text>
<path d="m-59.06945,387.69397c1.57576-9.19472-6.44289-14.18592-12.98753-14.43734-122.36182-27.18693-98.85259,96.21221-162.61594,110.18316 128.53335,5.96844 169.98447,1.17381 175.60347-95.74582z" fill="none" stroke="#000" stroke-linecap="round" stroke-linejoin="round" stroke-width="3.748"/>
<path d="m26.33343,371.88789c-21.58731,6.73285-45.59828,12.42165-80.39902,13.61235 2.06462-7.9977-5.0609-15.91296-14.37437-16.55607 26.84179-45.90841 56.48837-86.09831 92.95551-114.31749" fill="none" stroke="#000" stroke-linecap="round" stroke-linejoin="round" stroke-width="3.748"/>
<path d="m12.89611,215.57086-146.10508,118.1237-146.81724,51.80568 87.83921-120.24243 84.14724-67.68675" fill="none" stroke="#000" stroke-linecap="round" stroke-linejoin="round" stroke-width="3.748"/>
<path d="m-131.78465,332.25083 35.98278-39.61832-47.86354,21.96669 35.28937-39.24642-46.39449,21.59219 31.32033-40.30048-48.59232,20.15781 33.47767-38.55625-48.62766,22.69931" fill="none" stroke="#000" stroke-linecap="round" stroke-linejoin="round" stroke-width="3.748"/>
<path d="m-241.85073,333.69456c10.07485,3.25901 22.37558,18.38861 23.73551,30.18717" fill="none" stroke="#000" stroke-linecap="round" stroke-linejoin="round" stroke-width="3.748"/>
</g>
</svg>
