<?xml version="1.0" encoding="UTF-8" standalone="no"?>
<!DOCTYPE svg PUBLIC "-//W3C//DTD SVG 20010904//EN" "http://www.w3.org/TR/2001/REC-SVG-20010904/DTD/svg10.dtd">
<svg viewBox="0 0 87.5 87.5" xmlns="http://www.w3.org/2000/svg" xmlns:xlink="http://www.w3.org/1999/xlink">
<defs>
<linearGradient id="linearGradient21044">
<stop offset="0" stop-color="#fff" stop-opacity="0"/>
<stop offset="1" stop-color="#fff"/>
</linearGradient>
<linearGradient id="linearGradient20965" x1=".71875" x2=".32308" xlink:href="#linearGradient21044" y1=".71875" y2=".26563"/>
<linearGradient id="linearGradient21035" x1=".99206" x2=".16837" xlink:href="#linearGradient21044" y1=".75781" y2=".10938"/>
<radialGradient id="radialGradient21017">
<stop offset="0"/>
<stop offset="1" stop-opacity="0"/>
</radialGradient>
</defs>
<g transform="translate(.3125,-1.25)">
<path d="m80.03831,139.98171a75.32664,60.56669 0 1,1 -.43817.43657l58.838,37.81783z" fill="url(#radialGradient21017)" fill-rule="evenodd" transform="matrix(.47691,0,0,.26705,-23.63522,21.65749)"/>
<path d="m56.96445,9.6436c-4.26126-2.87018-10.97678-3.15873-13.87688,1.33648-3.63208,5.80236-3.43649,13.61754-8.29887,18.6904-5.96899,6.87741-15.12725,10.32209-20.12576,18.16483-3.43634,4.70221-5.80694,11.34109-2.87267,17.17535 3.23461,6.34728 10.01591,9.62375 16.21892,12.14535 9.55652,3.54317 20.64077,2.11737 28.23478-4.20087 10.32487-7.89991 16.91837-20.42432 17.97869-33.69129 .21742-6.94773-1.69861-14.1926-5.81624-20.03306-3.25622-3.80055-7.05412-7.20793-11.44198-9.58718z" fill="#e6c5a2" fill-rule="evenodd"/>
<path d="m61.39097,12.64734c-1.48206-1.14789-3.04619-2.18384-4.69163-3.07607-4.26126-2.87018-10.97614-3.15871-13.87624,1.33649-3.63207,5.80236-3.43432,13.61813-8.29671,18.691-5.969,6.87741-15.12893,10.32228-20.12744,18.16501-3.43633,4.70221-5.8096,11.34022-2.87533,17.17448 3.23461,6.34728 10.01771,9.62329 16.22072,12.14489 9.55652,3.54317 20.64161,2.11831 28.23562-4.19993 10.32486-7.8999 16.91824-20.42372 17.97857-33.69069 .21742-6.94773-1.70039-14.19403-5.81802-20.0345-2.03514-2.37534-4.27942-4.59752-6.74954-6.51067zm-1.35756.88401c1.94039,1.49402 3.7765,3.12709 5.4253,4.95078 4.23141,4.99058 6.29342,11.54785 6.40398,17.89558-.20027,12.0273-5.73019,23.42002-14.27748,31.28497-5.54421,5.74449-13.80132,8.68159-21.94535,7.75474-4.83096-.62674-9.5136-2.50742-13.77423-5.00159-3.77343-2.20236-7.51227-5.5153-8.41911-9.97812-.72532-4.61787 1.288-9.04165 3.89748-12.55482 5.27257-7.04253 13.48801-10.92406 19.38508-17.33408 3.79673-4.03707 4.91198-9.73357 6.83622-14.82576 .84618-2.44657 1.87069-5.30379 4.52555-6.19702 3.39876-1.16536 7.07109.56622 9.96693,2.55502 .66699.46883 1.32882.9523 1.97561,1.45031z" fill="#ae7172" fill-opacity=".29375" fill-rule="evenodd"/>
<path d="m59.79203,13.40748c-2.76904-2.28125-6.03404-4.29577-9.63433-4.34139-2.53919-.13675-5.05723,1.09509-6.22612,3.34907-2.32359,3.55945-3.12169,7.90325-5.02996,11.69211-1.97494,4.41935-5.22967,8.09047-8.99211,11.01798-5.13378,4.50703-10.71612,8.65867-14.74635,14.27064-2.26022,3.4518-3.40412,7.85535-2.52734,12.08926 .79981,3.33237 3.24146,6.04399 5.92329,8.08318 2.20335-1.46288 3.73422-3.69794 5.63519-5.49434 6.58637-6.96625 13.94521-13.21996 22.15451-18.20597 7.88644-4.96976 16.44129-8.837 25.20332-12.11079-.80656-7.94553-5.1481-15.63008-11.76011-20.34977z" fill="url(#linearGradient20965)" fill-rule="evenodd"/>
<path d="m52.21916,17.61338c10.42923-.84639 10.96868,7.27897 4.85499,9.64887-12.40719,1.01567-12.04756-6.94042-4.85499-9.64887z" fill="#ffb300" fill-opacity=".75" fill-rule="evenodd"/>
<path d="m52.27608,17.7083c-7.19258,2.70846-7.54468,10.67287 4.86252,9.6572 6.11368-2.36989 5.5667-10.50359-4.86252-9.6572zm2.18999.49696c2.43309-.20476 6.33863,1.79921 5.07287,4.90247-1.84188,4.33372-7.16055,3.07638-10.46742,1.79981-2.89771-2.42489.4691-6.22252 3.09321-6.63513 .76604.00094 1.53765-.13942 2.30135-.06715z" fill-opacity=".21875" fill-rule="evenodd"/>
<path d="m60.22612,32.12546c10.58129-.81066 11.1286,6.9716 4.92578,9.24143-12.58808.97279-12.22321-6.64734-4.92578-9.24143z" fill="#ff8000" fill-opacity=".75" fill-rule="evenodd"/>
<path d="m60.28387,32.21637c-7.29744,2.59408-7.65467,10.22219 4.93341,9.24941 6.20282-2.26983 5.64787-10.06006-4.93341-9.24941zm2.22192.47597c2.46856-.19611 6.43103,1.72324 5.14682,4.69546-1.86872,4.15072-7.26494,2.94648-10.62003,1.72381-2.93996-2.3225.47593-5.95975 3.13831-6.35495 .7772.00091 1.56007-.13353 2.3349-.06432z" fill-opacity=".21875" fill-rule="evenodd"/>
<path d="m55.34907,46.44618c11.72169-.84639 12.32798,7.27897 5.45665,9.64887-13.94478,1.01567-13.54058-6.94042-5.45665-9.64887z" fill="#ff3a00" fill-opacity=".75" fill-rule="evenodd"/>
<path d="m55.41304,46.54109c-8.08393,2.70846-8.47966,10.67287 5.46512,9.6572 6.87133-2.3699 6.25657-10.50359-5.46512-9.6572zm2.46138.49696c2.73462-.20477 7.12415,1.79921 5.70153,4.90247-2.07013,4.33372-8.04793,3.07639-11.76462,1.79981-3.25681-2.42489.52723-6.22251 3.47654-6.63513 .86097.00095 1.72821-.13942 2.58654-.06716z" fill-opacity=".21875" fill-rule="evenodd"/>
<path d="m43.92705,57.27095c11.11348-.94468 11.68831,8.12423 5.17352,10.76933-13.22121,1.13361-12.83798-7.74636-5.17352-10.76933z" fill="#23b300" fill-opacity=".75" fill-rule="evenodd"/>
<path d="m43.9877,57.37689c-7.66446,3.02298-8.03966,11.91224 5.18155,10.77863 6.5148-2.6451 5.93193-11.72331-5.18155-10.77863zm2.33367.55468c2.59272-.22854 6.75449,2.00814 5.40569,5.47176-1.96271,4.83696-7.63033,3.43362-11.15416,2.00882-3.08783-2.70649.49987-6.9451 3.29615-7.40562 .8163.00106 1.63854-.15561 2.45233-.07496z" fill-opacity=".21875" fill-rule="evenodd"/>
<path d="m25.81299,60.12143c10.73334-.96255 11.28851,8.27791 4.99656,10.97305-12.76898,1.15506-12.39887-7.8929-4.99656-10.97305z" fill="#0002ff" fill-opacity=".75" fill-rule="evenodd"/>
<path d="m25.87157,60.22937c-7.40231,3.08016-7.76467,12.13758 5.00431,10.98252 6.29196-2.69513 5.72903-11.94507-5.00431-10.98252zm2.25385.56516c2.50404-.23286 6.52345,2.04613 5.22078,5.57527-1.89558,4.92845-7.36934,3.49858-10.77265,2.04681-2.9822-2.75768.48277-7.07646 3.18341-7.54571 .78837.00108 1.58249-.15856 2.36845-.07637z" fill-opacity=".21875" fill-rule="evenodd"/>
<path d="m23.89736,62.34405c-2.17207,1.28174-3.45454,5.48445-.5082,6.68013 4.32981,1.12326 5.49463-2.81659 4.71053-7.90042-1.58484-.33357-2.84479.28712-4.20233,1.22029z" fill="url(#linearGradient21035)" fill-rule="evenodd"/>
<path d="m42.22603,59.20507c-2.249,1.25795-3.57689,5.38263-.5262,6.55612 4.48316,1.1024 5.68923-2.7643 4.87736-7.75375-1.64097-.32737-2.94554.2818-4.35116,1.19763z" fill="url(#linearGradient21035)" fill-rule="evenodd"/>
<path d="m53.4166,48.10926c-2.37208,1.12707-3.77265,4.82262-.555,5.874 4.72851.98771 6.00059-2.4767 5.14429-6.94703-1.73078-.29331-3.10674.25247-4.58929,1.07303z" fill="url(#linearGradient21035)" fill-rule="evenodd"/>
<path d="m58.4029,33.97116c-2.1413,1.07947-3.4056,4.61897-.501,5.62597 4.26848.946 5.41679-2.37212 4.6438-6.65368-1.56239-.28092-2.80449.24181-4.1428,1.02771z" fill="url(#linearGradient21035)" fill-rule="evenodd"/>
<path d="m50.22575,18.98248c-2.11053,1.12706-3.35666,4.82261-.4938,5.87401 4.20713.98771 5.33895-2.4767 4.57707-6.94703-1.53994-.29331-2.76419.25248-4.08327,1.07303z" fill="url(#linearGradient21035)" fill-rule="evenodd"/>
</g>
</svg>
