<?xml version="1.0" encoding="UTF-8" standalone="no"?>
<svg viewBox="0 0 87.179329 156.94873" xmlns="http://www.w3.org/2000/svg">
<defs>
<filter height="1.12421" id="filter3644" width="1.25949" x="-.12975" y="-.0621">
<feGaussianBlur stdDeviation="2.01226"/>
</filter>
<filter height="1.15969" id="filter3658" width="1.33363" x="-.16682" y="-.07985">
<feGaussianBlur stdDeviation="2.5872"/>
</filter>
<filter height="1.24915" id="filter3710" width="1.28073" x="-.14037" y="-.12457">
<feGaussianBlur stdDeviation="1.48969"/>
</filter>
<filter height="1.1728" id="filter3760" width="1.864" x="-.432" y="-.0864">
<feGaussianBlur stdDeviation="1.22691"/>
</filter>
<filter height="2.00637" id="filter3938" width="1.88749" x="-.44375" y="-.50318">
<feGaussianBlur stdDeviation="1.61991"/>
</filter>
</defs>
<g transform="translate(-65.72835,-831.54449)">
<path d="m111.02228,847.78813-42.2168,94.57777-2.3872,38.77179c-.36254,5.88814 5.65272,8.41289 9.81467,4.29321l27.46299-27.18405 42.83093-94.6789c6.1564-13.60889 4.87404-25.18152-8.3711-30.13482-11.05728-4.13509-21.19722,1.05605-27.13349,14.355z" fill="#ffb380" stroke="#000"/>
<path d="m111.02228,847.78813 35.50459,15.77982c6.1564-13.60889 4.87404-25.18152-8.3711-30.13482-11.05728-4.13509-21.19722,1.05605-27.13349,14.355z" fill="#a05a2c" stroke="#000"/>
<path d="m111.02228,847.78813-42.2168,94.57777c6.78996-4.05939 9.96496-1.49135 11.19462,4.64314 4.94876-7.63911 15.37357-2.5066 14.69019,6.73097 4.74314-2.32849 7.39678-.12971 9.00566,4.50684l42.83093-94.6789c-7.32968-10.7753-25.00371-17.41223-35.50459-15.77982z" fill="#d45500" stroke="#000"/>
<path d="m67.15661,973.18701-.73833,7.95068c-.54548,5.87402 5.61766,8.37717 9.81467,4.29321l5.64723-5.49512c-4.11303-4.15718-8.92063-6.64738-14.72357-6.74877z" fill="#483e37" stroke="#000"/>
<path d="m117.66865,855.76944c-3.9462-1.79373-9.68614,7.53366-21.16601,33.72211s-17.93729,42.33201-14.70858,43.767 14.70858-22.60099 21.8835-38.38581 16.86106-38.38581 13.99109-39.1033z" fill="#f95" filter="url(#filter3658)" opacity=".87218"/>
<path d="m139.66865,867.76944c-3.9462-1.79373-9.68614,7.53366-21.16601,33.72211s-17.93729,42.33201-14.70858,43.767 14.70858-22.60099 21.8835-38.38581 16.86106-38.38581 13.99109-39.1033z" fill="#800000" filter="url(#filter3644)" opacity=".6391" transform="matrix(1.23722,0,0,1.2593,-26.50828,-240.27316)"/>
<path d="m100.0901,956.21828-25.47096,28.69968 9.68614-20.08977 15.78482-8.60991z" fill="#ff7f2a" filter="url(#filter3710)" opacity=".81"/>
<path d="m72.2604,943.30344-3.58746,34.08086 5.73993-13.2736 1.07624-13.63235-3.22871-7.17491z" fill="#fff" filter="url(#filter3760)" opacity=".89"/>
<path d="m129.37254,844.6051c0,2.66188-1.47645,4.81976-3.29773,4.81976s-3.29774-2.15788-3.29774-4.81976 1.47645-4.81976 3.29774-4.81976 3.29773,2.15788 3.29773,4.81976z" fill="#fff" filter="url(#filter3938)" opacity=".59" transform="matrix(.57247,.81992,-.81992,.57247,745.10185,255.24456)"/>
</g>
</svg>
