<?xml version="1.0" encoding="UTF-8" standalone="no"?>
<svg viewBox="0 0 71.451332 37.22654" xmlns="http://www.w3.org/2000/svg">
<defs>
<linearGradient gradientUnits="userSpaceOnUse" id="linearGradient3449" x1="37.2679" x2="37.23382" y1="1.9024" y2="13.04299">
<stop offset="0" stop-color="#fff"/>
<stop offset="1" stop-color="#fff" stop-opacity="0"/>
</linearGradient>
</defs>
<path d="m6,1.00001h59.45133a5,5 0 0,1 5,5v25.22652a5,5 0 0,1 -5,5h-59.45133a5,5 0 0,1 -5-5v-25.22652a5,5 0 0,1 5-5" fill="#e7e7e7"/>
<path d="m6,1.00001h59.45134c2.77,0 5,2.23 5,5v25.22652c0,2.77-2.23,5-5,5h-59.45134c-2.77,0-5-2.23-5-5v-25.22652c0-2.77 2.23-5 5-5zm57.39142.47216v34.28221m-6.91644-34.28221v34.28221m-6.91643-34.28221v34.28221m-6.91643-34.28221v34.28221m-6.91645-34.28221v34.28221m-6.91642-34.28221v34.28221m-6.91644-34.28221v34.28221m-6.91643-34.28221v34.28221m-6.91643-34.28221v34.28221" fill="#dc9c00"/>
<g transform="translate(2.80663,65.10103)">
<path d="m44.67373,73.97697h3.09515a.45895,.45907 0 0,1 .45895.45907v3.09595a.45895,.45907 0 0,1 -.45895.45907h-3.09515a.45895,.45907 0 0,1 -.45895-.45907v-3.09595a.45895,.45907 0 0,1 .45895-.45907" fill="#00c817" transform="scale(1,-1)"/>
<path d="m39.01109,74.20068h2.75042a.40783,.4079 0 0,1 .40783.4079v2.75088a.40783,.4079 0 0,1 -.40783.4079h-2.75042a.40783,.4079 0 0,1 -.40783-.4079v-2.75088a.40783,.4079 0 0,1 .40783-.4079" fill="#16c800" transform="scale(1,-1)"/>
<path d="m33.79543,74.42436h2.40568a.35671,.35674 0 0,1 .35671.35674v2.40583a.35671,.35674 0 0,1 -.35671.35674h-2.40568a.35671,.35674 0 0,1 -.35671-.35674v-2.40583a.35671,.35674 0 0,1 .35671-.35674" fill="#4ad200" transform="scale(1,-1)"/>
<path d="m29.02756,74.64831h2.06023a.30549,.30551 0 0,1 .30549.30551v2.06037a.30549,.30551 0 0,1 -.30549.30551h-2.06023a.30549,.30551 0 0,1 -.30549-.30551v-2.06037a.30549,.30551 0 0,1 .30549-.30551" fill="#7cd200" transform="scale(1,-1)"/>
<path d="m24.70757,74.87227h1.71479a.25427,.25429 0 0,1 .25427.25429v1.71492a.25427,.25429 0 0,1 -.25427.25429h-1.71479a.25427,.25429 0 0,1 -.25427-.25429v-1.71492a.25427,.25429 0 0,1 .25427-.25429" fill="#b6dc00" transform="scale(1,-1)"/>
<path d="m20.95156,75.09632h1.13755a.31876,.31881 0 0,1 .31876.31881v1.13776a.31876,.31881 0 0,1 -.31876.31881h-1.13755a.31876,.31881 0 0,1 -.31876-.31881v-1.13776a.31876,.31881 0 0,1 .31876-.31881" fill="#dcd000" transform="scale(1,-1)"/>
<path d="m17.49849,75.32026h.85054a.23833,.23839 0 0,1 .23833.23839v.85073a.23833,.23839 0 0,1 -.23833.23839h-.85054a.23833,.23839 0 0,1 -.23833-.23839v-.85073a.23833,.23839 0 0,1 .23833-.23839" fill="#dc9c00" transform="scale(1,-1)"/>
<path d="m14.49324,75.54419h.56356a.15792,.15796 0 0,1 .15792.15796v.56373a.15792,.15796 0 0,1 -.15792.15796h-.56356a.15792,.15796 0 0,1 -.15792-.15796v-.56373a.15792,.15796 0 0,1 .15792-.15796" fill="#dc6700" transform="scale(1,-1)"/>
<path d="m11.93564,75.76806h.27671a0.077537321,0.077560633 0 0,1 .07754.07756v.27679a0.077537321,0.077560633 0 0,1 -.07754.07756h-.27671a0.077537321,0.077560633 0 0,1 -.07754-.07756v-.27679a0.077537321,0.077560633 0 0,1 .07754-.07756" fill="#dc3300" transform="scale(1,-1)"/>
<path d="m-64.01984-64.10102a3.62487,5 0 0,1 3.62487,5v25.22652a3.62487,5 0 0,1 -3.62487,5 3.62487,5 0 0,1 -3.62487-5v-25.22652a3.62487,5 0 0,1 3.62487-5" fill="#e7e7e7" transform="scale(-1,1)"/>
<path d="m-63.79855-64.10102h37.82112v35.22652h-37.82112z" fill="#e7e7e7" transform="scale(-1,1)"/>
<path d="m50.65564-80.39171h6.36258a.38238,.38257 0 0,1 .38238.38257v6.92487a.38238,.38257 0 0,1 -.38238.38257h-6.36258a.38238,.38257 0 0,1 -.38238-.38257v-6.92487a.38238,.38257 0 0,1 .38238-.38257" fill="#05c248"/>
</g>
<path d="m6,1h59.45134c2.77,0 5,2.23001 5,5v25.22654c0,2.76999-2.23,5-5,5h-59.45134c-2.77,0-5-2.23001-5-5v-25.22654c0-2.76999 2.23-5 5-5zm57.39141.47216v34.28222m-6.91644-34.28222v34.28222m-6.91643-34.28222v34.28222m-6.91643-34.28222v34.28222m-6.91644-34.28222v34.28222m-6.91643-34.28222v34.28222m-6.91643-34.28222v34.28222m-6.91643-34.28222v34.28222m-6.91643-34.28222v34.28222" fill="url(#linearGradient3449)" stroke="#fff" stroke-dashoffset="22.62" stroke-linecap="round" stroke-width="2"/>
<path d="m6,1.00001h59.45134c2.77,0 5,2.22999 5,5v25.22652c0,2.77-2.23,5-5,5h-59.45134c-2.77,0-5-2.23-5-5v-25.22652c0-2.77001 2.23-5 5-5zm57.39141.47217v34.28219m-6.91644-34.28219v34.28219m-6.91643-34.28219v34.28219m-6.91643-34.28219v34.28219m-6.91644-34.28219v34.28219m-6.91643-34.28219v34.28219m-6.91643-34.28219v34.28219m-6.91643-34.28219v34.28219m-6.91643-34.28219v34.28219" fill="none" stroke="#787878" stroke-dashoffset="22.62" stroke-linecap="round" stroke-width=".7"/>
</svg>
