<?xml version="1.0" encoding="UTF-8" standalone="no"?>
<!DOCTYPE svg PUBLIC "-//W3C//DTD SVG 20010904//EN" "http://www.w3.org/TR/2001/REC-SVG-20010904/DTD/svg10.dtd">
<svg viewBox="0 0 100 100" xmlns="http://www.w3.org/2000/svg">
<defs>
<linearGradient gradientUnits="userSpaceOnUse" id="linearGradient5443" x2="0" y1="394.58165" y2="427.54084">
<stop offset="0" stop-color="#fff"/>
<stop offset="1" stop-color="#fff" stop-opacity="0"/>
</linearGradient>
<radialGradient cx="124.361" cy="1082.2069" fx="125.14262" fy="1084.0195" gradientTransform="scale(2.17592,.45958)" gradientUnits="userSpaceOnUse" id="radialGradient5444" r="54.57756">
<stop offset="0" stop-color="#fff" stop-opacity="0"/>
<stop offset="1" stop-color="#fff" stop-opacity=".68041"/>
</radialGradient>
</defs>
<path d="m263.75,501.11218 3.75,206.25 11.25,53.75 7.5-55-3.75-203.75-18.75-1.25z" fill="#9e9d9b" fill-rule="evenodd" transform="matrix(.22888,-.1135,.1135,.22888,-68.50043,-44.07814)"/>
<path d="m265.37352,538.01031 2.7876,169.29988 9.9892,45.18937-7.46034-214.77973-5.31646.29048z" fill="#fff" fill-rule="evenodd" transform="matrix(.22888,-.1135,.1135,.22888,-68.50043,-44.07814)"/>
<path d="m47.85313,40.98854c8.22235,15.82443 16.41748,31.66414 24.64279,47.48634 2.89176,3.67523 10.64151,12.05322 10.03641,11.26184-1.466-4.2904-2.68294-10.53185-4.19533-14.80276-8.06387-15.54096-15.95937-30.55519-24.01941-46.09813-1.86466.77399-4.60417,1.3683-6.46447,2.15272zm1.74027.63417 3.27146-1.36377c7.90038,15.24405 16.01782,29.07383 23.89162,44.3292 1.11008,3.29366 2.22016,7.63444 3.33024,10.92809-2.15817-2.78726-4.58519-5.16466-6.68444-7.98991l-23.80888-45.90362z" fill-rule="evenodd"/>
<path d="m266.25,361.26166c-50.37,0-91.25,17.08339-91.25,38.13257 0,4.13626 1.74525,8.07131 4.6875,11.78643 1.75017,9.49319 3.86451,23.21774 3.625,35.67128-18.87334,9.47443-30.40625,21.99531-30.40625,35.74061 0,29.5321 53.02342,53.48956 118.34375,53.48959s118.34376-23.95748 118.34375-53.48959c0-14.78253-13.44523-28.02108-34.96875-37.64724-2.90958-10.66401-4.59869-22.12456-2.75-32.69001 3.51617-4.01853 5.625-8.32337 5.625-12.86107 0-.57625-.15812-1.12861-.21875-1.69864 .07991-.12533.13709-.25677.21875-.38132-.05634-.17498-.22919-.31705-.3125-.48532-3.18599-19.84431-42.64784-35.56729-90.9375-35.56729z" fill="#0000d3" transform="matrix(.22888,-.1135,.1135,.22888,-68.50043,-44.07814)"/>
<path d="m336.25,417.36218a77.5,23.75 0 1,1 -155,0 77.5,23.75 0 1,1 155,0z" fill="url(#linearGradient5443)" transform="matrix(.25613,-.12701,.15351,.30958,-92.66068,-79.75977)"/>
<path d="m348.54157,411.25942c-22.39092,16.33932-58.84583,20.5112-90.82282,19.58433-15.98849-.46343-31.16055-2.68962-43.46875-6.25s-23.52595-6.41336-27.95088-11.66796l-1.92412,1.01171c5.57507,6.6204 15.72226,11.63851 28.53125,15.34375s28.33224,5.99468 44.6875,6.46875c32.71051.94813 68.73467-5.24557 92.59375-22.65625l-1.64593-1.83433z" fill-rule="evenodd" transform="matrix(.22888,-.1135,.1135,.22888,-68.50043,-44.07814)"/>
<path d="m351.45088,447.13671c-19.33606,16.91906-52.86711,28.08643-84.29463,28.39454s-62.77292-9.05098-80.80853-25.88422l-1.18315.8372c19.46439,18.16676 49.7317,30.27016 82.05418,29.95327s64.67365-13.35824 85.33759-31.43918l-1.10546-1.86161z" fill-rule="evenodd" transform="matrix(.22888,-.1135,.1135,.22888,-68.50043,-44.07814)"/>
<path d="m157.5,487.36218c46.51668,35.1843 173.92487,40.20691 228.75-5-7.91824,63.22913-200.88442,72.47907-228.75,5z" fill="url(#radialGradient5444)" fill-rule="evenodd" transform="matrix(.22888,-.1135,.1135,.22888,-68.50043,-44.07814)"/>
<path d="m33.31823,7.92527c-6.10235,3.11887-12.11231,7.11367-15.85837,12.99159-1.55009,2.42467-2.72474,7.5355 1.64026,8.64523 2.00372,1.08434 1.4418,2.84975 2.69506,4.67223 1.1443,1.72431 3.07086,2.85838.99652,4.51586-1.96603,3.18413-3.74757,8.34239-1.32602,11.63716 2.83937,3.65686 7.88531,4.02991 12.2088,3.90875 9.83565-.51363 19.2406-4.20282 27.51438-9.37852 5.82906-3.83688 11.54868-8.51735 14.60315-14.94621 1.58318-3.21506 1.67188-7.6483-1.27966-10.12505-2.98391-2.54659-7.11928-2.94245-10.89333-2.85879-1.64234-2.20428-4.85921-4.49758-4.51402-7.41833 .30643-2.14135-.11966-4.18021-1.90243-5.1868-4.06732-2.1336-8.92747-1.32005-13.21839-.40077-3.69398.88983-7.26334,2.26049-10.66594,3.94366zm.55683,1.12296c5.87951-2.8228 12.34104-5.11586 18.95215-4.65224 2.4237.19247 5.66569,1.31893 5.77089,4.1789-.57006,1.78957.16699,3.48929 1.05447,5.03547 .96527,1.60968 2.18054,2.96624 3.60859,4.16718 1.87325.21565 3.69721.33959 5.57517.82454 3.14717.49067 6.61647,2.58419 6.79368,6.09004 .14862,4.58975-2.90838,9.00258-5.86745,12.21272-7.03649,7.16719-16.14607,11.94006-25.70697,14.84761-5.77285,1.5979-12.07724,2.41056-17.91806.49379-2.83119-.86916-5.13414-3.61789-4.74066-6.67996 .21524-2.92176 1.87403-5.48284 3.4412-7.82942-.00024-1.5831-1.39483-2.89313-2.05374-4.29187-.97238-1.45558-1.71873-3.16026-2.89752-4.44886-2.40102-.83314-3.23146-3.58732-2.1979-5.71406 2.19832-4.99627 6.72054-8.46899 11.16309-11.40425 1.62144-1.03332 3.30071-1.97531 5.02308-2.82959z"/>
</svg>
