<?xml version="1.0" encoding="UTF-8" standalone="no"?>
<svg viewBox="0 0 228.07576 338.62469" xmlns="http://www.w3.org/2000/svg">
<g transform="translate(-190.87882,-269.31838)">
<g fill="#b5ff1b" font-family="Copperplate Gothic Bold" font-size="440.47516" stroke="#00c100" stroke-width="13">
<path d="m197.37882,365.72005c-2e-005-13.62122 4.37319-27.42191 13.11962-41.40209s21.50753-25.55787 38.28349-34.73473 36.3477-13.76453 58.71568-13.76485c20.79051.00032 39.14362,3.83583 55.0594,11.50655s28.21055,18.1025 36.88549,31.29352 13.01185,27.52995 13.01208,43.01516c-.00023,12.18785-2.4736,22.86993-7.42011,32.04629s-10.8257,17.0987-17.63621,23.76587-19.0344,17.88729-36.67042,33.65935c-4.87522,4.44504-8.78242,8.35225-11.72163,11.72163s-5.12613,6.4524-6.55981,9.24826-2.54522,5.59209-3.33367,8.38795-1.97168,7.70699-3.54875,14.73269c-2.72444,14.91201-11.25577,22.36796-25.59402,22.36788-7.45607,8e-005-13.72911-2.43744-18.81913-7.31257-5.09022-4.87496-7.63528-12.11584-7.63519-21.72265-9e-005-12.04413 1.86389-22.47529 5.59197-31.29353s8.67461-16.56068 14.84023-23.22818 14.48164-14.58913 24.94879-23.76587c9.17641-8.0293 15.80791-14.08726 19.8945-18.1739s7.52749-8.63867 10.32364-13.65731 4.1938-10.4668 4.19398-16.34576c-.00018-11.47046-4.26584-21.14886-12.79701-29.03523s-19.53619-11.82889-33.01413-11.82917c-15.77233.00028-27.38641,3.97918-34.84227,11.93671s-13.76493,19.67967-18.92667,35.16489c-4.87512,16.20258-14.12337,24.30376-27.74477,24.30356-8.02954.0002-14.80442-2.83163-20.32466-8.4955s-8.28044-11.79309-8.28042-18.38897zm104.95697,235.72303c-8.74653,0-16.38171-2.83183-22.90557-8.49549s-9.78603-13.5856-9.78594-23.76587c-9e-005-9.03315 3.15435-16.63249 9.46333-22.79803s14.0515-9.2482 23.22818-9.24826c9.03305,6e-005 16.63239,3.08281 22.79803,9.24826s9.24811,13.76488 9.24826,22.79803c-.00015,10.03688-3.22629,17.92299-9.67841,23.65833s-13.90836,8.60303-22.36788,8.60303z" fill="#b5ff1b" stroke="#00c100" stroke-width="13"/>
</g>
<path d="m203.56265,361.70268c-1.02915-.80044 5.98283-35.54505 31.60188-55.18818 19.64926-15.06586 32.73464-18.35473 45-21.42857 9.43824-2.36533 24.81184-3.33296 36.42858-2.14286 0,0-25.67804,9.52835-36.55112,13.5049-11.21923,4.10314-29.15332,10.34259-39.82143,19.5562s-36.65791,45.69851-36.65791,45.69851z" fill="#ff0"/>
<path d="m280.51196,585.12093c0,0-13.42723-23.90707 7.13515-36.91138 19.09823-12.07833 32.62065,2.78686 32.62065,2.78686s-18.05683,2.59296-25.40096,7.80342c-9.11068,6.46377-14.35484,26.3211-14.35484,26.3211z" fill="#ff0"/>
</g>
</svg>
