<?xml version="1.0" encoding="utf8" standalone="no"?>
<svg viewBox="0 0 1185 1427.8572" xmlns="http://www.w3.org/2000/svg">
<g transform="translate(255.35714,618.70925)">
<path d="m581.42857,763.79075 21.42857,14.28572-8.57143-27.14286-11.42857-22.85714-21.42857-14.28572-11.42857-5.71428-21.42857-31.42857-8.57143-17.14286-4.28571-12.85714-1.42858-11.42857v-7.14286l2.85715-2.85714 5.71428,2.85714 5.71429,4.28571 1.42857-12.85714 7.14286-22.85714 1.42857-7.14286 12.85714-20 17.14286-17.14286 12.85714,4.28572 8.57143,5.71428 28.57143,20 24.28571,11.42857 40,14.28572 34.28572,8.57143 40,15.71428 30,11.42857 24.28571,2.85715 21.42857-4.28572 12.85715-5.71428 14.28571-4.28572 21.42857-8.57143 12.85714-11.42857 1.42858-12.85714 1.42857-4.28571 7.14285,4.28571 18.57143,11.42857 4.28572,1.42857-4.28572-15.71428-12.85714-10 4.28571-2.85715h4.28572l-4.28572-7.14285-7.14285-8.57143-7.14286-4.28572-7.14286-8.57142-1.42857-4.28572v-20-28.57143l-1.42857-34.28571-4.28571-31.42857-10-22.85715-14.28572-15.71428-12.85714-14.28572-15.71429-14.28571-17.14285-21.42857-5.71429-15.71429-1.42857-17.14285 5.71428-14.28572 1.42858-40-4.28572-44.28571-1.42857-44.28572-11.42857-48.57143-12.85714-35.71428-11.42858-25.71429-5.71428-30v-2.85714l-4.28572,11.42857-2.85714,5.71429-2.85714-10-1.42857-5.71429-10-12.85714-10-10 7.14285,22.85714 1.42858,20-4.28572-2.85714 8.57143,18.57143v32.85714l2.85714,20-4.28571-5.71429-1.42857,5.71429 7.14285,12.85714 2.85715,38.57143-1.42857,28.57143v20l-21.42858-35.71429-4.28571-12.85714 1.42857,25.71429 8.57143,32.85714 2.85714,14.28571-2.85714,12.85715-7.14286-8.57143v15.71428l-2.85714,5.71429-11.42857-14.28571-5.71429-2.85715-4.28571-1.42857 1.42857,10-5.71429,1.42857-2.85714-1.42857 1.42857,7.14286-2.85714,4.28571-1.42857,4.28572-4.28572,1.42857-1.42857-1.42857-8.57143-30-12.85714-47.14286-15.71428-42.85714-14.28572-40-14.28571-25.71429-1.42857-15.71429-12.85715-24.28571 1.42857,20-10-10-12.85714-14.28571 7.14286,22.85714-12.85714-10 12.85714,35.71429 7.14286,21.42858 4.28571,12.85714-15.71429-14.28572 7.14286,14.28572 10,25.71429-15.71428-20.00001-15.71429-24.28571-18.57143-20-5.71428-1.42857 4.28571,21.42857 7.14286,17.14286 12.85714,31.42857 5.71429,12.85714-20-25.71428-10-5.71429 2.85714,14.28572-7.14286-2.85715 7.14286,14.28572 8.57143,18.57143 7.14285,14.28571 1.42858,17.14286-15.71429-21.42857-10-12.85715-7.14286-4.28571 14.28572,22.85714 14.28571,24.28572 5.71429,20v11.42857l-20-1.42857-30-7.14286-30-14.28572-55.71429-24.28571-38.57143-15.71429-35.71428-11.42857-41.42857-7.14285-37.14286,2.85714-48.57143,7.14286-35.71429,11.42857-31.42857,15.71428-4.28571-4.28571 2.85714-24.28572 7.14286-22.85714 2.85714-12.85714 5.71429-14.28572 14.28571,5.71429 12.85714,4.28571h5.71429l1.42857-4.28571 8.57143,2.85714 7.14286-1.42857h4.28571l-1.42857-8.57143v-4.28571h7.14286l24.28571,7.14285 10-1.42857v-8.57143l5.71429-4.28571 11.42857,5.71429 4.28571,5.71428 2.85715-41.42857 1.42857,10 10,2.85714 12.85714,7.14286 10,4.28571 2.85714-2.85714-2.85714-12.85714 2.85714-7.14286 4.28572-7.14286 8.57143,1.42857 7.14285,4.28571 5.71429-4.28571v-4.28571l5.71428-10 8.57143-8.57143 7.14286-1.42857h17.14286l11.42857-8.57143 14.28571,2.85714 7.14286-7.14286 8.57143-5.71428-5.71429-2.85714 5.71429-14.28572 12.85714-11.42857 8.57143,1.42857 10-8.57143 15.71429-10-15.71429-1.42857-2.85714-5.71429h8.57143l34.28571-8.57143 15.71429-10 1.42857-7.14286-22.85715,1.42857h-11.42857l14.28572-8.57143 7.14285-4.28571 8.57143-5.71429 12.85715-12.85714 8.57142-5.71429 7.14286-12.85714 10-12.85714 1.42857-11.42857-11.42857,8.57143-18.57143,5.71429-20,8.57143h-11.42857l15.71429-11.42857 15.71428-11.42857 17.14286-11.42857 15.71429-10 18.57142-21.42857 1.42858-5.71429-32.85715,17.14286-15.71428,7.14286-11.42857,1.42857 38.57142-17.14286 12.85715-18.57143 17.14285-24.28571 11.42858-54.28572-21.42858,51.42858-11.42857,4.28571 7.14286-20 10-28.57143-7.14286,2.85714-22.85714,11.42858 10-12.85715 8.57143-28.57143-21.42857,20-8.57143,5.71429-12.85714,10-24.28572,14.28571 18.57143-25.71428 24.28571-40 2.85715-10-10,1.42857v-12.85714l-12.85715,2.85714h-12.85714l21.42857-17.14286v-8.57143l-10,4.28572 7.14286-14.28572-1.42857-17.14285-11.42857,12.85714-10,5.71429 10-24.28572 8.57143-35.71428-12.85715,28.57142-8.57143,12.85715-21.42857,25.71428-12.85714,27.14286 5.71429-32.85714 15.71428-60-2.85714-15.71429-5.71429,30-15.71428,30-4.28572,1.42857 10-35.71428-1.42857-12.85715-4.28571-4.28571-7.14286,18.57143-1.42857-25.71429 4.28571-20-1.42857-28.57143-18.57143,42.85715v-30l-5.71428,10-7.14286,25.71428-10,12.85715-5.71429,7.14285v-20l2.85715-35.71428v-20l-14.28572,20 4.28572-22.85715-1.42857-20-11.42858,12.85715-5.71428,22.85714-10,18.57143-10,10-1.42857-27.14286 2.85714-35.71428-1.42857-32.85715-4.28572,2.85715-5.71428,12.85714-12.85714,17.14286 4.28571-35.71429-22.85714-22.85714 5.71428,20-1.42857,24.28571-2.85714,11.42857-8.57143-37.14285-8.57143-14.28572-1.42857,15.71429 1.42857,30-1.42857,7.14285-12.85714-30-11.42857-20-11.42858-7.14285-5.71428-1.42857v11.42857l-1.42857,12.85714-14.28572-20-14.28571-4.28571h-5.71429l2.85715,11.42857 2.85714,24.28571v21.42857l1.42857,38.57143-1.42857,28.57143v1.42857l-15.71429-52.85714-5.71428-24.28572-21.42857-40-11.42858-11.42857-11.42857-2.85714 10,21.42857 2.85715,18.57143 4.28571,22.85714-12.85714-34.28571-21.42857-25.71429-17.14286-4.28571 15.71428,20 14.28572,27.14286 1.42857,14.28571-17.14286-17.14286-10-24.28571-17.14285-24.28572-38.57143-12.85714-14.28572-7.14286-5.71429-1.42857 5.71429,8.57143 2.85714,8.57143-18.57143-8.57143-47.14286-18.57143-28.57143-4.28571 12.85714,8.57143 2.85714,7.14285-57.14286-28.57142-42.85714-7.14286 12.85714,4.28571 10,8.57143v7.14286l-10-8.57143-35.71429-14.28571-12.85714-2.85715 10,11.42857 8.57143,5.71429 5.71429,10-28.57143-4.28571h-21.42857l8.57142,4.28571 5.71429,7.14286 7.14286,10-27.14286,4.28571-12.85714,1.42857-7.14286,5.71429 15.71429,4.28571 12.85714,7.14286 7.14286,7.14286 4.28571,4.28571 7.14286,2.85714-17.14286-4.28571-27.14286-4.28571-22.85714-2.85715-5.71429,2.85715 14.28572,2.85714 11.42857,5.71428 27.14286,10 8.57143,7.14286-18.57143-4.28571-25.71429-1.42857 7.14286,10 11.42857,8.57142h-17.14286l-7.14285,4.28572 5.71428,10 12.85714,15.71428-1.42857,7.14286-18.57143-7.14286h-1.42857l5.71429,7.14286 5.71428,8.57143-15.71428,1.42857-15.71429,1.42857-27.14285,1.42857-7.14286-2.85714 18.57143,14.28572-20,11.42857-8.57143,7.14285-1.42857,2.85715 8.57143,5.71428-2.85715,7.14286-5.71428,2.85714 27.14285,24.28572 37.14286,25.71428 27.14286,18.57143 17.14286,8.57143-27.14286-1.42857h-7.14286l-7.14286,1.42857 8.57143,14.28571-11.42857,8.57143h-2.85714l10,7.14286 25.71428,20 7.14286,14.28571-5.71428,7.14286h-5.71429l15.71429,14.28572 18.57142,10 14.28572,15.71428 30,10 17.14286,7.14286-32.85714-1.42857-27.14285,2.85714-18.57143,2.85714 30,15.71429 35.71428,10 20,5.71428 40,8.57143 30,5.71429-30,4.28571-25.71429,2.85715-11.42857,4.28571 30,18.57143 4.28571,11.42857 14.28571,20 7.14286,17.14286-18.57143,1.42857v11.42857l-20-10-52.85714-40-12.85714-7.14286 11.42857,30-1.42857,11.42857-8.57143-2.85714-5.71429-2.85714-22.85714-2.85714 7.14286,10-1.42857,7.14286-5.71429,4.28572-4.28571,1.42857 20,22.85714 1.42857,11.42857-12.85715-5.71429-21.42857-8.57143h-10l22.85715,18.57143 8.57142,11.42857h-15.71428l-11.42857,1.42857 5.71428,12.85714v12.85714l-4.28571,2.85714 10,15.71429 4.28571,8.57143-2.85714,11.42857-7.14286,5.71429 14.28572,12.85714-14.28572,1.42857 11.42857,11.42857 8.57143,10 7.14286,10-12.85714,8.57142-5.71429,1.42858 14.28572,8.57142 8.57142,4.28572 17.14286,18.57143 11.42857,15.71428 15.71429,12.85715 31.42857,17.14285 25.71429,12.85715-8.57143,7.14285 8.57143,7.14286 2.85714,2.85714 5.71429,12.85715-2.85714,4.28571 17.14286,12.85714 8.57143,14.28572-4.28571,10 2.85714,10 17.14286,10 4.28571,20-5.71429,4.28571-4.28571,18.57143-1.42857,32.85714 5.71429,24.28572 4.28571,38.57143 7.14286,31.42857 1.42857,31.42857 8.57143,28.57143 10,25.71428 10,10 14.28571,18.57143 7.14286,12.85715 20,10 17.14286-5.71429 25.71429,7.14286 54.28571,14.28571h37.14286l11.42857-2.85714 8.57143-2.85714-14.28572-7.14286 4.28572-4.28572-7.14286-5.71428-10-4.28572-10-5.71428 11.42857-1.42857 1.42857-4.28572-20-11.42857-21.42857,1.42857-25.71428-2.85714-12.85715-4.28571 42.85715,7.14285 25.71428,2.85715 17.14286,2.85714 20-2.85714 15.71429-5.71429 11.42857-2.85714 12.85714-4.28572 14.28571-1.42857h10l-10-7.14286-10-8.57142-10-10-10-7.14286 22.85715,20 21.42857,15.71428 24.28571,32.85715 32.85715,50 14.28571,20 32.85714,37.14285 28.57143,25.71429 14.28572,22.85714 10,32.85715 7.14285-1.42858 5.71429-12.85714 2.85714-8.57143v-10l14.28572,14.28572 2.85714,17.14285 21.42857,22.85715 4.28571-10 2.85715-14.28572v-10l1.42857-7.14285 18.57143,20 12.85714,7.14285-2.85714-12.85714-4.28572-7.14286-1.42857-8.57143z" fill="#784421" fill-rule="evenodd" stroke="#000" stroke-width="5"/>
<path d="m737.41136,621.02705-8.08122-10.10153 12.12183-3.03046 8.08122-3.03045 8.08122-8.08123 16.16244-11.11167 11.11168-5.05077 11.11168-1.01015 8.08122-1.01015 15.15228-11.11168 16.16245-3.03046 10.10152,2.02031 9.09137,1.01015 9.09138-4.04061 15.15228-3.03046 9.09138-4.04061 3.03046,2.02031 3.03045,29.29442 2.02031,10.10153-1.01015,12.12183-7.07107,8.08122-20.20305,11.11168-15.15229,7.07106-23.23351,7.07107-27.27412,3.03046-32.32488-8.08122-24.24366-11.11168-8.08122-6.06091z" fill="#a05a2c" fill-rule="evenodd"/>
<path d="m838.42661,639.20979-8.08122-5.05076 1.01015-5.05076 4.04062-6.06092 1.01015-7.07107 2.0203-8.08122 9.09138-6.06091 13.13198,9.09137 10.10152,3.03046 11.11168-3.03046 4.04061,9.09137-20.20305,10.10153-17.17259,6.06091-10.10153,3.03046z" fill="#502d16" fill-rule="evenodd" stroke="#000" stroke-width="5"/>
<path d="m835.35714,609.1479 4.28572,1.78571 3.57143,2.5 2.5,6.07143 1.07143,5 2.5,5 4.28571,2.5 4.64286.35714h2.14285" fill="none" stroke="#000" stroke-width="5"/>
<path d="m890.71429,549.1479 .71428,17.85714 1.78572,10.71428 1.42857,13.57143 1.78571,4.28572" fill="none" stroke="#000" stroke-width="5"/>
<path d="m689.64286,469.86218-4.64286,7.85714-2.14286,10.35715v14.64285l4.64286,10.71429 5.35714,6.07143 8.57143,6.42857 9.64286,1.78571 10,.71429 13.92857,1.07143 11.07143.71428 4.28571.35715-4.64285-14.64286-4.28572-14.64286-5.71428-13.57143-5-7.14285-5.71429-6.07143-9.64286-6.42857-9.28571-1.78572-9.64286-1.42857-3.92857.35714-2.85714,4.64286z" fill="#a05a2c" fill-rule="evenodd"/>
<path d="m692.85714,468.07647 11.42858,1.78571 12.14285,4.64286 8.21429,6.07143 7.85714,10 3.21429,12.14285 2.14285,9.64286-1.42857,10 .35715,1.78572-7.14286-.35715-9.64286.35715-9.28571.71428-9.28572-3.57143-7.14285-9.28571-5.35715-7.85714-2.5-4.64286-.71428-6.78572 1.07143-10.35714 2.85714-6.07143 3.21428-8.21428z" fill-rule="evenodd" stroke="#000" stroke-width="5"/>
<path d="m718.92857,475.21932-5.71428,2.14286-1.07143,1.78572-1.07143,3.92857 .71429,7.85714 1.42857,4.64286 1.42857-.71429v-1.78571h2.85714l3.92857-2.5 2.14286-1.78572 1.07143,2.85715-.35714,2.5-.35715,1.42857 1.07143.71428 1.07143-.71428 1.78571-2.85715 2.14286-1.07142-.35714-1.07143-2.85714-7.85715-7.85715-7.5z" fill="#fff" fill-rule="evenodd" stroke="#000" stroke-width="5"/>
<path d="m607.14286,448.07647 17.85714-10.71429 17.14286-11.42857 8.57143-8.57143 10-17.85714 6.42857-14.28572 2.85714-12.14285-5.71429-27.85715-6.42857-20-2.14285-19.28571-7.14286-27.85714-5-13.57143-2.85714-5.71429-7.14286-7.14285" fill="none" stroke="#000" stroke-width="5"/>
<path d="m601.42857,314.50504 12.85714,7.14286 15.71429,12.14285 11.42857,16.42857 5,13.57143 .71429,8.57143" fill="none" stroke="#000" stroke-width="5"/>
<path d="m610.71429,368.07647 10.71428-5 9.28572-1.42857 2.85714,5.71428 1.42857,17.14286-1.42857,20-4.28572,10-4.28571,7.14286h-7.85714l-5,1.42857-3.57143,4.28571-6.42857,6.42857 .71428-.71428" fill="none" stroke="#000" stroke-width="5"/>
<path d="m610.71429,394.50504 6.42857,8.57143 .71428,7.14285h-.71428" fill="none" stroke="#000" stroke-width="5"/>
<path d="m562.85714,432.36218-20.71428-11.42857-19.28572-3.57143 25-3.57143h5l-5.71428-5 3.57143-2.85714-3.57143-6.42857-5-5.71429-13.57143-7.14285 21.42857-.71429-17.85714-9.28571-4.28572-2.85715-2.14285-3.57143 4.28571-.71428 5.71429-2.85714-7.85715-10.71429 7.14286-1.42857 2.85714-5-5-12.85714h5.71429l6.42857-2.14286-1.42857-3.57143-.71429-3.57143 5,2.14286 6.42857-3.57143-5.71428-10.71429-9.28572-12.14285-10.71428-17.14286 9.28571,5 6.42857,1.42857-3.57142-7.85714 6.42857,1.42857-1.42857-7.14286 4.28571-.71428-1.42857-20 3.57143,9.28571v-7.14286l6.42857.71429 3.57143-1.42857-2.14286-3.57143 10.71429.71429h5" fill="none" stroke="#000" stroke-width="5"/>
<path d="m802.14286,342.36218-20.71429-22.14286-17.85714-27.85714-8.57143-16.42857" fill="none" stroke="#000" stroke-width="5"/>
<path d="m186.87822,135.14367-12.12183,39.39595-5.05076,36.36549h9.09137l24.24366-16.16244 27.27412-6.06091 41.41625-8.08122 41.41626-5.05077 25.25381,1.01016 30.30458,6.06091 22.22336,8.08122-12.12184,6.06092 5.05077,6.06091-6.06092,6.06092 4.04061,10.10152-9.09137,2.02031 5.05076,9.09137-17.17259,9.09137 4.04061,6.06092-13.13198,7.07107 11.11167,8.08122-8.08122,8.08122 7.07107,5.05076-8.08122,9.09137 6.06092,6.06092-6.06092,6.06091-23.23351,3.03046h-27.27412l-31.31473-5.05076-26.26396-6.06092-17.17259-13.13198-17.1726-11.11168-23.23351-4.04061-30.30457-12.12183-21.21321,2.02031-27.27412,18.18274-12.12183,6.06092-15.15229,10.10152-10.10152,12.12183-8.08122,6.06092-5.05076-4.04061-9.09137-13.13198-10.10153-16.16245-5.05076-7.07106 6.06091-5.05077-15.15229-18.18274-11.11168-10.10153 19.1929,2.02031-15.15229-13.13198-15.15229-9.09138 15.15229,4.04061 10.10152-1.01015-15.15229-14.14214-12.12183-7.07106h21.2132l4.04061-2.02031-28.28427-24.24366-4.04061-4.04061 12.12183,1.01015 8.08122-2.0203-26.26397-19.1929 15.15229-1.01015-13.13198-13.13199-13.13198-13.13198 15.15229-2.0203-7.07107-6.06092-17.17259-17.17259 29.29442,11.11168-14.14214-30.30458 28.28427,22.22336 19.1929,5.05076 17.17259-3.03046h12.12183l29.29442,13.13198 26.26397,12.12183 15.15229,6.06092 21.2132,6.06091 19.1929,3.03046 11.11168,1.01015 5.05076,3.03046z" fill="#6f3916" fill-rule="evenodd"/>
<path d="m169.28571,208.79075-14.28571,9.28572-20.71429,17.85714-15.71428,13.57143-13.57143,11.42857-5.71429,7.85714-15,9.28572-9.28571,12.85714-8.57143,11.42857-3.57143,3.57143" fill="none" stroke="#000" stroke-width="5"/>
<path d="m160,261.6479 30.71429,4.28571 31.42857,10.71429 20,18.57142 8.57143,17.14286 3.57142,44.28572 2.14286,6.42857" fill="none" stroke="#000" stroke-width="5"/>
<path d="m185.71429,290.93361 20,12.85714 17.14285,20 16.42857,32.14286 8.57143,28.57143 6.42857,25 2.85715,20 .71428,25.71428-2.14285,16.42858-10,17.14285-9.28572,19.28572" fill="none" stroke="#000" stroke-width="5"/>
<path d="m394.28571,520.93361 13.57143-.71429 14.28572,7.14286 13.57143,11.42857 15.71428,5h8.57143l17.14286-5 15.71428,2.14286 20,4.28571 15.71429,3.57143 10,2.14286 14.28571,2.14286h3.57143" fill="none" stroke="#000" stroke-width="5"/>
<path d="m707.10678,575.57018 25.25382,3.03046 16.16244,4.04061 19.19289-1.01015 12.12184-4.04061" fill="none" stroke="#000" stroke-width="5"/>
<path d="m815.1931,571.52957-10.10152-32.32488-28.28427-61.61931-27.27412-28.28427-8.08122-12.12183 6.06091-1.01015-4.04061-18.18275 11.11168,1.01016-11.11168-26.26397-11.11167-19.1929 14.14213,14.14214v-16.16244l11.11168,9.09137 12.12183,17.17259 13.13198,15.15229-8.08122-30.30457 15.15229,20.20305 11.11168,6.06091-5.05076-21.2132 9.09137,6.06091-1.01015-21.2132 4.04061,1.01015 6.06091,1.01015-4.04061-14.14213-4.04061-21.2132 1.01015-3.03046 17.1726,23.23351 31.31473,32.32488 18.18274,22.22335 8.08122,16.16244v21.21321l-3.03046,23.23351-6.06091,22.22335v15.15229l3.03046,47.47717v4.04061l-20.20305,4.04061-13.00699-.0203-7.83122-.26016-6.31091.25-13.25699,4.07107z" fill="#a05a2c" fill-rule="evenodd"/>
</g>
</svg>
