<?xml version="1.0" encoding="UTF-8" standalone="no"?>
<svg viewBox="0 0 48 48" xmlns="http://www.w3.org/2000/svg">
<defs>
<radialGradient cx="24.53788" cy=".40011" gradientTransform="matrix(-3.749427e-16,-2.04673,1.55761,-2.853404e-16,2.76701,66.93275)" gradientUnits="userSpaceOnUse" id="radialGradient1438" r="17.17142">
<stop offset="0" stop-color="#fff"/>
<stop offset="1" stop-color="#fff" stop-opacity="0"/>
</radialGradient>
<radialGradient cx="11.31921" cy="22.45497" gradientTransform="matrix(1.871885e-16,-.84302,1.02017,2.265228e-16,.60644,42.58614)" gradientUnits="userSpaceOnUse" id="radialGradient1441" r="16.9562">
<stop offset="0" stop-color="#73d216"/>
<stop offset="1" stop-color="#4e9a06"/>
</radialGradient>
<radialGradient cx="24.83713" cy="36.42113" gradientTransform="matrix(1,0,0,.53672,1.614716e-15,16.87306)" gradientUnits="userSpaceOnUse" id="radialGradient1444" r="15.64474">
<stop offset="0"/>
<stop offset="1" stop-opacity="0"/>
</radialGradient>
</defs>
<path d="m40.48186,36.42113a15.64474,8.39689 0 1,1 -31.28947,0 15.64474,8.39689 0 1,1 31.28947,0z" fill="url(#radialGradient1444)" fill-rule="evenodd" opacity=".29947" transform="matrix(1.21447,0,0,.59546,-6.16385,16.31275)"/>
<path d="m14.49179,38.5h17.97768v-12.95256h8.03052l-17.12519-20.04822-16.84625,19.99026 7.96854.06629-.0053,12.94424z" fill="url(#radialGradient1441)" fill-rule="evenodd" stroke="#3a7304" stroke-linecap="round" stroke-linejoin="round" stroke-miterlimit="10"/>
<path d="m7.58552,25.03253h7.4103l.0666,6.56181c5.65561-11.00046 15.99309-8.84441 16.59435-15.62767l-8.28983-9.5447-15.78141,18.61056z" fill="url(#radialGradient1438)" fill-rule="evenodd" opacity=".50802"/>
<path d="m15.60273,37.5h15.89984v-12.99295h6.809l-14.95037-17.43696-14.70653,17.48038 6.82037-.0221 .12769,12.97163z" fill="none" opacity=".48128" stroke="#fff" stroke-miterlimit="10"/>
</svg>
