<?xml version="1.0" encoding="UTF-8" standalone="no"?>
<!DOCTYPE svg PUBLIC "-//W3C//DTD SVG 1.0//EN" "http://www.w3.org/TR/2001/REC-SVG-20010904/DTD/svg10.dtd">
<svg viewBox="0 0 437.5 437.5" xmlns="http://www.w3.org/2000/svg" xmlns:xlink="http://www.w3.org/1999/xlink">
<defs>
<linearGradient id="linearGradient496">
<stop offset="0" stop-color="#00ff3a"/>
<stop offset="1" stop-color="#ffff4f"/>
</linearGradient>
<linearGradient id="linearGradient67">
<stop offset="0" stop-color="#4f8f00"/>
<stop offset="1" stop-color="#008200"/>
</linearGradient>
<linearGradient id="linearGradient79" x1="-2.94338798e-9" x2="1">
<stop offset="0" stop-color="#fff"/>
<stop offset="1" stop-color="#00b2df" stop-opacity="0"/>
</linearGradient>
<linearGradient id="linearGradient62" x1="5.32898481e-9" x2="1" xlink:href="#linearGradient496"/>
<linearGradient id="linearGradient66" x1=".18367" x2=".55782" xlink:href="#linearGradient496" y1=".73438" y2=".28125"/>
<linearGradient id="linearGradient71" x1=".2924" x2=".84795" xlink:href="#linearGradient67" y1=".32704" y2=".63522"/>
<linearGradient id="linearGradient75" x1=".91257" x2=".16393" xlink:href="#linearGradient67" y1=".75472" y2="6.28930628e-2"/>
</defs>
<path d="m285.3298,148.5326c0,57.8145-51.7762,104.6825-115.6453,104.6825s-115.64505-46.868-115.64505-104.6825 51.77625-104.68234 115.64505-104.68234 115.6453,46.86791 115.6453,104.68234z" fill="url(#linearGradient79)" fill-rule="evenodd"/>
<path d="m304.2676,149.0189c0,67.8951-59.0975,122.9348-131.998,122.9348s-131.99799-55.0397-131.99799-122.9348 59.09752-122.93487 131.99799-122.93487 131.998,55.03985 131.998,122.93487z" fill="none" stroke="url(#linearGradient71)" stroke-width="37.5"/>
<path d="m304.2676,149.0189c0,67.8951-59.0975,122.9348-131.998,122.9348s-131.99798-55.0397-131.99798-122.9348 59.09749-122.93487 131.99798-122.93487 131.998,55.03985 131.998,122.93487z" fill="none" stroke="url(#linearGradient62)" stroke-width="12.5"/>
<path d="m419.3469,332.2941c9.1805,13.8174 9.9085,33.4958-3.0602,46.5687-9.3461,9.4718-34.2074,15.5228-52.0238,7.7614-21.0621-8.547-108.6378-108.337-114.7582-117.9738 7.4055-6.6923 33.8002-26.4902 41.9468-32.4649 5.5223,0 123.1187,76.0735 127.8954,96.1086z" fill="url(#linearGradient66)" fill-rule="evenodd" stroke="url(#linearGradient75)" stroke-width="13.69429"/>
<path d="m126.0694,193.7202-34.54916.2951 8.3172-33.1807c.66436-2.5431.31576-4.6681-1.7719-7.2853-2.723-3.4137-6.0578-5.0623-7.9286-3.6095-.6928.5381-1.0919,1.5852-1.5173,3.0213l-10.4323,41.6419c-.8078,3.2073-.5763,5.6076 1.6929,8.4523s4.5793,3.6307 7.9286,3.6095l43.47196-.222c1.5146-.0706 2.6398-.2073 3.3327-.7454 1.8707-1.4529.9394-5.1524-1.7837-8.5662-2.0876-2.6172-4.0991-3.4507-6.7604-3.411z"/>
<path d="m226.0437,117.6123-34.5492.2951 8.3172-33.18067c.6644-2.5431.3158-4.6681-1.7719-7.2853-2.723-3.4137-6.0578-5.0623-7.9286-3.6095-.6928.5381-1.0919,1.5852-1.5173,3.0213l-10.4323,41.64187c-.8078,3.2073-.5763,5.6076 1.6929,8.4523s4.5793,3.6307 7.9286,3.6095l43.472-.222c1.5146-.0706 2.6398-.2073 3.3327-.7454 1.8707-1.4529.9394-5.1524-1.7837-8.5662-2.0876-2.6172-4.0991-3.4507-6.7604-3.411z" transform="matrix(-1,1.224606e-16,-1.224606e-16,-1,413.3032,203.8602)"/>
<path d="m171.7851,193.5769 23.1099-.4509 8.3444-28.953c.8277-2.5431 1.425-5.1655 3.5127-7.7827 2.723-3.4137 6.0578-5.0623 7.9286-3.6095 .6928.5381 3.0814,1.8339 3.5067,4.016l-7.7214,36.4195c-.4356,2.9586-2.1592,5.8563-4.4284,8.701s-4.5793,3.6307-7.9286,3.6095l-31.5353.7727c-1.5146-.0706-2.6398-.2073-3.3327-.7454-1.8707-1.4529-.9394-5.1524 1.7837-8.5662 2.0876-2.6172 4.0991-3.4507 6.7604-3.411z"/>
<path d="m142.5478,86.89952-23.1099.4509-8.3444,28.95298c-.8277,2.5431-1.425,5.1655-3.5127,7.7827-2.723,3.4137-6.0578,5.0623-7.92864,3.6095-.6928-.5381-3.0814-1.8339-3.5067-4.016l7.72144-36.41948c.4356-2.9586 2.1592-5.8563 4.4284-8.701s4.5793-3.6307 7.9286-3.6095l31.5353-.7727c1.5146.0706 2.6398.2073 3.3327.7454 1.8707,1.4529.9394,5.1524-1.7837,8.5662-2.0876,2.6172-4.0991,3.4507-6.7604,3.411z"/>
</svg>
