<?xml version="1.0" encoding="utf8" standalone="no"?>
<svg viewBox="0 0 546.55377 642.05786" xmlns="http://www.w3.org/2000/svg" xmlns:xlink="http://www.w3.org/1999/xlink">
<defs>
<linearGradient id="linearGradient3219">
<stop offset="0" stop-color="#d1d1d1"/>
<stop offset="1" stop-color="#a9a7a7"/>
</linearGradient>
<linearGradient gradientTransform="matrix(1.46576,0,0,1.23417,337.03687,553.76078)" gradientUnits="userSpaceOnUse" id="linearGradient3400" x1="-580.44702" x2="-575.71429" y1="52.55523" y2="271.61676">
<stop offset="0" stop-color="#ffdf98"/>
<stop offset="1" stop-color="#f4943f"/>
</linearGradient>
<linearGradient gradientUnits="userSpaceOnUse" id="linearGradient2932" x1="549.14533" x2="637.67577" y1="621.59474" y2="712.1554">
<stop offset="0" stop-color="#d1e8ff"/>
<stop offset=".40679" stop-color="#06a8ff" stop-opacity=".98431"/>
<stop offset="1" stop-color="#7931f1"/>
</linearGradient>
<linearGradient gradientUnits="userSpaceOnUse" id="linearGradient2934" x1="473.91635" x2="622.47498" y1="816.22952" y2="923.74084">
<stop offset="0" stop-color="#f9f9f9"/>
<stop offset="1" stop-color="#c3e9f3"/>
</linearGradient>
<linearGradient gradientUnits="userSpaceOnUse" id="linearGradient2936" x1="414.50974" x2="622.92927" y1="683.70116" y2="923.77536">
<stop offset="0" stop-color="#f9f9f9" stop-opacity="0"/>
<stop offset="1" stop-color="#a5c7eb"/>
</linearGradient>
<linearGradient gradientUnits="userSpaceOnUse" id="linearGradient2938" x1="385.70192" x2="629.36673" y1="617.74702" y2="869.98516">
<stop offset="0" stop-color="#71b7ff"/>
<stop offset=".54322" stop-color="#3b06ff" stop-opacity=".98431"/>
<stop offset="1" stop-color="#34097c"/>
</linearGradient>
<linearGradient gradientTransform="matrix(.99501,0,0,1.15078,-132.98507,-178.13534)" gradientUnits="userSpaceOnUse" id="linearGradient3721" x1="-382.68616" x2="-375.71429" y1="692.36218" y2="1123.8765">
<stop offset="0" stop-color="#fff"/>
<stop offset=".53723" stop-color="#f4943f"/>
<stop offset="1" stop-color="#c28e4f"/>
</linearGradient>
<linearGradient gradientTransform="matrix(1.07652,0,0,1.23976,-102.35754,-256.51715)" gradientUnits="userSpaceOnUse" id="linearGradient3750" x1="-382.68616" x2="-375.71429" y1="692.36218" y2="1123.8765">
<stop offset="0" stop-color="#f49422"/>
<stop offset="1" stop-color="#883526"/>
</linearGradient>
<linearGradient gradientUnits="userSpaceOnUse" id="linearGradient3225" x1="-386.62103" x2="-567.68903" xlink:href="#linearGradient3219" y1="679.00177" y2="522.13699"/>
<linearGradient gradientUnits="userSpaceOnUse" id="linearGradient3742" x1="-567.68903" x2="-386.62103" xlink:href="#linearGradient3219" y1="522.13698" y2="679.00179"/>
</defs>
<g transform="translate(732.51434,-502.56697)">
<path d="m-679.53125,590.375c-29.0961,0-52.96875,23.90388-52.96875,53v448.25c0,29.0961 23.87261,53.0001 52.96875,53h345.40625c29.0961,0 53-23.9039 53-53v-448.25c0-29.0961-23.9039-53-53-53h-345.40625zm0,30h345.40625c12.99501,0 23,10.00498 23,23v448.25c0,12.995-10.00498,23-23,23h-345.40625c-12.99503,0-22.96875-10.005-22.96875-23v-448.25c0-12.99506 9.97373-23 22.96875-23z" fill="url(#linearGradient3750)" fill-rule="evenodd"/>
<path d="m-666.29792,621.91107h318.94967a35.26208,35.26208 0 0,1 35.26208,35.26208v416.09252a35.26208,35.26208 0 0,1 -35.26208,35.26208h-318.94967a35.26208,35.26208 0 0,1 -35.26208-35.26208v-416.09252a35.26208,35.26208 0 0,1 35.26208-35.26208" fill="url(#linearGradient3400)" fill-rule="evenodd"/>
<path d="m-666.3125,606.96875c-27.54676,0-50.1875,22.67199-50.1875,50.21875v416.0937c0,27.5468 22.64072,50.1876 50.1875,50.1876h318.96875c27.54676,0 50.1875-22.672 50.1875-50.2188v-416.0625c0-27.54676-22.64074-50.21875-50.1875-50.21875h-318.96875zm0,29.875h318.96875c11.52363,0 20.34375,8.82013 20.34375,20.34375v416.0625c0,11.5237-8.82013,20.3438-20.34375,20.3438h-318.96875c-11.52362,0-20.3125-8.7889-20.3125-20.3126v-416.0937c0-11.52363 8.78888-20.34375 20.3125-20.34375z" fill="url(#linearGradient3721)" fill-rule="evenodd"/>
<g transform="translate(-855.488,5.66477)">
<path d="m549.14531,609.00535v103.1501l104.59765-1.3784-104.59765-101.7717z" fill="url(#linearGradient2932)" fill-rule="evenodd"/>
<path d="m377.96937,602.58515v358.3712l282.56184-1.3784-1.37838-243.968h-113.02468v-113.0248h-168.15878zm170.29855-1.9952 112.91544,112.7709" fill="url(#linearGradient2934)" fill-rule="evenodd"/>
<path d="m385.27442,608.41007v6.5625 332.78125 6.46875h6.46875 255.03125 6.46875v-6.46875-219.125-6.59375l-6.59375.125-108.34375,2.0625 1.03125-107 .0625-6.4375-6.4375-.09375-141.125-2.1875-6.5625-.09375zm12.9375,13.125 128.125,2-1.03125,107.21875-.0625,6.65625 6.65625-.125 108.40625-2.0625v206.0625h-242.09375v-319.75z" fill="url(#linearGradient2936)" fill-rule="evenodd"/>
<path d="m370.55567,595.16007v7.4375 358.34375 7.46873l7.4375-.0312 282.5625-1.375 7.4375-.0313-.03125-7.43748-1.375-243.96875-.03125-7.375h-.21875l.09375-.09375-112.875-112.71875v-.21875h-7.4375-168.15625-7.40625zm14.84375,14.84375h153.3125v105.59375 7.4375h7.40625 105.625l1.3125,229.15625-267.65625,1.3125v-343.5zm168.15625,6.375 91.9375,91.8125h-91.9375v-91.8125z" fill="url(#linearGradient2938)" fill-rule="evenodd"/>
</g>
<path d="m-571.46654,551.03742-2.4712,30.80646c-23.5877,10.17732-27.2582,9.56157-50.9353,9.44718-10.2049,2.77307-30.6202-.66174-37.7457-2.05397-5.4495-1.0648-12.1556,5.48739-13.0673,12.23251l-4.0677,30.09424 345.86134.31326-1.1057-35.18896c-.12317-3.91984-5.76928-9.95637-15.31516-9.55274s-29.15684,3.16653-38.45096,2.78357c-18.58833-.76592-40.35772-5.1954-53.48312-10.83405l-1.0381-30.38323c-.02924-.85584-10.2933-10.61152-15.4422-9.49972-4.7455,1.02469-7.3902,3.49414-8.5704,10.9476-.3289,5.57986-6.5646,6.32427-9.0835,6.60887-3.2383.3659-11.1369-3.15627-8.875-11.34886 14.9916-23.64478-6.9057-34.7559-20.4127-35.39641-23.6785-1.12283-40.1305,18.44347-24.8363,34.55003 1.1073,4.4747 1.2385,10.49095-7.8649,13.41808-2.1681,1.28621-9.2373-.84529-11.2066-5.26289s-.1081-10.27495-8.5349-11.36262c-3.8084.44817-13.09105,6.39624-13.3546,9.68165z" fill="url(#linearGradient3225)" fill-rule="evenodd"/>
<path d="m-505.3125,502.625c-13.95168-.66159-26.29864,4.56668-33.28125,13.71875-6.50042,8.52006-6.75007,21.25234.96875,31.125 .0466.63676.17831,1.52228.125,1.65625-.08633.21694-.126.77453-2.9375,1.71875-.22374-.04452-.4651-.06555-.84375-.21875-1.04067-.42106-1.70711-1.30075-1.53125-.90625-.13642-.30601-.18716-2.64181-1.71875-6.59375s-6.67041-8.32518-12.625-9.09375l-.90625-.125-.90625.09375c-4.98498.58662-7.8723,2.63441-11.34375,5.03125-1.73573,1.19842-3.3833,2.50974-4.875,4.09375s-3.32774,3.21724-3.65625,7.3125l-2.09375,26.28125c-18.74255,7.85115-21.84145,7.2941-43.90625,7.1875l-1-.03125-.96875.28125c-3.15133.85633-10.50909.9634-17.40625.3125s-13.58733-1.83931-16.96875-2.5c-6.08912-1.18974-11.12592,1.65088-14.75,5.09375s-6.35791,7.9622-7.09375,13.40625l-4.0625,30.09375-1.125,8.40625h8.46875l345.84375.3125h7.65625l-.25-7.625-1.09375-35.1875c-.16931-5.38847-3.12701-9.15163-7.125-12.125s-9.51611-4.86395-15.90625-4.59375c-5.27125.22289-12.52492,1.03155-19.71875,1.71875s-14.42326,1.21503-18.125,1.0625c-15.81963-.65182-34.35718-4.37979-46.53125-8.75l-.875-25.34375c-.12389-3.62506-1.00202-3.54494-1.34375-4.0625s-.6081-.84118-.875-1.15625c-.53379-.63014-1.10385-1.1844-1.75-1.8125-1.2923-1.25619-2.9204-2.70771-4.8125-4.125s-3.98527-2.79877-6.40625-3.90625-5.25331-2.26251-9.21875-1.40625c-3.29431.71134-7.1072,2.40081-9.75,5.5625-2.61001,3.12245-3.823,6.93652-4.53125,11.3125-.41207.14654-1.17969.3068-2,.4375h-.03125c.03817-.11343-1.0551-.24764-1.375-.53125-.31308-.27757-.40146-.26532-.3125-.6875 3.77328-6.35449 5.67525-12.53987 5.46875-18.34375-.22076-6.20468-2.89039-11.65729-6.5-15.625-7.21922-7.93543-17.4132-11.06156-26-11.46875zm-.71875,14.78125c4.9202.23332 12.42297,2.9648 15.78125,6.65625 1.67914,1.84572 2.53431,3.63873 2.625,6.1875s-.70369,6.1857-3.875,11.1875l-.59375.9375-.28125,1.0625c-1.79143,6.48855.84159,13.07968 4.59375,16.40625s7.30025,4.83702 12.21875,4.28125c1.29778-.14663 4.33762-.36203 7.75-2 3.25473-1.56229 7.11071-5.65783 7.75-10.8125h.0625c.47631-3.00809 1.15153-4.11993 1.3125-4.3125 .09564-.11441.61647-.23921.90625-.34375 .14545.02435.24355.01034.5625.15625 .95257.43576 2.36632,1.32287 3.6875,2.3125 1.14947.86101 2.1432,1.75584 2.9375,2.5l.9375,27.71875 .1875,4.6875 4.3125,1.84375c14.56052,6.25518 36.57027,10.63307 56.09375,11.4375 5.59238.23043 12.80334-.42559 20.125-1.125s14.66289-1.4755 18.9375-1.65625c3.15574-.13343 5.22643.76356 6.46875,1.6875s1.17115,2.15616 1.125.6875l.875,27.5625-329.75-.3125 2.9375-21.6875c.17586-1.30107 1.27448-3.4342 2.59375-4.6875s2.35835-1.15628 1.71875-1.28125c3.74408.73154 10.79441,1.96621 18.4375,2.6875 7.1818.67776 14.61655,1.04145 21.34375-.5 22.92804.1124 29.5681.15547 53.25-10.0625l4.09375-1.75 .34375-4.4375 2.34375-29.3125c.4797-.48166 1.30095-1.20783 2.3125-1.90625 1.21766-.84073 2.67785-1.4815 3.71875-1.9375 .12901.9903.3464,3.07865 1.84375,6.4375 2.14516,4.8121 6.00298,7.19746 9.53125,8.625 1.76414.71377 3.51548,1.17713 5.40625,1.34375 1.50465.13259 3.25066.01713 5.28125-.78125l.03125.125c5.96805-1.91898 10.53105-5.80377 12.375-10.4375s1.1293-8.89061.40625-11.8125l-.46875-1.90625-1.34375-1.40625c-5.70448-6.00748-5.02696-9.77924-1.6875-14.15625s11.05444-8.3675 20.78125-7.90625z" fill="url(#linearGradient3742)" fill-rule="evenodd"/>
</g>
</svg>
