<?xml version="1.0" encoding="utf8" standalone="no"?>
<svg viewBox="0 0 48 48" xmlns="http://www.w3.org/2000/svg" xmlns:xlink="http://www.w3.org/1999/xlink">
<defs>
<linearGradient id="linearGradient4991">
<stop offset="0" stop-color="#fff"/>
<stop offset="1" stop-color="#fff" stop-opacity="0"/>
</linearGradient>
<linearGradient gradientUnits="userSpaceOnUse" id="linearGradient2238" x1="33" x2="31.5" y1="35.75" y2="42.5">
<stop offset="0" stop-color="#788600"/>
<stop offset="1" stop-color="#788600" stop-opacity="0"/>
</linearGradient>
<linearGradient gradientUnits="userSpaceOnUse" id="linearGradient2246" x1="33" x2="31.5" y1="35.75" y2="42.5">
<stop offset="0" stop-color="#99b00b"/>
<stop offset="1" stop-color="#99b00b" stop-opacity="0"/>
</linearGradient>
<linearGradient gradientTransform="matrix(1.813471e-16,-1.17193,1.17193,1.813471e-16,1.7828,54.10111)" gradientUnits="userSpaceOnUse" id="linearGradient1764" x1="17.06081" x2="12.62434" xlink:href="#linearGradient4991" y1="11.39502" y2="12.58377"/>
<radialGradient cx="24.83713" cy="36.42113" gradientTransform="matrix(1,0,0,.53672,-5.825329e-14,16.87306)" gradientUnits="userSpaceOnUse" id="radialGradient8668" r="15.64474">
<stop offset="0"/>
<stop offset="1" stop-opacity="0"/>
</radialGradient>
<radialGradient cx="16.56384" cy="11.13224" gradientTransform="matrix(-1.290127e-2,1.6852,1.71308,1.311475e-2,-1.0415,-10.11571)" gradientUnits="userSpaceOnUse" id="radialGradient4997" r="19.0625" xlink:href="#linearGradient4991"/>
</defs>
<path d="m40.48186,36.42113a15.64474,8.39689 0 1,1 -31.28947,0 15.64474,8.39689 0 1,1 31.28947,0z" fill="url(#radialGradient8668)" fill-rule="evenodd" opacity=".14118" transform="matrix(1.48974,0,0,-1.00125,-12.64716,75.31260)"/>
<path d="m38.37476,45.03437c-40.02581,1.32114-33.69996-32.74082-12.87997-32.53672v-9.37541l16.64848,14.58658-16.64848,15.29753v-9.66838c-14.06311-.58597-18.17753,21.43258 12.87997,21.6964z" display="block" fill="url(#linearGradient2246)" stroke="url(#linearGradient2238)"/>
<path d="m16.92492,39.31552c-11.7231-6.07963-8.18779-26.22803 9.58358-25.76556v-8.09909l14.04774,12.26372-14.04774,12.94403v-8.27764c-14.83985-.34827-14.15991,12.7576-9.58358,16.93454z" display="block" fill="none" opacity=".69886" stroke="url(#linearGradient1764)" stroke-miterlimit="10"/>
<path d="m26.03699,4.56861 10.68674,10.22963c-6.9375,0-4.68674,8.93718-10.81174,11.81218l.0625-3.66681c-15.1875-.0625-14.3125,15.5-3.25,19.75-19.08815-4.88193-16.4375-29.3125 3.1875-29.8125l.125-8.3125z" fill="url(#radialGradient4997)" opacity=".49432"/>
</svg>
