<?xml version="1.0" encoding="utf8" standalone="no"?>
<svg viewBox="0 0 128 128" xml:space="preserve" xmlns="http://www.w3.org/2000/svg"><defs>
    
    
    
    
    
    
    
    
    
    
    
  <clipPath>
      <path d="m0,792h1224v-792h-1224v792z"></path>
    </clipPath><clipPath>
      <path d="m1036.92,541.355h.15v-.317h-.15v.317z"></path>
    </clipPath><clipPath>
      <path d="m1051.2,535.419h.99v-1.098h-.99v1.098z"></path>
    </clipPath><clipPath>
      <path d="m1051.51,534.857h.63v-.386h-.63v.386z"></path>
    </clipPath><clipPath>
      <path d="m1077.27,529.228h.39v-.156h-.39v.156z"></path>
    </clipPath><clipPath>
      <path d="m1105.32,530.784h.75v-.263h-.75v.263z"></path>
    </clipPath><linearGradient gradientUnits="userSpaceOnUse" x1="210.25879" x2="135.17111">
      <stop offset="0" stop-color="#fff"></stop>
      <stop offset="1"></stop>
    </linearGradient><linearGradient gradientUnits="userSpaceOnUse" x1="210.25928" x2="135.17194">
      <stop offset="0" stop-color="#fff"></stop>
      <stop offset="1"></stop>
    </linearGradient><linearGradient gradientUnits="userSpaceOnUse" x1="210.25928" x2="135.17107">
      <stop offset="0" stop-color="#fff"></stop>
      <stop offset="1"></stop>
    </linearGradient><linearGradient gradientUnits="userSpaceOnUse" x1="210.25928" x2="135.1713">
      <stop offset="0" stop-color="#fff"></stop>
      <stop offset="1"></stop>
    </linearGradient></defs>
  
  
  <g transform="matrix(1.25,0,0,-1.25,-538.6025,808.93375)">
    <g transform="matrix(.98793,0,0,.98793,5.48773,9.00587)">
      <g transform="matrix(.75498,-.6159,.6159,.75498,-247.30111,445.77943)">
        <path d="m482.23609,647.18785 8.63373-51.26511v-12.81628l-6.61032-.1885c.32395,5.96369-6.15049,10.72738-10.65713,9.80071 .05508,9.6122 0,35.24476 0,44.85697-.21343,6.54316 3.1432,9.5451 8.63372,9.61221z" fill="#fff" fill-rule="evenodd" stroke="#000" stroke-width="1.51831"></path>
        <path d="m490.85896,582.71489 .00873-8.96431c1.47994,2.03286 6.28887,3.39544 9.486,3.39855 8.806.00856 15.95697-7.15248 15.96554-15.95948 .00857-8.80499-7.12845-15.98194-15.93445-15.9905-8.51367-.0083-15.50262,6.68341-15.96468,15.08446l-.025-2e-005-.00085.875-.02098,21.54999 6.48569.00631zm9.50196-12.99076c-4.711-.00459-8.54626-3.84732-8.54167-8.55831s3.84731-8.54626 8.55831-8.54169 8.52126,3.8493 8.51668,8.5583-3.82232,8.54629-8.53332,8.5417z" stroke="#000" stroke-width="1.6"></path>
      </g>
      <g transform="matrix(9.8348586e-2,-.96936,.96936,9.8348586e-2,-142.37161,1009.4173)">
        <path d="m482.22649,647.18785-8.63373-51.26511v-12.81628l6.31858-.18689c-.18335,5.30969 5.36318,9.87292 10.85396,8.86367-.05508,9.6122.09491,36.18019.09491,45.7924 .21343,6.54316-3.1432,9.5451-8.63372,9.61221z" fill="#fff" fill-rule="evenodd" stroke="#000" stroke-width="1.51831"></path>
        <path d="m473.58978,582.8572-.00873-8.96431c-1.47994,2.03286-6.28887,3.39544-9.486,3.39855-8.806.00856-15.95697-7.15248-15.96554-15.95948-.00857-8.80499 7.12845-15.98194 15.93445-15.9905 8.51367-.0083 15.50262,6.68341 15.96468,15.08446l.025-2e-005 .00085.875-.19744,21.46714-6.26727.08916zm-9.50196-12.99076c4.711-.00459 8.54626-3.84732 8.54167-8.55831s-3.84731-8.54626-8.55831-8.54169-8.52126,3.8493-8.51668,8.5583 3.82232,8.54629 8.53332,8.5417z" stroke="#000" stroke-width="1.6"></path>
      </g>
      <path d="m483.14335,597.79225c-1.59982,1.30509-1.83815,3.66102-.53306,5.26084s3.66027,1.83876 5.26008.53367 1.83876-3.66027.53367-5.26008-3.66088-1.83952-5.26069-.53443" stroke="#000" stroke-width=".97434"></path>
    </g>
  </g>
</svg>
